<svg width="349" height="107" viewBox="0 0 349 107" fill="none" xmlns="http://www.w3.org/2000/svg">
<path d="M90.8203 56.3682C90.8203 55.899 90.6388 55.5789 90.2764 55.4082L84.3242 52.208V50.7676L90.3076 47.5361C90.5209 47.4295 90.6388 47.2907 90.6602 47.1201C90.7028 46.9495 90.7236 46.7255 90.7236 46.4482V39.5996C90.7235 39.0665 90.457 38.7998 89.9238 38.7998H80.3242L80.1816 38.8076C80.0419 38.8236 79.9081 38.8639 79.7803 38.9277L79.6543 38.9805C79.5303 39.0365 79.4118 39.1036 79.2998 39.1836L72.4844 44.1758C72.2924 44.3251 72.1636 44.4856 72.0996 44.6562C72.057 44.8054 72.0362 44.9653 72.0361 45.1357V55.792C72.0361 56.3039 72.1957 56.6457 72.5156 56.8164L79.0439 60.3359V61.7441L72.5156 65.2324C72.1959 65.3818 72.0361 65.702 72.0361 66.1924V73.2002L72.0488 73.3877C72.1072 73.7959 72.3694 74 72.8359 74H82.6279V73H73.0361V66.1924C73.0361 66.1457 73.0406 66.1099 73.0439 66.083L80.0439 62.3438V59.7393L73.0508 55.9688C73.0439 55.9352 73.0361 55.8787 73.0361 55.792V45.1357C73.0361 45.0897 73.0382 45.0495 73.043 45.0146C73.0547 45.003 73.071 44.9861 73.0957 44.9668L79.8809 39.9971C79.9331 39.9597 79.9902 39.926 80.0537 39.8965L80.166 39.8506L80.1973 39.8369L80.2275 39.8223C80.251 39.8106 80.2706 39.8055 80.2891 39.8027L80.3438 39.7998H89.7236V46.4482L89.7119 46.7207L83.3242 50.1709V52.8057L89.8027 56.2891L89.8135 56.2949C89.8157 56.3122 89.8203 56.336 89.8203 56.3682V66.6396C89.8203 66.9191 89.7381 67.0606 89.6143 67.1699L89.6113 67.1729L83.2783 72.8047L83.21 72.8555C83.0849 72.9364 82.9067 73 82.6279 73V74C83.076 74 83.459 73.8941 83.7764 73.6816L83.9082 73.584L90.2764 67.9199C90.6389 67.5999 90.8203 67.1729 90.8203 66.6396V56.3682ZM320.083 90C320.083 86.5866 319.976 84.4651 319.578 82.9307L319.575 82.9199C319.404 82.2448 319.22 81.8768 319.087 81.6768C318.997 81.5422 318.914 81.458 318.83 81.3936L318.745 81.334C318.396 81.1115 317.388 80.6678 314.529 80.3721H314.527C311.647 80.071 307.846 80 302.5 80C297.152 80 293.353 80.071 290.473 80.3721H290.471C287.969 80.6309 286.884 81.0032 286.419 81.2412L286.255 81.334C286.14 81.4074 286.032 81.4973 285.913 81.6768C285.78 81.8768 285.596 82.2448 285.425 82.9199L285.422 82.9307C285.024 84.4651 284.917 86.5866 284.917 90L284.922 91.2041L284.937 92.1885C284.983 94.3858 285.12 95.9054 285.422 97.0693L285.425 97.0801C285.596 97.7552 285.78 98.1232 285.913 98.3232C286.032 98.5027 286.14 98.5926 286.255 98.666L286.419 98.7588C286.884 98.9969 287.969 99.3695 290.47 99.627H290.474C293.353 99.9294 297.152 100 302.5 100C307.846 100 311.647 99.9294 314.526 99.627H314.53C317.388 99.3327 318.396 98.8885 318.745 98.666L318.83 98.6064C318.914 98.542 318.997 98.4578 319.087 98.3232C319.22 98.1232 319.404 97.7552 319.575 97.0801L319.578 97.0693C319.976 95.5349 320.083 93.4134 320.083 90ZM290.339 82.0098C291.042 81.9641 291.812 82.0805 292.518 82.4209L292.816 82.5801L292.914 82.6387L293.842 83.1826L293.895 83.2129L293.901 83.2178C295.851 84.3576 298.171 85.7064 299.967 87.377L300.321 87.7188L300.463 87.8594L300.476 87.8789C300.861 88.2906 301.562 89.1617 301.562 90.376C301.562 91.7553 300.655 92.6945 300.337 93.0176L300.331 93.0225L300.324 93.0293L300.321 93.0332C300.312 93.0426 300.301 93.0512 300.292 93.0605C300.932 92.6911 301.666 92.5 302.35 92.5V94.5C301.352 94.5 300.542 95.172 300.542 96C300.542 96.828 301.352 97.5 302.35 97.5V96.5C302.071 96.5 301.848 96.4058 301.71 96.291C301.574 96.1779 301.542 96.0703 301.542 96C301.542 95.9297 301.574 95.8221 301.71 95.709C301.848 95.5942 302.071 95.5 302.35 95.5H314.4C314.679 95.5 314.902 95.5942 315.04 95.709C315.176 95.8221 315.208 95.9297 315.208 96C315.208 96.0703 315.176 96.1779 315.04 96.291C314.902 96.4058 314.679 96.5 314.4 96.5V97.5C315.398 97.5 316.208 96.828 316.208 96C316.208 95.172 315.398 94.5 314.4 94.5H302.35V92.5H314.4C316.138 92.5 318.208 93.7345 318.208 96C318.208 98.2655 316.138 99.5 314.4 99.5H302.35C300.612 99.5 298.542 98.2655 298.542 96C298.542 95.2501 298.769 94.6133 299.136 94.0967C297.478 95.4564 295.573 96.5601 293.892 97.54L293.033 98.042L293.032 98.041C292.952 98.0882 292.886 98.1264 292.814 98.1689C292.034 98.6313 291.144 98.7917 290.341 98.7402C289.543 98.689 288.654 98.417 287.933 97.8008L287.79 97.6729C287.099 97.0145 286.684 96.0724 286.817 95.0352C286.956 93.9614 287.636 93.1427 288.447 92.6611L288.449 92.6592C288.807 92.4473 289.168 92.2379 289.521 92.0322L289.522 92.0303C290.503 91.4577 291.416 90.9208 292.246 90.377C291.808 90.0895 291.343 89.8025 290.857 89.5107L289.19 88.5273C288.944 88.3824 288.694 88.2359 288.446 88.0889C287.685 87.6373 287.04 86.8914 286.848 85.9072C286.649 84.891 286.993 83.9125 287.661 83.2061L287.7 83.1641L287.742 83.125L287.859 83.0146L287.895 82.9814L287.933 82.9492C288.652 82.3351 289.54 82.0617 290.339 82.0098ZM302.35 96.5V97.5H314.4V96.5H302.35ZM291.796 84.3008C291.024 83.8433 289.883 83.9142 289.23 84.4707L289.113 84.5811C288.576 85.149 288.724 85.9291 289.468 86.3691C289.711 86.5134 289.957 86.658 290.203 86.8027C290.31 86.8657 290.418 86.9291 290.525 86.9922L291.874 87.7881C293.215 88.5932 294.51 89.432 295.575 90.376C294.138 91.6523 292.342 92.7005 290.531 93.7578L290.527 93.7598C290.175 93.9652 289.82 94.1724 289.468 94.3809C288.677 94.8503 288.559 95.7063 289.23 96.2793C289.883 96.8373 291.026 96.9052 291.796 96.4492C291.872 96.4045 291.948 96.3601 292.023 96.3154L292.885 95.8115C295.037 94.5577 297.248 93.2695 298.91 91.6152L298.912 91.6133C299.22 91.3013 299.562 90.8784 299.562 90.376C299.562 89.872 299.22 89.4507 298.912 89.1387L298.91 89.1357C297.275 87.5069 294.99 86.171 292.842 84.915L292.836 84.9111C292.486 84.7072 292.138 84.5037 291.798 84.3027L291.796 84.3008ZM287.995 96.291C287.995 96.291 287.997 96.2937 287.998 96.2959C287.992 96.2841 287.987 96.2719 287.981 96.2598C287.986 96.2699 287.99 96.2807 287.995 96.291ZM287.882 96C287.887 96.0164 287.892 96.0341 287.898 96.0527C287.893 96.036 287.887 96.0183 287.882 96ZM287.851 95.8916C287.853 95.8999 287.856 95.9095 287.859 95.9209C287.851 95.8903 287.844 95.8515 287.835 95.8066C287.841 95.8344 287.844 95.8632 287.851 95.8916ZM290.533 85.0029C290.824 84.9841 291.093 85.0489 291.28 85.1582L291.29 85.1641C291.622 85.3598 291.96 85.5579 292.302 85.7568L292.312 85.7637L292.337 85.7783C294.378 86.9715 296.407 88.1637 297.911 89.5615L298.204 89.8447C298.334 89.9766 298.431 90.0929 298.495 90.1992C298.557 90.3027 298.562 90.3569 298.562 90.376C298.562 90.3943 298.556 90.4486 298.494 90.5527C298.43 90.6591 298.333 90.7756 298.205 90.9062C296.65 92.4531 294.559 93.6784 292.381 94.9473L292.38 94.9482L291.519 95.4521L291.517 95.4531C291.444 95.4957 291.364 95.5427 291.287 95.5879L291.286 95.5889C291.099 95.6996 290.827 95.7649 290.533 95.7461C290.237 95.7271 290.009 95.6291 289.881 95.5195L289.88 95.5186L289.814 95.4512C289.802 95.4341 289.796 95.4227 289.794 95.418C289.791 95.4116 289.793 95.4121 289.793 95.416C289.8 95.3958 289.835 95.3246 289.978 95.2402C290.327 95.0338 290.679 94.8281 291.03 94.623L291.035 94.6211C292.826 93.5754 294.714 92.4784 296.239 91.124L297.082 90.375L296.238 89.6279C295.101 88.6197 293.74 87.7418 292.389 86.9307L292.382 86.9268L291.033 86.1309L291.032 86.1299L290.709 85.9404C290.463 85.7959 290.219 85.6525 289.979 85.5098L289.978 85.5088L289.874 85.4346C289.848 85.4119 289.83 85.3918 289.817 85.376C289.805 85.3602 289.799 85.348 289.796 85.3408C289.795 85.3383 289.793 85.335 289.793 85.335C289.796 85.3281 289.806 85.3063 289.837 85.2725L289.883 85.2285C290.013 85.1194 290.24 85.022 290.533 85.0029ZM68.1543 75.1807C67.4189 74.8094 66.4774 75.0299 66.0527 75.6729L55.2832 91.9824C54.8588 92.6253 55.1108 93.448 55.8457 93.8193C56.5811 94.1906 57.5226 93.9701 57.9473 93.3271L68.7168 77.0176C69.1412 76.3747 68.8892 75.552 68.1543 75.1807ZM66.8877 76.2236C67.0042 76.048 67.3729 75.9068 67.7031 76.0732L67.793 76.1289C67.8681 76.1869 67.9013 76.2483 67.9141 76.29C67.9295 76.3405 67.9278 76.3972 67.8818 76.4668L57.1123 92.7764C57.0104 92.9301 56.7153 93.0576 56.4219 92.9756L56.2969 92.9268C56.1566 92.8559 56.103 92.7655 56.0859 92.71C56.0705 92.6596 56.0722 92.6028 56.1182 92.5332L66.8877 76.2236ZM74.9092 77.75C74.1907 77.3532 73.2843 77.3515 72.7412 77.9219C72.1968 78.4922 72.2862 79.3416 72.9385 79.8164L73.1875 79.9971C75.5874 81.7485 76.6858 82.5483 78.7441 84.5C76.7243 86.4141 75.5891 87.2456 73.3154 88.9082L72.9385 89.1836L72.8232 89.2773C72.2778 89.7639 72.2307 90.5433 72.7412 91.0781C73.2842 91.6485 74.2549 91.7261 74.9072 91.25L74.9092 91.249C77.3845 89.8809 78.9234 88.5361 81.3711 85.917C81.708 85.4986 82 85.0246 82 84.5C82 83.9754 81.708 83.5017 81.3711 83.082C78.9234 80.4643 77.3845 79.1194 74.9092 77.75ZM51.2588 77.9219C50.7157 77.3515 49.8093 77.3532 49.0908 77.75C46.6155 79.1194 45.0766 80.4643 42.6289 83.082C42.292 83.5017 42 83.9754 42 84.5C42 85.0246 42.292 85.4986 42.6289 85.917C45.0765 88.5361 46.6155 89.8809 49.0908 91.249L49.0928 91.25L49.2178 91.333C49.2838 91.3721 49.3534 91.4036 49.4238 91.4326C50.042 91.6872 50.8016 91.5583 51.2588 91.0781C51.8032 90.5078 51.7138 89.6584 51.0615 89.1836L50.6846 88.9082C48.4109 87.2456 47.2757 86.4141 45.2559 84.5C47.3142 82.5483 48.4126 81.7485 50.8125 79.9971L51.0615 79.8164C51.7138 79.3416 51.8032 78.4922 51.2588 77.9219ZM53.4824 77.8672C53.8684 79.158 53.3967 80.5903 52.2383 81.4336L52.2363 81.4355L51.9873 81.6162L51.9863 81.6152C50.3342 82.8209 49.3425 83.5475 48.2354 84.498C49.3261 85.4328 50.3074 86.1546 51.8643 87.293L52.2393 87.5674C53.3741 88.394 53.8496 89.7856 53.5049 91.0557C53.539 90.9968 53.5759 90.938 53.6143 90.8799L63.4395 76H56.7197C56.4053 75.9999 56.0238 75.9576 55.6357 75.8115L53.4824 77.8672ZM73.8145 78.4717C73.9938 78.4618 74.2145 78.5091 74.4248 78.625C76.7615 79.9177 78.2159 81.1749 80.6045 83.7266C80.9056 84.1053 81 84.341 81 84.5C81 84.6589 80.9051 84.8946 80.6055 85.2705C78.2239 87.8161 76.7717 89.0732 74.4482 90.3604L74.3848 90.3926L74.3174 90.4424C74.0558 90.6331 73.6502 90.582 73.4658 90.3887L73.4648 90.3877L73.4219 90.334C73.3894 90.2835 73.3833 90.2408 73.3848 90.21C73.3869 90.1665 73.4071 90.0982 73.4863 90.0264L73.542 89.9805L73.9053 89.7158C76.1864 88.0478 77.3639 87.1851 79.4316 85.2256L80.1973 84.5L79.4326 83.7744C77.3258 81.7766 76.184 80.9458 73.7773 79.1895L73.7744 79.1875L73.5273 79.0078C73.4183 78.9284 73.3906 78.8476 73.3857 78.8008C73.3812 78.7564 73.3905 78.6902 73.4648 78.6123L73.4658 78.6113C73.5349 78.5389 73.6428 78.4812 73.8145 78.4717ZM49.7148 78.7002L49.8799 79.0312L49.8809 79.0332L50.0293 79.3311C47.7534 80.9922 46.617 81.8309 44.5674 83.7744L43.8027 84.5L44.5684 85.2256C46.6282 87.1776 47.8043 88.0407 50.0684 89.6963L49.5762 90.373L49.5518 90.3613C47.2279 89.074 45.7755 87.8165 43.3936 85.2705C43.0942 84.8949 43 84.6589 43 84.5C43 84.3411 43.0937 84.105 43.3945 83.7266C45.7834 81.1746 47.2383 79.9178 49.5752 78.625C49.6934 78.5598 49.8151 78.5179 49.9307 78.4941L49.7148 78.7002ZM288.014 86.248C288.017 86.2544 288.02 86.2605 288.022 86.2646L288.027 86.2744L288.028 86.2754L288.006 86.2324C288.01 86.2401 288.012 86.2455 288.014 86.248ZM70.6016 74.959C70.929 75.6305 71.0283 76.4069 70.8184 77.1719C70.9474 76.951 71.1058 76.7391 71.2949 76.541C71.5445 76.2793 71.8136 76.0721 72.0947 75.9131C71.7561 75.8327 71.397 75.6867 71.0615 75.4258C70.8792 75.2839 70.7285 75.1247 70.6016 74.959ZM52.3984 75.9434C52.2722 75.9672 52.1497 75.981 52.0332 75.9893C52.0447 75.9965 52.0559 76.0043 52.0674 76.0117L52.3984 75.9434ZM54.2549 74.6045C54.0971 74.9001 53.8753 75.1855 53.5664 75.4258C53.201 75.71 52.808 75.8599 52.4434 75.9346L54.9395 75.4209C54.6332 75.1813 54.4118 74.8987 54.2549 74.6045ZM11.25 57.3848C6.14136 57.3848 2 61.1042 2 65.6924L2.01172 66.1201C2.25962 70.5095 6.30111 74 11.25 74V69C8.38403 69 7.00005 67.0274 7 65.6924C7 64.3573 8.38397 62.3848 11.25 62.3848V61.3848C7.89377 61.3848 6 63.7449 6 65.6924C6.00007 67.5408 7.70644 69.7586 10.75 69.9795V72.9854C6.48392 72.7618 3.2189 69.6986 3.01074 66.0693L3 65.6777C3.00889 61.7465 6.59565 58.3848 11.25 58.3848H29.75C34.4043 58.3848 37.9911 61.7465 38 65.6777L37.9893 66.0693C37.773 69.8392 34.2586 73 29.75 73V74C34.6989 74 38.7404 70.5095 38.9883 66.1201L39 65.6924C39 61.1042 34.8586 57.3848 29.75 57.3848H11.25ZM11.25 61.3848V62.3848H19.9404C19.5949 63.3178 19.388 64.3313 19.3584 65.416L19.3545 65.6924L19.3584 65.9688C19.3881 67.0534 19.5949 68.067 19.9404 69H11.25V74H29.75V73H11.75V70H21.377L20.8779 68.6523C20.6082 67.9239 20.4325 67.1395 20.375 66.3027L20.3584 65.9414L20.3545 65.7061L20.3584 65.4434C20.385 64.4703 20.5697 63.5648 20.8779 62.7324L21.377 61.3848H11.25ZM48.5596 31.3438C48.1118 31.3439 47.7707 31.5043 47.5361 31.8242L39.9844 42.5762C39.771 42.8748 39.6641 43.1948 39.6641 43.5361V73.2002L39.6768 73.3877C39.7352 73.7958 39.9974 74 40.4639 74H51.792C52.2586 74 52.5207 73.7959 52.5791 73.3877L52.5918 73.2002V60.9756H55.9199V73.2002L55.9326 73.3877C55.991 73.7958 56.2533 73.9999 56.7197 74H68.0479C68.5145 74 68.7776 73.7959 68.8359 73.3877L68.8477 73.2002V43.5361C68.8477 43.1949 68.7415 42.8748 68.5283 42.5762L60.9121 31.8242C60.6988 31.5042 60.357 31.3438 59.8877 31.3438H48.5596ZM114.059 38.7998C113.525 38.7998 113.259 39.0665 113.259 39.5996V73.2002L113.271 73.3877C113.33 73.7959 113.592 74 114.059 74H123.946C124.413 74 124.676 73.7959 124.734 73.3877L124.746 73.2002V55.0879L130.667 50.9922C130.859 50.8643 130.976 50.7463 131.019 50.6396C131.082 50.5116 131.114 50.2766 131.114 49.9355V39.5996C131.114 39.0665 130.848 38.7998 130.314 38.7998H127.755L127.62 38.8057C127.31 38.8336 127.024 38.9597 126.763 39.1836L124.683 41.2002L122.891 39.3438C122.592 39.0264 122.285 38.8482 121.97 38.8086L121.835 38.7998H114.059ZM141.169 38.7998L140.987 38.8086C140.572 38.8483 140.206 39.0266 139.889 39.3438L133.488 45.7441C133.147 46.0854 132.977 46.5125 132.977 47.0244V65.7764L132.984 65.9639C133.022 66.3931 133.19 66.757 133.488 67.0557L139.889 73.4561L140.027 73.584C140.311 73.8219 140.631 73.9572 140.987 73.9912L141.169 74H150.896V73H141.196L141.068 72.9932C140.928 72.9773 140.803 72.9266 140.676 72.8213L140.578 72.7314L134.195 66.3486C134.067 66.2206 133.999 66.0787 133.981 65.8809L133.977 65.751V47.0244C133.977 46.7594 134.054 46.5924 134.195 46.4512L140.596 40.0508L140.719 39.9443C140.836 39.8585 140.95 39.819 141.069 39.8057L141.196 39.7998H150.896C151.109 39.7998 151.285 39.8664 151.47 40.0508L157.869 46.4512C158.011 46.5933 158.089 46.7607 158.089 47.0244V65.7764L158.085 65.8701C158.068 66.0806 157.994 66.224 157.869 66.3486L151.489 72.7285L151.385 72.8242C151.235 72.9463 151.085 73 150.896 73V74C151.326 74 151.706 73.8614 152.037 73.584L152.177 73.4561L158.576 67.0557C158.917 66.7144 159.089 66.2882 159.089 65.7764V47.0244C159.089 46.5124 158.918 46.0855 158.576 45.7441L152.177 39.3438C151.814 38.9811 151.387 38.7998 150.896 38.7998H141.169ZM163.246 38.7998L163.059 38.8125C162.65 38.8708 162.446 39.1331 162.446 39.5996V73.2002L162.458 73.3877C162.508 73.7376 162.709 73.9373 163.059 73.9873L163.246 74H173.134C173.6 74 173.864 73.7959 173.922 73.3877L173.934 73.2002V50.0322H175.694V45.0322H168.934V69H167.446V43.7998H179.03L183.558 48.3262V69H182.07V51.376C182.07 50.127 181.743 48.2787 180.22 46.791C178.719 45.3247 176.895 45.0323 175.694 45.0322V50.0322L175.86 50.0371C176.667 50.0895 177.07 50.5359 177.07 51.376V73.2002L177.082 73.3877C177.14 73.7959 177.403 74 177.87 74H187.758C188.224 74 188.488 73.7959 188.546 73.3877L188.558 73.2002V47.0244C188.558 46.5124 188.387 46.0855 188.046 45.7441L181.646 39.3438C181.328 39.0266 180.962 38.8482 180.547 38.8086L180.366 38.7998H163.246ZM200.106 38.7998L199.925 38.8086C199.51 38.8483 199.143 39.0266 198.826 39.3438L192.426 45.7441C192.085 46.0854 191.914 46.5125 191.914 47.0244V65.7764C191.914 66.2881 192.085 66.7145 192.426 67.0557L198.826 73.4561L198.965 73.584C199.249 73.8219 199.569 73.9572 199.925 73.9912L200.106 74H203.658L203.839 73.9912C204.195 73.9572 204.515 73.8218 204.799 73.584L204.938 73.4561L206.538 71.8564L208.138 73.4561C208.308 73.6481 208.48 73.7867 208.65 73.8721L208.804 73.9277C208.968 73.9758 209.162 74 209.386 74V73C209.241 73 209.149 72.9836 209.097 72.9697L209.073 72.9609C209.037 72.9372 208.971 72.8895 208.885 72.792L208.865 72.7695L206.538 70.4424L204.251 72.7285L204.149 72.8213C204.022 72.9267 203.897 72.9775 203.757 72.9932L203.63 73H200.134L200.006 72.9932C199.865 72.9773 199.741 72.9266 199.613 72.8213L199.516 72.7314L193.133 66.3486C192.992 66.2072 192.914 66.0406 192.914 65.7764V47.0244C192.914 46.7594 192.992 46.5924 193.133 46.4512L199.533 40.0508L199.656 39.9443C199.773 39.8585 199.887 39.819 200.007 39.8057L200.134 39.7998H217.026V73H209.386V74H217.226C217.692 74 217.955 73.7959 218.014 73.3877L218.026 73.2002V39.5996C218.026 39.0665 217.759 38.7998 217.226 38.7998H200.106ZM228.871 42.7998H225.384V64.8877L230.496 70H243.495V42.7998H240.008V66.7676H234.247V67.7676H241.008V43.7998H242.495V69H230.91L226.384 64.4736V43.7998H227.871V61.4238C227.871 62.6727 228.199 64.5211 229.722 66.0088C231.223 67.4751 233.047 67.7675 234.247 67.7676V66.7676C233.191 66.7675 231.666 66.5088 230.421 65.293C229.159 64.06 228.871 62.5166 228.871 61.4238V42.7998ZM278.935 31.3438C278.487 31.3439 278.146 31.5043 277.911 31.8242L270.359 42.5762C270.146 42.8748 270.039 43.1948 270.039 43.5361V73.2002L270.052 73.3877C270.11 73.7958 270.372 74 270.839 74H282.167C282.634 74 282.896 73.7959 282.954 73.3877L282.967 73.2002V60.9756H286.295V73.2002L286.308 73.3877C286.366 73.7958 286.628 73.9999 287.095 74H298.423C298.889 74 299.153 73.7959 299.211 73.3877L299.223 73.2002V43.5361C299.223 43.1949 299.117 42.8748 298.903 42.5762L291.287 31.8242C291.074 31.5042 290.732 31.3438 290.263 31.3438H278.935ZM310.763 31.3438C310.272 31.3438 309.846 31.5152 309.483 31.8564L303.083 38.2559C302.742 38.6185 302.571 39.0455 302.571 39.5361V65.7764C302.571 66.2881 302.742 66.7144 303.083 67.0557L309.483 73.4561L309.622 73.583C309.953 73.8607 310.333 73.9999 310.763 74V73C310.619 73 310.497 72.9691 310.38 72.8994L310.265 72.8164L310.181 72.7393L303.79 66.3486C303.649 66.2072 303.571 66.0408 303.571 65.7764V39.5361C303.571 39.3619 303.611 39.2153 303.702 39.0771L303.812 38.9414L310.169 32.585C310.35 32.4145 310.532 32.3438 310.763 32.3438H329.859V42.5684H316.587V43.5684H330.059C330.592 43.5684 330.859 43.3009 330.859 42.7676V32.1436C330.859 31.6105 330.592 31.3438 330.059 31.3438H310.763ZM310.763 73V74H324.683V73H310.763ZM311.652 35.3438L306.571 40.4248V64.8877L311.684 70H323.763L328.907 64.8545V51.0244H325.451V65.7764H316.587V66.7764H325.572L323.349 69H312.098L307.571 64.4736V40.8389L312.066 36.3438H325.859V38.5684H316.587C315.05 38.5684 313.615 39.1342 312.502 40.1445L312.283 40.3525C311.096 41.5169 310.499 43.0555 310.499 44.624V60.7197C310.499 62.4462 311.223 63.9311 312.283 64.9912C313.423 66.1315 314.947 66.7763 316.587 66.7764V65.7764C315.216 65.7763 313.945 65.2393 312.99 64.2842C312.099 63.3926 311.499 62.1552 311.499 60.7197V44.624C311.499 43.3164 311.993 42.0436 312.973 41.0771L313.191 40.8691C314.12 40.0342 315.309 39.5684 316.587 39.5684H326.859V35.3438H311.652ZM59.8877 32.3438C60.0103 32.3438 60.0617 32.3646 60.0713 32.3691L60.0732 32.3701C60.0732 32.3701 60.0765 32.3735 60.0801 32.3789L60.0957 32.4023L67.7119 43.1543L67.7148 43.1572C67.8159 43.2987 67.8477 43.4182 67.8477 43.5361V73H56.9199V59.9756H51.5918V73H40.6641V43.5361C40.6641 43.4198 40.6956 43.3003 40.7979 43.1572L40.8027 43.1514L48.3428 32.416C48.3664 32.3837 48.3816 32.3743 48.3926 32.3691C48.4077 32.3621 48.4556 32.3438 48.5596 32.3438H59.8877ZM102.839 45.0078H106.743V42.7998H102.839V38H99.3506V42.7998H97.207V45.0078H99.3506V65.9707L103.404 70H106.679V68.5527L104.341 66.2148L104.284 66.1533L104.283 66.1523C103.293 65.0791 102.839 63.7461 102.839 62.416V45.0078ZM121.8 39.7998L121.854 39.8027C121.886 39.8101 121.99 39.8466 122.162 40.0293L122.171 40.0381L124.659 42.6162L127.425 39.9336C127.537 39.8408 127.625 39.811 127.702 39.8027L127.775 39.7998H130.114V49.9355C130.114 50.033 130.11 50.1084 130.105 50.165L130.098 50.1699L123.746 54.5635V73H114.259V39.7998H121.8ZM180.338 39.7998L180.464 39.8057C180.625 39.8234 180.776 39.8886 180.938 40.0508L187.339 46.4512C187.48 46.5923 187.558 46.7592 187.558 47.0244V73H178.07V51.376L178.063 51.1611C178.031 50.659 177.88 50.1503 177.51 49.7402C177.148 49.3399 176.676 49.1437 176.194 49.0693V46.0527C177.198 46.1314 178.461 46.4719 179.521 47.5068C180.783 48.7398 181.07 50.2831 181.07 51.376V70H184.558V47.9121L179.444 42.7998H166.446V70H169.934V46.0322H175.194V49.0322H172.934V73H163.446V39.7998H180.338ZM259.651 45.0078H263.556V42.7998H259.651V38H256.163V42.7998H254.02V45.0078H256.163V65.9707L260.217 70H263.491V68.5527L261.153 66.2148L261.097 66.1533L261.096 66.1523C260.106 65.0793 259.651 63.7464 259.651 62.416V45.0078ZM290.263 32.3438C290.385 32.3438 290.437 32.3646 290.446 32.3691L290.448 32.3701C290.448 32.3701 290.451 32.3735 290.455 32.3789L290.471 32.4023L298.087 43.1543L298.09 43.1572C298.191 43.2987 298.223 43.4182 298.223 43.5361V73H287.295V59.9756H281.967V73H271.039V43.5361C271.039 43.4198 271.071 43.3003 271.173 43.1572L271.178 43.1514L278.718 32.416C278.742 32.3834 278.758 32.3743 278.769 32.3691C278.784 32.3619 278.832 32.3438 278.935 32.3438H290.263ZM29.75 59.8457C26.3212 59.8457 23.3545 62.3655 23.3545 65.6924C23.3545 69.0195 26.3215 71.5381 29.75 71.5381C33.0749 71.5381 35.9574 69.1757 36.1367 65.998L36.1387 65.9688L36.1455 65.7197V65.6924C36.1455 62.3655 33.1788 59.8457 29.75 59.8457ZM29.75 60.8457C32.73 60.8457 35.1455 63.0159 35.1455 65.6924L35.1387 65.9414C34.9943 68.5021 32.637 70.5381 29.75 70.5381C26.77 70.5381 24.3545 68.3688 24.3545 65.6924C24.3545 63.0159 26.77 60.8457 29.75 60.8457ZM49.9521 35.3438L43.6641 44.2949V70H48.5918V56.9756H59.9199V70H64.8477V44.2988L64.6641 44.0391L58.8027 35.7656L58.5029 35.3438H49.9521ZM83.0439 64.1416L76.0361 67.8857V70H81.9189L86.8203 65.6396V58.0908L83.0439 56.0625V64.1416ZM117.259 42.7998V70H120.746V52.9912L127.114 48.585V44.4131L124.588 46.8613L120.668 42.7998H117.259ZM142.09 42.7998L136.977 47.9131V64.8867L142.089 70H149.976L155.089 64.8867V47.9131L149.975 42.7998H142.09ZM201.027 42.7998L195.914 47.9131V64.8867L201.026 70H202.738L204.703 68.0312L203.084 67.5586C202.342 67.3419 201.575 66.9495 200.894 66.2686L200.764 66.1387L200.649 66L200.468 65.7705C199.606 64.6093 199.402 63.3176 199.402 62.3516V50.4482C199.402 49.3971 199.661 47.9187 200.801 46.6963L200.827 46.667C200.831 46.6631 200.836 46.6592 200.84 46.6553C200.849 46.6458 200.86 46.6328 200.873 46.6191C200.884 46.6076 200.895 46.5981 200.902 46.5898C200.908 46.5841 200.914 46.578 200.918 46.5732L200.933 46.5586C201.973 45.5002 203.246 45.1163 204.31 45.0293V48.0469C203.873 48.1177 203.453 48.2914 203.109 48.6211L203.017 48.7158C202.552 49.2012 202.402 49.8393 202.402 50.4482V62.3799L202.407 62.5518L202.408 62.5674L202.409 62.584C202.441 63.1126 202.59 63.6459 202.953 64.0811L202.982 64.1152L203.015 64.1475C203.434 64.5669 203.974 64.7466 204.514 64.7842L204.53 64.7852H204.547L204.71 64.791L204.729 64.792H205.162C205.776 64.792 206.444 64.6387 206.922 64.1152L206.923 64.1162C207.32 63.683 207.494 63.14 207.53 62.5898L207.531 62.5732V62.5576L207.537 62.3857L207.538 62.3682V48.0078H205.31V45.0078H210.538V62.3516C210.538 63.4604 210.255 64.9058 209.154 66.1201L209.145 66.1299C209.141 66.1341 209.137 66.1386 209.134 66.1426C208.956 66.3371 208.768 66.5093 208.573 66.665L207.701 67.3633L210.339 70H214.026V42.7998H201.027ZM280.327 35.3438L274.039 44.2949V70H278.967V56.9756H290.295V70H295.223V45.2432L295.682 44.9521L295.677 44.9443L295.663 44.9229L295.655 44.9111L295.223 45.1943V44.2988L295.039 44.0391L289.178 35.7656L288.878 35.3438H280.327ZM57.9863 36.3438L63.8477 44.6172V69H60.9199V55.9756H47.5918V69H44.6641V44.6113L50.4717 36.3438H57.9863ZM85.8203 58.6885V65.1904L81.5381 69H77.0361V68.4854L84.0439 64.7412V57.7344L85.8203 58.6885ZM101.839 39V43.7998H105.743V44.0078H101.839V62.416C101.839 63.9766 102.374 65.5581 103.549 66.8311L103.617 66.9053L105.679 68.9668V69H103.816L100.351 65.5547V44.0078H98.207V43.7998H100.351V39H101.839ZM120.243 43.7998L124.565 48.2773L126.114 46.7754V48.0605L119.746 52.4678V69H118.259V43.7998H120.243ZM149.561 43.7998L154.089 48.3271V64.4727L149.562 69H142.503L137.977 64.4727V48.3271L142.504 43.7998H149.561ZM213.026 43.7998V69H210.753L209.198 67.4453C209.429 67.2608 209.655 67.0537 209.871 66.8174L209.872 66.8184C209.874 66.8165 209.875 66.8144 209.877 66.8125C209.88 66.8094 209.882 66.8058 209.885 66.8027C211.213 65.3445 211.538 63.6212 211.538 62.3516V44.0078H204.81V49.0078H206.538V62.3516L206.532 62.5234C206.507 62.9106 206.391 63.2165 206.186 63.4404C205.972 63.6748 205.631 63.792 205.162 63.792H204.746L204.583 63.7861C204.214 63.7605 203.927 63.6457 203.722 63.4404C203.535 63.2165 203.431 62.9106 203.407 62.5234L203.402 62.3516V50.4482C203.402 49.9789 203.519 49.6263 203.754 49.3916C203.989 49.1358 204.341 49.0079 204.81 49.0078V44.0078C203.498 44.0079 201.677 44.3746 200.22 45.8574L200.219 45.8564C200.195 45.8804 200.173 45.9065 200.149 45.9307C200.123 45.9585 200.095 45.9851 200.068 46.0137L200.069 46.0146C198.696 47.4879 198.402 49.251 198.402 50.4482V62.3516C198.402 63.5192 198.664 65.1806 199.881 66.6406L200.026 66.8154L200.187 66.9756C201.003 67.7917 201.924 68.2617 202.804 68.5186L202.323 69H201.44L196.914 64.4727V48.3271L201.441 43.7998H213.026ZM258.651 39V43.7998H262.556V44.0078H258.651V62.416C258.651 63.9769 259.187 65.5584 260.361 66.8311L260.43 66.9053L262.491 68.9668V69H260.629L257.163 65.5547V44.0078H255.02V43.7998H257.163V39H258.651ZM288.361 36.3438L294.223 44.6172V69H291.295V55.9756H277.967V69H275.039V44.6113L280.847 36.3438H288.361ZM140.465 50.4482C140.465 49.4856 140.67 48.0635 141.707 46.8389L141.74 46.7998C142.811 45.5361 144.208 45.1197 145.309 45.0293V48.0469C144.831 48.1254 144.365 48.3312 144.016 48.751C143.592 49.2375 143.465 49.862 143.465 50.4482V62.3799L143.47 62.5518L143.471 62.5674L143.472 62.584C143.504 63.1126 143.653 63.6459 144.016 64.0811L144.045 64.1152L144.077 64.1475C144.497 64.5669 145.037 64.7466 145.576 64.7842L145.593 64.7852H145.609L145.772 64.791L145.791 64.792H146.192C146.731 64.792 147.283 64.6674 147.74 64.3086L147.762 64.293L147.781 64.2754L147.875 64.1934L147.9 64.1709L147.924 64.1475C148.354 63.7174 148.55 63.1657 148.592 62.5957L148.594 62.5762V62.5576L148.6 62.3857L148.601 62.3682V50.4482C148.601 49.8855 148.466 49.3052 148.069 48.8379L148.05 48.8154L147.938 48.6992C147.589 48.3269 147.152 48.1287 146.692 48.0498V45.0293C147.776 45.1205 149.021 45.5249 150.036 46.5576L150.049 46.5703C151.28 47.7798 151.601 49.3043 151.601 50.4482V62.3516C151.601 63.5572 151.253 65.0604 150.045 66.2686C148.83 67.4839 147.323 67.792 146.192 67.792H145.809C144.678 67.792 143.171 67.4839 141.956 66.2686L141.826 66.1387L141.712 66L141.53 65.7705C140.668 64.6093 140.465 63.3176 140.465 62.3516V50.4482ZM209.085 66.2021L209.082 66.2061L209.08 66.208C209.08 66.208 209.081 66.2064 209.083 66.2041L209.092 66.1934L209.095 66.1904C209.091 66.1955 209.087 66.1993 209.085 66.2021ZM209.104 66.1787C209.1 66.1832 209.097 66.1881 209.095 66.1904C209.096 66.1881 209.099 66.1842 209.102 66.1807L209.104 66.1787ZM327.907 52.0244V64.4404L326.451 65.8965V52.0244H327.907ZM208.309 65.5713L208.311 65.5693L208.312 65.5654C208.311 65.5673 208.31 65.5695 208.309 65.5713ZM111.259 50.7188C110.796 50.9439 110.321 51.0077 109.943 51.0078H108.839V62.2275L111.259 64.6475V50.7188ZM268.039 50.7344C267.586 50.947 267.125 51.0077 266.756 51.0078H265.651V62.2275L268.039 64.6152V50.7344ZM70.8477 64.002C71.0436 63.7987 71.2831 63.618 71.5732 63.4697L76.126 61.0352L71.5664 58.5771C71.2784 58.4224 71.042 58.2346 70.8477 58.0283V64.002ZM317.499 59.7764H319.451V58.4834L318.526 58.4629C318.223 58.4589 317.864 58.4114 317.499 58.2764V59.7764ZM37.6641 53.6348C36.5051 54.6792 35.1064 55.4898 33.5674 56C35.1061 56.5101 36.5052 57.32 37.6641 58.3643V53.6348ZM81.1318 42.7998L76.0361 46.5322V54.1689L80.3242 56.4805V48.3818L86.7236 44.9258V42.7998H81.1318ZM54.2559 38.4082C52.1799 38.4082 49.9192 39.0445 48.1631 40.8633L48.1318 40.8955L48.1006 40.9287C46.4215 42.7322 45.8965 44.96 45.8965 46.9277C45.8965 48.887 46.4061 51.139 48.1006 52.959L48.1611 53.0244L48.2246 53.0879C49.9904 54.8535 52.23 55.4482 54.2559 55.4482C56.2715 55.4482 58.5485 54.8563 60.3164 53.0244L60.3174 53.0254C62.07 51.2102 62.6162 48.933 62.6162 46.9277C62.6162 44.9376 62.0653 42.717 60.3779 40.9297L60.3799 40.9287C60.3683 40.9163 60.3554 40.9049 60.3438 40.8926C60.3347 40.8831 60.3265 40.8727 60.3174 40.8633L60.3154 40.8643C58.6775 39.1449 56.5844 38.4917 54.6465 38.416L54.2559 38.4082ZM284.631 38.4082C282.555 38.4082 280.294 39.0445 278.538 40.8633L278.507 40.8955L278.476 40.9287C276.797 42.7321 276.272 44.96 276.271 46.9277C276.271 48.887 276.781 51.139 278.476 52.959L278.536 53.0244L278.6 53.0879C280.365 54.8535 282.605 55.4482 284.631 55.4482C286.646 55.4482 288.924 54.8563 290.691 53.0244L290.692 53.0254C292.445 51.2101 292.991 48.9329 292.991 46.9277C292.991 44.9376 292.44 42.717 290.753 40.9297L290.755 40.9287C290.743 40.9163 290.73 40.9049 290.719 40.8926C290.71 40.8831 290.702 40.8727 290.692 40.8633L290.69 40.8643C289.052 39.1449 286.959 38.4917 285.021 38.416L284.631 38.4082ZM85.7236 43.7998V44.3291L79.3242 47.7861V54.8057L77.0361 53.5723V47.0391L81.459 43.7998H85.7236ZM11.25 53.6152V54.6152H29.75V53.6152H11.25ZM11.25 38V40.7695H29.75V39.7695H11.75V39H29.75C34.4101 39 38 42.3701 38 46.3076C38 50.2452 34.4101 53.6152 29.75 53.6152V54.6152C34.8586 54.6152 39 50.8958 39 46.3076C39 41.7194 34.8586 38 29.75 38H11.25ZM58.6162 46.9277C58.6162 45.6373 58.2631 44.4959 57.4385 43.6416C56.6273 42.7789 55.516 42.4082 54.2559 42.4082C52.9877 42.4082 51.8693 42.7828 51.04 43.6416L51.0342 43.6475L51.0283 43.6543C50.2315 44.5102 49.8965 45.6475 49.8965 46.9277V46.959L49.9092 47.3711L49.9102 47.3887L49.9111 47.4072C49.9854 48.5079 50.3296 49.4837 51.0273 50.2334L51.0527 50.2588C51.7769 50.983 52.7215 51.3513 53.793 51.4307L53.8115 51.4326H53.8291L54.2178 51.4473L54.2373 51.4482H54.2559C55.5129 51.4482 56.6253 51.0903 57.4395 50.2461L57.5703 50.1035C58.2057 49.375 58.5269 48.4489 58.5996 47.4092L58.6006 47.3926V47.375L58.6152 46.9629L58.6162 46.9453V46.9277ZM288.991 46.9277C288.991 45.6373 288.638 44.4959 287.813 43.6416C287.002 42.7789 285.891 42.4082 284.631 42.4082C283.363 42.4082 282.244 42.7828 281.415 43.6416L281.409 43.6475L281.403 43.6543C280.607 44.5102 280.272 45.6475 280.271 46.9277V46.9434L280.272 46.959L280.285 47.3711V47.3887L280.286 47.4072C280.36 48.5079 280.705 49.4837 281.402 50.2334L281.428 50.2588C282.152 50.983 283.097 51.3513 284.168 51.4307L284.187 51.4326H284.204L284.593 51.4473L284.612 51.4482H284.631C285.888 51.4482 287 51.0903 287.814 50.2461L287.945 50.1035C288.581 49.375 288.902 48.4489 288.975 47.4092L288.976 47.3926V47.375L288.99 46.9629L288.991 46.9453V46.9277ZM320.771 53.5127L322.496 53.5518L323.451 53.5723V50.0244H320.771V53.5127ZM147.601 62.3516L147.595 62.5234C147.567 62.9106 147.441 63.2165 147.217 63.4404L147.123 63.5225C146.894 63.702 146.584 63.792 146.192 63.792H145.809L145.646 63.7861C145.277 63.7605 144.99 63.6457 144.784 63.4404C144.598 63.2165 144.493 62.9106 144.47 62.5234L144.465 62.3516V50.4482C144.465 49.9789 144.571 49.6263 144.784 49.3916C144.998 49.1357 145.339 49.0078 145.809 49.0078V44.0078C144.488 44.0078 142.448 44.3856 140.943 46.1914L140.944 46.1924C139.695 47.6674 139.465 49.36 139.465 50.4482V62.3516C139.465 63.5192 139.727 65.1806 140.943 66.6406L141.089 66.8154L141.249 66.9756C142.712 68.4386 144.512 68.792 145.809 68.792H146.192C147.489 68.792 149.289 68.4386 150.752 66.9756C152.2 65.5271 152.601 63.737 152.601 62.3516V50.4482C152.601 49.1357 152.233 47.314 150.749 45.8564C149.334 44.417 147.562 44.0078 146.192 44.0078V49.0078C146.64 49.0078 146.982 49.1356 147.217 49.3916L147.307 49.4854C147.503 49.7164 147.601 50.0376 147.601 50.4482V62.3516ZM54.2559 43.4082C55.3224 43.4082 56.1437 43.7174 56.7197 44.3359C57.317 44.9546 57.6162 45.8185 57.6162 46.9277L57.6016 47.3398C57.5362 48.2732 57.2424 49.0104 56.7197 49.5518C56.1437 50.1491 55.3225 50.4482 54.2559 50.4482L53.8672 50.4336C52.9851 50.3683 52.2825 50.0745 51.7598 49.5518C51.2559 49.0104 50.9721 48.2731 50.9092 47.3398L50.8965 46.9277C50.8965 45.8186 51.1839 44.9545 51.7598 44.3359C52.3571 43.7173 53.1893 43.4082 54.2559 43.4082ZM284.631 43.4082C285.697 43.4082 286.519 43.7174 287.095 44.3359C287.692 44.9546 287.991 45.8185 287.991 46.9277L287.977 47.3398C287.911 48.2732 287.617 49.0104 287.095 49.5518C286.519 50.1491 285.698 50.4482 284.631 50.4482L284.242 50.4336C283.36 50.3683 282.657 50.0745 282.135 49.5518C281.631 49.0104 281.347 48.2731 281.284 47.3398L281.271 46.9277C281.272 45.8186 281.559 44.9545 282.135 44.3359C282.732 43.7173 283.564 43.4082 284.631 43.4082ZM120.259 49.6807L121.986 48.4844L120.259 46.6943V49.6807ZM11.4512 43.1582C13.4557 43.2535 14.875 44.7164 14.875 46.3076C14.875 47.9479 13.3618 49.4549 11.2627 49.4609L11.0469 49.4561C9.0433 49.3599 7.625 47.8983 7.625 46.3076C7.62504 44.6671 9.13893 43.1594 11.2393 43.1543L11.4512 43.1582ZM145.809 44.0078V49.0078H146.192V44.0078H145.809ZM54.2559 45.4082C53.6113 45.4082 53.3469 45.5765 53.21 45.7129C53.0776 45.8625 52.8989 46.1814 52.8965 46.9131L52.9062 47.2217C52.9455 47.7666 53.0882 48.0259 53.2002 48.1592C53.322 48.271 53.5349 48.3975 53.9844 48.4355L54.2812 48.4473C54.9476 48.4428 55.1819 48.2651 55.2803 48.1631L55.2812 48.1621C55.4023 48.0365 55.5616 47.7876 55.6045 47.2197L55.6152 46.8984C55.6102 46.174 55.4215 45.871 55.2812 45.7256L55.2686 45.7119L55.2109 45.6543C55.0884 45.5454 54.8391 45.4082 54.2559 45.4082ZM284.631 45.4082C283.986 45.4082 283.722 45.5765 283.585 45.7129C283.453 45.8625 283.274 46.1814 283.271 46.9131L283.281 47.2217C283.32 47.7666 283.463 48.0259 283.575 48.1592C283.697 48.271 283.91 48.3975 284.359 48.4355L284.656 48.4473C285.323 48.4428 285.557 48.2651 285.655 48.1631L285.656 48.1621C285.777 48.0365 285.937 47.7876 285.979 47.2197L285.99 46.8984C285.985 46.174 285.796 45.871 285.656 45.7256L285.644 45.7119L285.586 45.6543C285.463 45.5454 285.214 45.4082 284.631 45.4082ZM11.25 44.7695V45.7695H11.499C11.5678 45.904 11.625 46.0845 11.625 46.3076C11.625 46.5307 11.5678 46.7113 11.499 46.8457H11.25V44.7695C11.1047 44.7695 10.9721 44.7817 10.8545 44.7979L10.3252 44.8701L10.0908 45.3506C9.98098 45.5763 9.89797 45.8521 9.87891 46.1689L9.875 46.3076C9.875 46.684 9.96646 47.0065 10.0908 47.2627L10.3242 47.7441L10.8545 47.8164C10.9639 47.8314 11.0982 47.8457 11.25 47.8457H12.1113L12.3896 47.3008C12.5218 47.0422 12.625 46.7066 12.625 46.3076C12.625 45.9088 12.5219 45.5732 12.3896 45.3145L12.1104 44.7695H11.25ZM11.25 46.8457C11.1582 46.8457 11.0718 46.8374 10.9902 46.8262C10.9261 46.694 10.875 46.5199 10.875 46.3076C10.875 46.0949 10.9259 45.9204 10.9902 45.7881C11.0718 45.7769 11.1583 45.7695 11.25 45.7695V46.8457ZM319.433 14.6855C319.504 13.2846 319.973 12.0605 320.712 11.0361C320.56 10.1332 320.561 8.88909 321.136 7.4541C320.771 7.61799 320.529 7.78122 320.358 7.93066L320.357 7.93164C320.009 8.2376 319.597 8.79851 319.276 10.1191C318.947 11.4731 318.75 13.4767 318.75 16.5C318.75 17.6128 318.777 18.5874 318.827 19.4424C318.958 19.3392 319.081 19.2677 319.171 19.2197C319.557 19.0135 319.952 18.9463 320.153 18.9209C319.678 17.8333 319.423 16.5494 319.423 15.0605L319.433 14.6855ZM330.099 23.7881L330.096 23.8037L330.075 23.9307L330.077 24.1621L330.084 25.3711L330.094 27.9971C330.228 27.9976 330.363 28 330.5 28C330.782 28 331.057 27.9973 331.327 27.9951L331.34 24.0137C331.34 23.9135 331.331 23.8411 331.322 23.792L330.703 23.3096L330.099 23.7881ZM319.392 23.3105C319.692 24.3285 320.05 24.7991 320.358 25.0703L320.492 25.1787C320.617 25.2732 320.77 25.3678 320.958 25.4629C320.852 25.3262 320.761 25.1948 320.684 25.0723C320.559 24.8746 320.468 24.6978 320.404 24.5576C320.375 24.4939 320.352 24.437 320.333 24.3887C320.066 23.7894 319.764 23.5457 319.683 23.4883L319.637 23.4688L319.51 23.3896C319.47 23.3649 319.432 23.3365 319.392 23.3105ZM330.5 6.41699C328.681 6.41699 327.171 6.46608 325.911 6.55566C326.363 6.73446 326.857 6.96598 327.395 7.26172C328.48 7.04886 329.6 6.94295 330.705 6.93848H330.721C331.825 6.94293 332.944 7.04891 334.03 7.26172C334.541 6.98128 335.01 6.75738 335.441 6.58301C334.114 6.47628 332.492 6.41699 330.5 6.41699ZM322.083 90C322.083 93.384 321.986 95.7543 321.514 97.5723C321.091 99.2371 320.469 99.9376 319.821 100.352C319.069 100.832 317.679 101.313 314.735 101.616C311.737 101.931 307.836 102 302.5 102C297.162 102 293.263 101.931 290.265 101.616C287.321 101.313 285.931 100.832 285.179 100.352C284.531 99.9376 283.909 99.2371 283.486 97.5723C283.073 95.9816 282.947 93.968 282.922 91.2227L282.917 90C282.917 86.616 283.014 84.2457 283.486 82.4277C283.909 80.7629 284.531 80.0624 285.179 79.6484C285.931 79.1685 287.321 78.6873 290.265 78.3828C293.263 78.0693 297.162 78 302.5 78C307.836 78 311.737 78.0693 314.735 78.3828C317.679 78.6873 319.069 79.1685 319.821 79.6484C320.469 80.0624 321.091 80.7629 321.514 82.4277C321.986 84.2457 322.083 86.616 322.083 90ZM95.3506 66.8643C95.3506 67.3548 95.5221 67.781 95.8633 68.1436L101.207 73.4561C101.524 73.7733 101.89 73.9515 102.306 73.9912L102.487 74H109.879C110.345 74 110.608 73.7959 110.666 73.3877L110.679 73.2002V67.5361C110.679 67.1096 110.573 66.7895 110.359 66.5762L107.223 63.4404C106.967 63.1631 106.839 62.8213 106.839 62.416V49.0078H109.943C110.476 49.0077 110.743 48.7412 110.743 48.208V39.5996C110.743 39.0667 110.476 38.7999 109.943 38.7998H106.839V34.7998C106.839 34.3333 106.635 34.071 106.227 34.0127L106.039 34H96.1514L95.9639 34.0127C95.5554 34.0709 95.3506 34.3331 95.3506 34.7998V38.7998H94.0068C93.4737 38.7999 93.2072 39.0666 93.207 39.5996V48.208C93.207 48.7413 93.4736 49.0078 94.0068 49.0078H95.3506V66.8643ZM252.163 66.8643C252.163 67.3548 252.335 67.781 252.676 68.1436L258.02 73.4561C258.337 73.7733 258.703 73.9515 259.118 73.9912L259.3 74H266.691C267.158 74 267.421 73.7959 267.479 73.3877L267.491 73.2002V67.5361C267.491 67.1096 267.385 66.7895 267.172 66.5762L264.035 63.4404C263.779 63.1631 263.651 62.8213 263.651 62.416V49.0078H266.756C267.289 49.0077 267.556 48.7412 267.556 48.208V39.5996C267.556 39.0667 267.289 38.7999 266.756 38.7998H263.651V34.7998C263.651 34.3333 263.447 34.071 263.039 34.0127L262.852 34H252.964L252.776 34.0127C252.368 34.0709 252.163 34.3331 252.163 34.7998V38.7998H250.819C250.286 38.7999 250.02 39.0666 250.02 39.5996V48.208C250.02 48.7413 250.286 49.0078 250.819 49.0078H252.163V66.8643ZM9.01074 65.7529C9.02019 65.7925 9.03794 65.8505 9.07227 65.9238C9.13804 66.0643 9.24933 66.2296 9.41797 66.3877C9.73521 66.685 10.3023 67 11.25 67H17.4268C17.391 66.6797 17.3684 66.354 17.3594 66.0234L17.3584 66.0098V65.9971L17.3545 65.7207V65.6641L17.3584 65.3877V65.375L17.3594 65.3613C17.3684 65.0307 17.391 64.7051 17.4268 64.3848H11.25C10.3022 64.3848 9.73521 64.6998 9.41797 64.9971C9.24934 65.1551 9.13803 65.3205 9.07227 65.4609C9.00341 65.6081 9 65.6924 9 65.6924L9.01074 65.7529ZM26.3584 65.8213C26.4373 67.1578 27.732 68.5381 29.75 68.5381C31.7609 68.5381 33.0667 67.1554 33.1416 65.8291L33.1455 65.6768C33.1356 64.3056 31.8247 62.8457 29.75 62.8457C27.6675 62.8457 26.3545 64.3168 26.3545 65.6924L26.3584 65.8213ZM105.839 62.416C105.839 63.0517 106.048 63.6422 106.488 64.1191L106.502 64.1338L109.643 67.2734C109.644 67.2767 109.647 67.2828 109.65 67.292C109.662 67.3275 109.679 67.4034 109.679 67.5361V73H102.515L102.389 72.9932C102.227 72.9752 102.076 72.9109 101.914 72.749L101.912 72.7471L96.5908 67.457C96.421 67.2762 96.3506 67.0941 96.3506 66.8643V48.0078H94.207V39.7998H96.3506V35H105.839V39.7998H109.743V48.0078H105.839V62.416ZM262.651 62.416C262.651 63.0517 262.861 63.6422 263.301 64.1191L263.314 64.1338L266.455 67.2734C266.457 67.2767 266.46 67.2828 266.463 67.292C266.475 67.3275 266.491 67.4034 266.491 67.5361V73H259.328L259.201 72.9932C259.04 72.9752 258.888 72.9109 258.727 72.749L258.725 72.7471L253.403 67.457C253.233 67.2762 253.163 67.0941 253.163 66.8643V48.0078H251.02V39.7998H253.163V35H262.651V39.7998H266.556V48.0078H262.651V62.416ZM231.871 61.4238C231.871 62.0321 232.028 62.6708 232.517 63.1475C233 63.6196 233.64 63.7675 234.247 63.7676H237.008V39.7998H246.495V73H229.575V74H246.695C247.162 74 247.425 73.7959 247.483 73.3877L247.495 73.2002V39.5996C247.495 39.0665 247.229 38.7998 246.695 38.7998H236.808C236.274 38.7998 236.008 39.0665 236.008 39.5996V62.7676H234.247C233.33 62.7674 232.871 62.3197 232.871 61.4238V39.5996C232.871 39.0665 232.604 38.7998 232.071 38.7998H222.184C221.65 38.7998 221.384 39.0665 221.384 39.5996V65.7764C221.384 66.2881 221.554 66.7144 221.896 67.0557L228.296 73.4561L228.435 73.584C228.766 73.8614 229.146 73.9999 229.575 74V73C229.384 72.9999 229.233 72.9458 229.082 72.8213L228.985 72.7314L222.603 66.3486C222.461 66.2072 222.384 66.0408 222.384 65.7764V39.7998H231.871V61.4238ZM314.499 60.7197C314.499 61.2873 314.73 61.7807 315.112 62.1631L315.267 62.3037C315.638 62.6113 316.09 62.7763 316.587 62.7764H322.451V55.5508L318.771 55.4678V48.0244H331.907V65.75L331.901 65.876C331.884 66.0575 331.818 66.1948 331.678 66.3271L325.234 72.7705C325.088 72.9259 324.928 73 324.683 73V74C325.195 74 325.622 73.8187 325.963 73.4561L332.363 67.0557C332.68 66.757 332.859 66.3931 332.898 65.9639L332.907 65.7764V47.8242C332.907 47.291 332.64 47.0246 332.107 47.0244H318.571C318.038 47.0244 317.771 47.2909 317.771 47.8242V55.6641C317.772 56.1974 318.038 56.4639 318.571 56.4639L321.451 56.5283V61.7764H316.587C316.288 61.7763 316.033 61.6692 315.819 61.4561C315.606 61.2427 315.499 60.9971 315.499 60.7197V44.624C315.499 44.3254 315.606 44.0797 315.819 43.8877C316.033 43.6746 316.288 43.5684 316.587 43.5684V42.5684C316.021 42.5684 315.512 42.7817 315.112 43.1807L315.113 43.1816C314.706 43.5674 314.499 44.0717 314.499 44.624V60.7197ZM337 15.0605C337 14.4917 336.808 14.0644 336.395 13.6553L335.143 12.4189L334.85 12.5986L333.627 12.291C332.723 12.0634 331.723 11.9433 330.711 11.9385C329.697 11.9436 328.7 12.0642 327.801 12.291H327.799L326.576 12.5986L326.279 12.417L325.032 13.6523C324.615 14.0665 324.423 14.4965 324.423 15.0605C324.423 15.9806 324.574 16.5645 324.741 16.9355C324.901 17.2919 325.108 17.5255 325.346 17.707C325.92 18.1449 326.886 18.4447 328.362 18.5967L330.619 18.8281L333.053 18.585C334.538 18.4359 335.505 18.1384 336.079 17.7031C336.316 17.5235 336.522 17.2929 336.682 16.9385C336.848 16.5686 337 15.9841 337 15.0605ZM61.6162 46.9277C61.6162 48.7472 61.1242 50.7258 59.6299 52.2949L59.5967 52.3301C58.0686 53.9134 56.0841 54.4482 54.2559 54.4482C52.4194 54.4482 50.4624 53.9115 48.9316 52.3809L48.8809 52.3301L48.835 52.2803L48.832 52.2773C47.3627 50.699 46.8965 48.7236 46.8965 46.9277C46.8965 45.1308 47.3737 43.1778 48.8281 41.6133L48.8291 41.6143L48.8594 41.5801L48.8809 41.5596L48.8828 41.5576C50.4028 39.9835 52.3719 39.4104 54.2451 39.4082L54.6221 39.415C56.2535 39.4814 57.9512 39.9991 59.3213 41.2852L59.5918 41.5537L59.6504 41.6162C61.1154 43.1679 61.6162 45.1148 61.6162 46.9277ZM291.991 46.9277C291.991 48.7472 291.499 50.7258 290.005 52.2949L289.972 52.3301C288.444 53.9134 286.459 54.4482 284.631 54.4482C282.794 54.4482 280.837 53.9115 279.307 52.3809L279.256 52.3301L279.21 52.2803L279.207 52.2773C277.738 50.699 277.271 48.7236 277.271 46.9277C277.272 45.1308 277.749 43.1778 279.203 41.6133L279.204 41.6143L279.234 41.5801L279.256 41.5596L279.258 41.5576C280.778 39.9835 282.747 39.4104 284.62 39.4082L284.997 39.415C286.628 39.4814 288.326 39.999 289.696 41.2852L289.967 41.5537L290.025 41.6162C291.49 43.1679 291.991 45.1148 291.991 46.9277ZM2 46.3076C2 50.8958 6.14136 54.6152 11.25 54.6152V53.6152C6.58987 53.6152 3 50.2452 3 46.3076C3.00004 42.5121 6.33562 39.2445 10.75 39.0137V39.7861C7.11378 40.0182 4.08306 42.7596 4.08301 46.3076C4.08301 50.0171 7.39588 52.8457 11.25 52.8457H29.75C33.4872 52.8457 36.706 50.1926 36.9062 46.6494L36.9082 46.624L36.917 46.3389V46.3076C36.9169 42.5981 33.604 39.7695 29.75 39.7695V40.7695C33.1557 40.7695 35.9169 43.2488 35.917 46.3076L35.9082 46.5928C35.743 49.519 33.0492 51.8457 29.75 51.8457H11.25C7.84424 51.8457 5.08301 49.3664 5.08301 46.3076C5.08305 43.2488 7.84427 40.7695 11.25 40.7695V38C6.14139 38 2.00005 41.7194 2 46.3076ZM6.625 46.3076C6.625 48.5299 8.56814 50.3447 11.0117 50.4561L11.25 50.4619C13.8043 50.4619 15.875 48.6017 15.875 46.3076C15.875 44.0853 13.9318 42.2706 11.4883 42.1592L11.25 42.1543C8.69571 42.1543 6.62505 44.0135 6.625 46.3076ZM17.875 46.3076C17.875 47.661 17.4247 48.8672 16.6797 49.8457H29.75C32.1696 49.8457 33.8103 48.1769 33.9102 46.4873L33.916 46.292C33.9062 44.5398 32.2515 42.7695 29.75 42.7695H16.6777C17.4234 43.7485 17.875 44.9549 17.875 46.3076ZM321.423 15.0605C321.423 20.1159 324.821 21.2482 328.055 21.5811C327.639 21.9102 327.263 22.4924 327.131 23.3438C326.302 23.6816 324.192 24.2637 322.894 22.248C322.894 22.248 322.123 20.9812 320.662 20.8877C320.638 20.8875 319.252 20.8786 320.562 21.6895C320.571 21.693 321.52 22.1025 322.18 23.6191C322.18 23.6191 323.035 26.1853 327.084 25.3887C327.088 26.0403 327.092 27.4268 327.097 28.5146C322.473 28.3117 320.266 27.6516 319.038 26.5723C317.541 25.2563 316.75 22.6623 316.75 16.5C316.75 10.3375 317.541 7.74339 319.038 6.42871C320.535 5.11284 323.488 4.41699 330.5 4.41699C337.512 4.41699 340.465 5.11284 341.962 6.42871C343.459 7.74459 344.25 10.3375 344.25 16.5C344.25 22.6623 343.459 25.2563 341.962 26.5723C340.772 27.6181 338.663 28.27 334.326 28.4941C334.331 27.1153 334.34 25.1465 334.34 24.0137C334.34 22.7832 333.874 21.978 333.352 21.5703C336.596 21.2449 340 20.1284 340 15.0605C340 13.6208 339.436 12.444 338.503 11.5215C338.654 11.1872 339.153 9.84532 338.358 8.03027C338.335 8.02373 337.112 7.69151 334.358 9.38184C333.194 9.0889 331.949 8.94346 330.713 8.93848C329.474 8.94349 328.229 9.08889 327.067 9.38184C324.286 7.67543 323.063 8.03027 323.063 8.03027C322.272 9.84536 322.77 11.1873 322.921 11.5215C321.99 12.444 321.423 13.6208 321.423 15.0605ZM339 15.0605C339 17.3406 338.252 18.5657 337.288 19.2969C336.259 20.0776 334.828 20.4171 333.252 20.5752L330.77 20.8242L332.736 22.3584C332.978 22.5472 333.34 23.0401 333.34 24.0137L333.322 29.5479L334.378 29.4932C338.726 29.2684 341.152 28.6149 342.622 27.3232L342.797 27.1631C343.651 26.3398 344.248 25.197 344.639 23.5898C345.051 21.892 345.25 19.6101 345.25 16.5C345.25 13.3902 345.052 11.1087 344.64 9.41113C344.223 7.69686 343.57 6.51122 342.622 5.67773C341.686 4.85523 340.377 4.30204 338.483 3.94629C336.591 3.59089 334.028 3.41699 330.5 3.41699V3C333.92 3 336.595 3.15131 338.692 3.54883C340.785 3.94553 342.226 4.57359 343.246 5.46973C345.276 7.25361 346 10.4231 346 16.5C346 22.5769 345.276 25.7464 343.246 27.5303C342.226 28.4264 340.785 29.0545 338.692 29.4512C336.595 29.8487 333.92 30 330.5 30V31C344.25 31 347 28.5833 347 16.5C347 4.41667 344.25 2 330.5 2V0C333.972 0 336.872 0.150649 339.251 0.601562C341.639 1.05422 343.657 1.8373 345.227 3.2168C348.385 5.99281 349 10.5289 349 16.5C349 22.4711 348.385 27.0072 345.227 29.7832C343.657 31.1627 341.639 31.9458 339.251 32.3984C337.432 32.7431 335.309 32.9111 332.859 32.9717V42.7676C332.859 43.344 332.713 44.1421 332.073 44.7822C331.983 44.8727 331.889 44.9527 331.793 45.0244H332.108C332.683 45.0246 333.481 45.1697 334.121 45.8096C334.762 46.4501 334.907 47.249 334.907 47.8242V65.8232L334.905 65.8701L334.896 66.0576L334.895 66.1025L334.89 66.1475C334.807 67.0477 334.417 67.8446 333.775 68.4678L333.777 68.4697L327.377 74.8701L327.376 74.8691C326.65 75.6172 325.708 76 324.683 76H323.899C325.701 77.3253 326.731 79.1344 327.296 81.3633C327.885 83.6843 328 86.5711 328 90C328 93.4289 327.885 96.3157 327.296 98.6367C326.68 101.063 325.517 102.994 323.404 104.343C321.41 105.616 318.763 106.238 315.466 106.579C312.138 106.923 307.88 107 302.5 107C297.12 107 292.863 106.923 289.535 106.579C286.238 106.238 283.59 105.616 281.596 104.343C279.483 102.994 278.32 101.063 277.704 98.6367C277.115 96.3157 277 93.4289 277 90H279C279 103.751 280.958 105 302.5 105V104C297.112 104 292.998 103.921 289.843 103.595C286.672 103.267 284.599 102.7 283.21 101.813C281.88 100.964 281.085 99.7615 280.612 97.8984C280.126 95.9828 280 93.4418 280 90C280 86.5582 280.126 84.0172 280.612 82.1016C281.085 80.2385 281.88 79.0357 283.21 78.1865C284.599 77.2997 286.672 76.7329 289.843 76.4053C292.998 76.0792 297.112 76 302.5 76V77C297.167 77 293.219 77.0682 290.162 77.3877L289.618 77.4482C287.157 77.739 285.733 78.172 284.827 78.6924L284.641 78.8057C283.734 79.3845 282.99 80.3253 282.519 82.1768C282.01 84.1365 281.917 86.631 281.917 90V90.0039L281.922 91.2266V91.2314C281.946 93.8075 282.057 95.8348 282.438 97.4961L282.519 97.8232C282.99 99.6747 283.734 100.616 284.641 101.194L284.827 101.308C285.798 101.865 287.364 102.322 290.162 102.61C293.219 102.931 297.168 103 302.5 103C307.83 103 311.78 102.931 314.837 102.61L314.838 102.611C317.823 102.304 319.406 101.803 320.359 101.194L320.527 101.081C321.358 100.494 322.04 99.559 322.481 97.8232C322.99 95.8635 323.083 93.369 323.083 90C323.083 86.8412 323.002 84.4511 322.572 82.5498L322.481 82.1768C322.04 80.441 321.358 79.506 320.527 78.9189L320.359 78.8057C319.406 78.1969 317.822 77.6965 314.837 77.3877C311.78 77.0683 307.83 77 302.5 77V76C307.888 76 312.002 76.0792 315.157 76.4053C318.328 76.7329 320.401 77.2997 321.79 78.1865C323.12 79.0357 323.915 80.2385 324.388 82.1016C324.874 84.0172 325 86.5582 325 90C325 93.4418 324.874 95.9828 324.388 97.8984C323.915 99.7615 323.12 100.964 321.79 101.813C320.401 102.7 318.328 103.267 315.157 103.595C312.002 103.921 307.888 104 302.5 104V105C324.042 105 326 103.751 326 90C326 76.2495 324.042 75 302.5 75V73C303.804 73 305.041 73.0049 306.216 73.0166L301.669 68.4697C301.5 68.301 301.352 68.121 301.223 67.9326V73.002C301.641 73.0009 302.067 73 302.5 73V75C280.958 75 279 76.2495 279 90H277C277 86.5711 277.115 83.6843 277.704 81.3633C278.269 79.1344 279.299 77.3253 281.101 76H270.839C270.337 76 269.664 75.8919 269.064 75.4258C268.954 75.3399 268.854 75.2479 268.765 75.1523C268.675 75.2481 268.576 75.3408 268.465 75.4268C267.866 75.8919 267.194 76 266.691 76H259.251L259.203 75.998L259.021 75.9893L258.975 75.9863L258.928 75.9824C258.017 75.8952 257.228 75.4915 256.609 74.874L251.266 69.5615L251.242 69.5381L251.22 69.5146C250.537 68.7893 250.163 67.8752 250.163 66.8643V50.9395C249.946 50.8945 249.719 50.8238 249.495 50.7139V73.2627L249.475 73.5918L249.463 73.6709C249.379 74.2596 249.102 74.9348 248.469 75.4268C247.87 75.8919 247.197 76 246.695 76H229.575C228.674 75.9999 227.84 75.6945 227.15 75.1172L227.113 75.0859L227.078 75.0537L226.939 74.9258L226.91 74.8984L220.481 68.4697C220.309 68.2971 220.158 68.1129 220.026 67.9199V73.2676L220.021 73.335L220.009 73.5225L220.004 73.5967L219.993 73.6709C219.909 74.2596 219.632 74.9348 218.999 75.4268C218.4 75.8919 217.728 76 217.226 76H209.386C209.026 76 208.633 75.9615 208.241 75.8467L208.181 75.8291L208.121 75.8076L207.968 75.752L207.859 75.7129L207.756 75.6611C207.337 75.4517 206.998 75.1631 206.724 74.8701L206.538 74.6846L206.321 74.9014L206.289 74.9307L206.149 75.0586L206.117 75.0889L206.083 75.1172C205.499 75.6061 204.801 75.9087 204.029 75.9824L203.982 75.9863L203.937 75.9893L203.756 75.998L203.707 76H200.058L200.01 75.998L199.828 75.9893L199.781 75.9863L199.734 75.9824C198.964 75.9087 198.265 75.6066 197.681 75.1172L197.644 75.0859L197.608 75.0537L197.47 74.9258L197.44 74.8984L191.012 68.4697C190.84 68.2975 190.689 68.1135 190.558 67.9209V73.2627L190.537 73.5918L190.525 73.6709C190.441 74.2596 190.165 74.9348 189.531 75.4268C188.932 75.8919 188.26 76 187.758 76H177.87C177.368 76 176.696 75.8919 176.097 75.4268C175.845 75.2314 175.651 75.0058 175.502 74.7695C175.353 75.0058 175.159 75.2314 174.907 75.4268C174.308 75.8919 173.636 76 173.134 76H163.179L163.111 75.9951L162.924 75.9824L162.85 75.9775L162.776 75.9668C162.283 75.8963 161.709 75.6903 161.233 75.2158C160.757 74.7408 160.549 74.167 160.479 73.6709L160.467 73.5918L160.446 73.2627V67.918C160.315 68.1118 160.163 68.2967 159.99 68.4697L153.591 74.8701L153.561 74.9014L153.527 74.9307L153.388 75.0586L153.355 75.0889L153.321 75.1172C152.632 75.6941 151.798 76 150.896 76H141.12L141.072 75.998L140.891 75.9893L140.844 75.9863L140.797 75.9824C140.026 75.9087 139.327 75.6066 138.743 75.1172L138.706 75.0859L138.671 75.0537L138.532 74.9258L138.503 74.8984L132.074 68.4697C131.436 67.8315 131.069 67.0249 130.992 66.1367L130.988 66.0918L130.986 66.0469L130.979 65.8594L130.977 65.8184V53.209L126.746 56.1357V73.2627L126.726 73.5918L126.714 73.6709C126.63 74.2596 126.353 74.9348 125.72 75.4268C125.121 75.8919 124.448 76 123.946 76H114.059C113.556 76 112.884 75.892 112.284 75.4258C112.167 75.3349 112.062 75.2374 111.969 75.1357C111.875 75.2374 111.77 75.3349 111.653 75.4258C111.054 75.892 110.381 76 109.879 76H102.438L102.391 75.998L102.209 75.9893L102.162 75.9863L102.115 75.9824C101.204 75.8952 100.416 75.4915 99.7969 74.874L94.4531 69.5615L94.4297 69.5381L94.4072 69.5146C93.7246 68.7893 93.3507 67.8752 93.3506 66.8643V50.9395C92.9021 50.8468 92.4136 50.642 91.9932 50.2217C91.6845 49.9131 91.4918 49.5677 91.374 49.2285C91.3343 49.2519 91.2953 49.2737 91.2568 49.2939L91.2578 49.2959L87.2031 51.4844L91.2236 53.6465C91.7049 53.8936 92.1302 54.272 92.4238 54.79C92.7256 55.3225 92.8203 55.881 92.8203 56.3682V66.6396C92.8203 67.6781 92.4403 68.6723 91.6045 69.4131L91.6055 69.4141L85.2373 75.0781L85.1709 75.1377L85.0986 75.1914L84.9668 75.2891L84.9287 75.3174L84.8887 75.3438C84.1874 75.8131 83.4007 76 82.6279 76H75.877L76.3779 76.2832C78.4968 77.5135 80.0142 78.7921 81.9209 80.7578L82.832 81.7158L82.8838 81.7715L82.9307 81.8301C83.3166 82.3109 84 83.2491 84 84.5C84 85.751 83.317 86.6897 82.9287 87.1719L82.8828 87.2285L82.832 87.2822C80.3372 89.9518 78.6435 91.4553 75.9668 92.9473C74.5381 93.9026 72.5191 93.7448 71.293 92.457C69.978 91.0769 70.1317 88.9987 71.4922 87.7852L71.5254 87.7549L71.5615 87.7256L71.6768 87.6318L71.7168 87.5996L71.7588 87.5684L72.1357 87.293C73.6923 86.1548 74.6731 85.4325 75.7637 84.498C74.6566 83.5476 73.6649 82.821 72.0127 81.6152L71.7637 81.4355L71.7617 81.4336C70.6262 80.6069 70.149 79.2138 70.4941 77.9434C70.46 78.0022 70.4241 78.061 70.3857 78.1191L59.6162 94.4297C58.5747 96.0065 56.4892 96.3845 54.9443 95.6045C53.5689 94.9093 52.764 93.3445 53.1807 91.8271C53.052 92.0474 52.8945 92.2584 52.7061 92.4561L52.707 92.457C51.6251 93.5933 49.966 93.8191 48.6621 93.2822C48.5536 93.2376 48.3848 93.1638 48.2002 93.0547L48.1553 93.0283L48.1113 92.999L48.0449 92.9541C45.3613 91.46 43.6665 89.9557 41.168 87.2822L41.1172 87.2285L41.0713 87.1719C40.683 86.6897 40 85.751 40 84.5C40 83.2491 40.6834 82.3109 41.0693 81.8301L41.1162 81.7715L41.168 81.7158C43.6908 79.0176 45.3941 77.5098 48.123 76H40.4639C39.9616 76 39.2888 75.8919 38.6895 75.4258C38.0563 74.9332 37.7812 74.2577 37.6973 73.6709L37.6865 73.5977L37.6816 73.5225L37.6689 73.335L37.6641 73.2676V73.0186C35.6003 74.8804 32.7749 76 29.75 76H11.25C5.42511 76 0.332252 71.856 0.0146484 66.2324L0.0136719 66.2041L0.0126953 66.1748L0.000976562 65.7471L0 65.7197V65.6924C0 61.1033 3.18433 57.4083 7.43164 56C3.18433 54.5917 0 50.8967 0 46.3076C5.88894e-05 40.4182 5.24435 36 11.25 36H29.75C33.5047 36 36.9613 37.7272 39.0254 40.4609L45.8994 30.6748L45.9229 30.6416C46.5856 29.7379 47.5672 29.344 48.5596 29.3438H59.8877C60.843 29.3438 61.8734 29.7013 62.543 30.668L70.1562 41.4141L70.3115 41.6484C70.5648 42.063 70.7343 42.5217 70.8066 43.0117C70.9521 42.851 71.1067 42.7134 71.2568 42.5967L71.2793 42.5791L71.3027 42.5625L78.1182 37.5703L78.1279 37.5635L78.1377 37.5557C78.3626 37.3951 78.5956 37.2636 78.8311 37.1572L78.8818 37.1357L79.0078 37.083C79.3046 36.9495 79.6213 36.8584 79.9541 36.8203L80.0127 36.8135L80.0723 36.8105L80.2148 36.8027L80.2695 36.7998H89.9238C90.499 36.7998 91.2979 36.9452 91.9385 37.5859C91.9476 37.5951 91.9559 37.605 91.9648 37.6143C91.9741 37.6047 91.9837 37.5954 91.9932 37.5859C92.4135 37.1656 92.9019 36.9599 93.3506 36.8672V34.7998L93.3564 34.6035C93.3837 34.1291 93.5178 33.548 93.9268 33.0234C94.42 32.3908 95.0951 32.1158 95.6816 32.0322L95.7549 32.0225L95.8291 32.0176L96.0166 32.0049L96.084 32H106.106L106.174 32.0049L106.361 32.0176L106.436 32.0225L106.51 32.0332C107.097 32.1171 107.772 32.3921 108.265 33.0254C108.731 33.6248 108.839 34.2977 108.839 34.7998V36.7998H109.943C110.519 36.7999 111.317 36.9457 111.957 37.5859C111.972 37.6008 111.986 37.6168 112 37.6318C112.015 37.6166 112.029 37.601 112.044 37.5859C112.684 36.9452 113.483 36.7998 114.059 36.7998H121.9L121.965 36.8037L122.16 36.8164L122.219 36.8242C123.13 36.9387 123.83 37.4302 124.329 37.9551L124.729 38.3682L125.37 37.748L125.415 37.7051L125.462 37.665C126.004 37.2009 126.673 36.8827 127.44 36.8135L127.487 36.8096L127.712 36.7998H130.314C130.89 36.7998 131.689 36.9452 132.329 37.5859C132.969 38.2262 133.114 39.0241 133.114 39.5986V43.29L138.475 37.9297L138.715 37.707C139.293 37.2136 139.998 36.8938 140.797 36.8174L140.844 36.8135L140.891 36.8105L141.072 36.8018L141.12 36.7998H150.896C151.943 36.7998 152.872 37.2105 153.591 37.9297L159.99 44.3301C160.163 44.5029 160.315 44.6873 160.446 44.8809V39.5986C160.446 39.0968 160.555 38.4244 161.021 37.8252C161.513 37.1917 162.189 36.9169 162.776 36.833L162.85 36.8223L162.924 36.8174L163.111 36.8047L163.179 36.7998H180.415L180.464 36.8018L180.645 36.8105L180.69 36.8135L180.737 36.8174C181.537 36.8938 182.241 37.2138 182.819 37.707L183.06 37.9297L189.46 44.3301C189.798 44.6679 190.055 45.0488 190.235 45.458C190.416 45.0486 190.674 44.668 191.012 44.3301L197.412 37.9297L197.652 37.707C198.231 37.2136 198.935 36.8938 199.734 36.8174L199.781 36.8135L199.828 36.8105L200.01 36.8018L200.058 36.7998H217.226C217.801 36.7998 218.599 36.9455 219.239 37.585C219.439 37.7842 219.591 37.9984 219.705 38.2168C219.819 37.9989 219.97 37.7848 220.169 37.5859C220.809 36.9452 221.608 36.7998 222.184 36.7998H232.071C232.646 36.7998 233.445 36.9452 234.086 37.5859C234.227 37.7269 234.343 37.8761 234.439 38.0283C234.536 37.8761 234.652 37.7269 234.793 37.5859C235.434 36.9452 236.232 36.7998 236.808 36.7998H246.695C247.27 36.7998 248.069 36.9452 248.71 37.5859C248.727 37.6025 248.742 37.62 248.758 37.6367C248.774 37.62 248.789 37.6025 248.806 37.5859C249.226 37.1656 249.714 36.9599 250.163 36.8672V34.7998L250.169 34.6035C250.196 34.1291 250.33 33.548 250.739 33.0234C251.232 32.3908 251.908 32.1158 252.494 32.0322L252.567 32.0225L252.642 32.0176L252.829 32.0049L252.896 32H262.919L262.986 32.0049L263.174 32.0176L263.248 32.0225L263.322 32.0332C263.909 32.1171 264.585 32.3922 265.077 33.0254C265.543 33.6248 265.651 34.2977 265.651 34.7998V36.7998H266.756C267.331 36.7999 268.129 36.9457 268.77 37.5859C269.41 38.2262 269.556 39.0244 269.556 39.5996V40.2402L276.274 30.6748L276.298 30.6416C276.961 29.7379 277.942 29.344 278.935 29.3438H290.263C291.218 29.3438 292.248 29.7013 292.918 30.668L300.531 41.4141L300.571 41.4736V39.5361C300.571 38.5287 300.941 37.6131 301.627 36.8848L301.647 36.8633L308.091 30.4209L308.112 30.4004C308.838 29.7176 309.752 29.3439 310.763 29.3438H315.312C312.555 26.5397 312 22.1668 312 16.5C312 10.5289 312.615 5.99281 315.773 3.2168C317.343 1.8373 319.361 1.05422 321.749 0.601562C324.128 0.150649 327.028 0 330.5 0V2C316.75 2 314 4.41667 314 16.5C314 28.5833 316.75 31 330.5 31V30C327.08 30 324.405 29.8487 322.308 29.4512C320.215 29.0545 318.774 28.4264 317.754 27.5303C315.724 25.7464 315 22.5769 315 16.5C315 10.4231 315.724 7.25361 317.754 5.46973C318.774 4.57359 320.215 3.94553 322.308 3.54883C324.405 3.15131 327.08 3 330.5 3V3.41699C326.972 3.41699 324.409 3.59089 322.517 3.94629C320.623 4.30204 319.314 4.85523 318.378 5.67773C317.429 6.51072 316.778 7.69615 316.361 9.41016C315.949 11.1079 315.75 13.3899 315.75 16.5C315.75 19.6101 315.949 21.892 316.361 23.5898C316.778 25.3042 317.43 26.4897 318.378 27.3232C319.892 28.654 322.427 29.3106 327.053 29.5137L328.101 29.5596L328.097 28.5107C328.092 27.4253 328.088 26.0358 328.084 25.3828L328.077 24.1738L327.422 24.3018C327.452 24.2902 327.481 24.2806 327.508 24.2695L328.032 24.0566L328.119 23.4971C328.217 22.8637 328.48 22.5193 328.675 22.3652L330.605 20.8379L328.157 20.5859C326.588 20.4244 325.16 20.0807 324.133 19.2969C323.17 18.562 322.423 17.3344 322.423 15.0605C322.423 13.9129 322.865 12.9847 323.625 12.2314L324.118 11.7432L323.833 11.1104C323.766 10.9621 323.451 10.1829 323.766 9.03711C323.788 9.04089 323.811 9.04428 323.835 9.04883C324.346 9.14627 325.234 9.43069 326.544 10.2344L326.903 10.4541L327.312 10.3516C328.385 10.0807 329.548 9.94357 330.712 9.93848C331.873 9.94339 333.037 10.0804 334.114 10.3516L334.522 10.4541L334.882 10.2344C336.247 9.39622 337.152 9.12143 337.656 9.03613C337.972 10.1818 337.659 10.9612 337.592 11.1104L337.306 11.7441L337.8 12.2324C338.56 12.984 339 13.9112 339 15.0605ZM342 15.0605C342 18.1016 340.944 20.2898 339.102 21.6875C338.229 22.3495 337.248 22.7771 336.27 23.0615C336.316 23.3665 336.34 23.6845 336.34 24.0137C336.34 24.6211 336.335 25.467 336.332 26.333C339.051 26.0374 340.127 25.5224 340.642 25.0703C340.991 24.7635 341.403 24.2017 341.724 22.8809C342.053 21.5268 342.25 19.5232 342.25 16.5C342.25 13.4766 342.053 11.4729 341.724 10.1191C341.403 8.79893 340.991 8.23749 340.642 7.93066C340.573 7.87004 340.491 7.80874 340.395 7.74414C340.861 9.05695 340.852 10.1945 340.711 11.0361C341.517 12.153 342 13.5043 342 15.0605Z" fill="black"/>
</svg>
