999
"DXF R12 Output" (www.mydxf.blogspot.com)
 0 
SECTION
 2 
HEADER
 9 
$ACADVER
 1 
AC1009
 9 
$EXTMIN
 10 
 0 
 20 
 0 
 9 
$EXTMAX
 10 
 8.5 
 20 
 11 
 0 
ENDSEC
 0 
SECTION
 2 
ENTITIES
0
POLYLINE
8
Layer 1
62
7
70
1
10
0.000000
20
0.000000
66
1
0
VERTEX
8
Layer 1
10
24.029507
20
13.396333
70
0
0
VERTEX
8
Layer 1
10
23.885601
20
13.650332
70
0
0
VERTEX
8
Layer 1
10
22.310750
20
14.497051
70
0
0
VERTEX
8
Layer 1
10
22.310750
20
14.878156
70
0
0
VERTEX
8
Layer 1
10
23.893856
20
15.733156
70
0
0
VERTEX
8
Layer 1
10
23.987148
20
15.843223
70
0
0
VERTEX
8
Layer 1
10
24.003922
20
16.020996
70
0
0
VERTEX
8
Layer 1
10
24.003922
20
17.833019
70
0
0
VERTEX
8
Layer 1
10
23.792309
20
18.044633
70
0
0
VERTEX
8
Layer 1
10
21.252418
20
18.044633
70
0
0
VERTEX
8
Layer 1
10
21.214688
20
18.042569
70
0
0
VERTEX
8
Layer 1
10
21.108511
20
18.010792
70
0
0
VERTEX
8
Layer 1
10
21.075174
20
17.996822
70
0
0
VERTEX
8
Layer 1
10
20.981379
20
17.943086
70
0
0
VERTEX
8
Layer 1
10
19.178140
20
16.622234
70
0
0
VERTEX
8
Layer 1
10
19.076328
20
16.495129
70
0
0
VERTEX
8
Layer 1
10
19.059527
20
16.368261
70
0
0
VERTEX
8
Layer 1
10
19.059527
20
13.548785
70
0
0
VERTEX
8
Layer 1
10
19.186395
20
13.277746
70
0
0
VERTEX
8
Layer 1
10
20.913672
20
12.346547
70
0
0
VERTEX
8
Layer 1
10
20.913672
20
11.973961
70
0
0
VERTEX
8
Layer 1
10
19.186395
20
11.051016
70
0
0
VERTEX
8
Layer 1
10
19.059527
20
10.797016
70
0
0
VERTEX
8
Layer 1
10
19.059527
20
8.942871
70
0
0
VERTEX
8
Layer 1
10
19.062888
20
8.893262
70
0
0
VERTEX
8
Layer 1
10
19.271141
20
8.731258
70
0
0
VERTEX
8
Layer 1
10
21.861938
20
8.731258
70
0
0
VERTEX
8
Layer 1
10
21.861938
20
8.995841
70
0
0
VERTEX
8
Layer 1
10
19.324110
20
8.995841
70
0
0
VERTEX
8
Layer 1
10
19.324110
20
10.797016
70
0
0
VERTEX
8
Layer 1
10
19.326174
20
10.825962
70
0
0
VERTEX
8
Layer 1
10
21.178255
20
11.815290
70
0
0
VERTEX
8
Layer 1
10
21.178255
20
12.504397
70
0
0
VERTEX
8
Layer 1
10
19.328000
20
13.502007
70
0
0
VERTEX
8
Layer 1
10
19.324110
20
13.548785
70
0
0
VERTEX
8
Layer 1
10
19.324110
20
16.368261
70
0
0
VERTEX
8
Layer 1
10
19.325936
20
16.400302
70
0
0
VERTEX
8
Layer 1
10
19.339880
20
16.412949
70
0
0
VERTEX
8
Layer 1
10
21.135128
20
17.727847
70
0
0
VERTEX
8
Layer 1
10
21.180848
20
17.754464
70
0
0
VERTEX
8
Layer 1
10
21.210561
20
17.766609
70
0
0
VERTEX
8
Layer 1
10
21.218842
20
17.770233
70
0
0
VERTEX
8
Layer 1
10
21.226833
20
17.774096
70
0
0
VERTEX
8
Layer 1
10
21.243131
20
17.779282
70
0
0
VERTEX
8
Layer 1
10
21.257604
20
17.780050
70
0
0
VERTEX
8
Layer 1
10
23.739339
20
17.780050
70
0
0
VERTEX
8
Layer 1
10
23.739339
20
16.020996
70
0
0
VERTEX
8
Layer 1
10
23.736244
20
15.948897
70
0
0
VERTEX
8
Layer 1
10
22.046167
20
15.036033
70
0
0
VERTEX
8
Layer 1
10
22.046167
20
14.338909
70
0
0
VERTEX
8
Layer 1
10
23.760268
20
13.417261
70
0
0
VERTEX
8
Layer 1
10
23.763125
20
13.415726
70
0
0
VERTEX
8
Layer 1
10
23.764924
20
13.396333
70
0
0
VERTEX
8
Layer 1
10
23.764924
20
10.678695
70
0
0
VERTEX
8
Layer 1
10
23.710420
20
10.538386
70
0
0
VERTEX
8
Layer 1
10
23.709627
20
10.537593
70
0
0
VERTEX
8
Layer 1
10
22.034022
20
9.047514
70
0
0
VERTEX
8
Layer 1
10
22.015951
20
9.034073
70
0
0
VERTEX
8
Layer 1
10
21.861938
20
8.995841
70
0
0
VERTEX
8
Layer 1
10
21.861938
20
8.731258
70
0
0
VERTEX
8
Layer 1
10
22.165811
20
8.815501
70
0
0
VERTEX
8
Layer 1
10
22.200683
20
8.841325
70
0
0
VERTEX
8
Layer 1
10
23.885601
20
10.339949
70
0
0
VERTEX
8
Layer 1
10
24.029507
20
10.678695
70
0
0
VERTEX
8
Layer 1
10
24.029507
20
13.396333
70
0
0
VERTEX
8
Layer 1
10
24.029507
20
13.396333
70
0
0
SEQEND
8
Layer 1
0
POLYLINE
8
Layer 1
62
7
70
1
10
0.000000
20
0.000000
66
1
0
VERTEX
8
Layer 1
10
84.688520
20
4.497930
70
0
0
VERTEX
8
Layer 1
10
84.554906
20
6.368347
70
0
0
VERTEX
8
Layer 1
10
84.554112
20
6.371204
70
0
0
VERTEX
8
Layer 1
10
84.424996
20
6.700107
70
0
0
VERTEX
8
Layer 1
10
84.356998
20
6.775037
70
0
0
VERTEX
8
Layer 1
10
84.334508
20
6.790806
70
0
0
VERTEX
8
Layer 1
10
83.219026
20
7.045309
70
0
0
VERTEX
8
Layer 1
10
83.218497
20
7.045309
70
0
0
VERTEX
8
Layer 1
10
80.036358
20
7.143760
70
0
0
VERTEX
8
Layer 1
10
76.854218
20
7.045309
70
0
0
VERTEX
8
Layer 1
10
76.853689
20
7.045309
70
0
0
VERTEX
8
Layer 1
10
75.781598
20
6.815360
70
0
0
VERTEX
8
Layer 1
10
75.738207
20
6.790806
70
0
0
VERTEX
8
Layer 1
10
75.647719
20
6.700107
70
0
0
VERTEX
8
Layer 1
10
75.518603
20
6.371204
70
0
0
VERTEX
8
Layer 1
10
75.517809
20
6.368347
70
0
0
VERTEX
8
Layer 1
10
75.384195
20
4.497930
70
0
0
VERTEX
8
Layer 1
10
75.385518
20
4.179346
70
0
0
VERTEX
8
Layer 1
10
75.389486
20
3.918890
70
0
0
VERTEX
8
Layer 1
10
75.517809
20
2.627513
70
0
0
VERTEX
8
Layer 1
10
75.518603
20
2.624656
70
0
0
VERTEX
8
Layer 1
10
75.647719
20
2.295753
70
0
0
VERTEX
8
Layer 1
10
75.738207
20
2.205054
70
0
0
VERTEX
8
Layer 1
10
75.781598
20
2.180500
70
0
0
VERTEX
8
Layer 1
10
76.853424
20
1.950789
70
0
0
VERTEX
8
Layer 1
10
76.854482
20
1.950789
70
0
0
VERTEX
8
Layer 1
10
80.036358
20
1.852100
70
0
0
VERTEX
8
Layer 1
10
83.218233
20
1.950789
70
0
0
VERTEX
8
Layer 1
10
83.219291
20
1.950789
70
0
0
VERTEX
8
Layer 1
10
84.334508
20
2.205054
70
0
0
VERTEX
8
Layer 1
10
84.356998
20
2.220823
70
0
0
VERTEX
8
Layer 1
10
84.424996
20
2.295753
70
0
0
VERTEX
8
Layer 1
10
84.554112
20
2.624656
70
0
0
VERTEX
8
Layer 1
10
84.554906
20
2.627513
70
0
0
VERTEX
8
Layer 1
10
84.688520
20
4.497930
70
0
0
VERTEX
8
Layer 1
10
84.688520
20
4.497930
70
0
0
SEQEND
8
Layer 1
0
POLYLINE
8
Layer 1
62
7
70
1
10
0.000000
20
0.000000
66
1
0
VERTEX
8
Layer 1
10
76.818764
20
6.612001
70
0
0
VERTEX
8
Layer 1
10
77.395290
20
6.503231
70
0
0
VERTEX
8
Layer 1
10
77.474136
20
6.461109
70
0
0
VERTEX
8
Layer 1
10
77.500065
20
6.445605
70
0
0
VERTEX
8
Layer 1
10
77.745598
20
6.301698
70
0
0
VERTEX
8
Layer 1
10
77.759621
20
6.293681
70
0
0
VERTEX
8
Layer 1
10
77.761208
20
6.292385
70
0
0
VERTEX
8
Layer 1
10
79.366169
20
5.191931
70
0
0
VERTEX
8
Layer 1
10
79.459831
20
5.101497
70
0
0
VERTEX
8
Layer 1
10
79.497402
20
5.064296
70
0
0
VERTEX
8
Layer 1
10
79.500842
20
5.059137
70
0
0
VERTEX
8
Layer 1
10
79.682709
20
4.808425
70
0
0
VERTEX
8
Layer 1
10
79.788179
20
4.398447
70
0
0
VERTEX
8
Layer 1
10
79.657673
20
3.944191
70
0
0
VERTEX
8
Layer 1
10
79.464064
20
3.699524
70
0
0
VERTEX
8
Layer 1
10
79.462477
20
3.698228
70
0
0
VERTEX
8
Layer 1
10
79.460625
20
3.696429
70
0
0
VERTEX
8
Layer 1
10
79.459831
20
3.695397
70
0
0
VERTEX
8
Layer 1
10
79.452158
20
3.688174
70
0
0
VERTEX
8
Layer 1
10
79.996670
20
3.836472
70
0
0
VERTEX
8
Layer 1
10
79.996670
20
3.307306
70
0
0
VERTEX
8
Layer 1
10
79.658467
20
3.191022
70
0
0
VERTEX
8
Layer 1
10
79.518304
20
2.910432
70
0
0
VERTEX
8
Layer 1
10
79.658467
20
2.629842
70
0
0
VERTEX
8
Layer 1
10
79.996670
20
2.513558
70
0
0
VERTEX
8
Layer 1
10
79.996670
20
2.778140
70
0
0
VERTEX
8
Layer 1
10
79.827337
20
2.833438
70
0
0
VERTEX
8
Layer 1
10
79.782887
20
2.910432
70
0
0
VERTEX
8
Layer 1
10
79.827337
20
2.987426
70
0
0
VERTEX
8
Layer 1
10
79.996670
20
3.042724
70
0
0
VERTEX
8
Layer 1
10
83.184895
20
3.042724
70
0
0
VERTEX
8
Layer 1
10
83.354228
20
2.987426
70
0
0
VERTEX
8
Layer 1
10
83.398678
20
2.910432
70
0
0
VERTEX
8
Layer 1
10
83.354228
20
2.833438
70
0
0
VERTEX
8
Layer 1
10
83.184895
20
2.778140
70
0
0
VERTEX
8
Layer 1
10
83.184895
20
2.513558
70
0
0
VERTEX
8
Layer 1
10
83.523098
20
2.629842
70
0
0
VERTEX
8
Layer 1
10
83.663261
20
2.910432
70
0
0
VERTEX
8
Layer 1
10
83.523098
20
3.191022
70
0
0
VERTEX
8
Layer 1
10
83.184895
20
3.307306
70
0
0
VERTEX
8
Layer 1
10
79.996670
20
3.307306
70
0
0
VERTEX
8
Layer 1
10
79.996670
20
3.836472
70
0
0
VERTEX
8
Layer 1
10
83.184895
20
3.836472
70
0
0
VERTEX
8
Layer 1
10
83.861103
20
3.598232
70
0
0
VERTEX
8
Layer 1
10
84.099666
20
3.308003
70
0
0
VERTEX
8
Layer 1
10
84.192427
20
2.910432
70
0
0
VERTEX
8
Layer 1
10
84.099666
20
2.512861
70
0
0
VERTEX
8
Layer 1
10
83.861103
20
2.222632
70
0
0
VERTEX
8
Layer 1
10
83.184895
20
1.984392
70
0
0
VERTEX
8
Layer 1
10
79.996670
20
1.984392
70
0
0
VERTEX
8
Layer 1
10
79.320462
20
2.222632
70
0
0
VERTEX
8
Layer 1
10
79.081899
20
2.512861
70
0
0
VERTEX
8
Layer 1
10
78.989138
20
2.910432
70
0
0
VERTEX
8
Layer 1
10
79.146300
20
3.414013
70
0
0
VERTEX
8
Layer 1
10
77.758827
20
2.502974
70
0
0
VERTEX
8
Layer 1
10
77.531550
20
2.370154
70
0
0
VERTEX
8
Layer 1
10
77.531286
20
2.370418
70
0
0
VERTEX
8
Layer 1
10
77.473607
20
2.336578
70
0
0
VERTEX
8
Layer 1
10
76.819293
20
2.185422
70
0
0
VERTEX
8
Layer 1
10
76.182177
20
2.433971
70
0
0
VERTEX
8
Layer 1
10
76.144342
20
2.467811
70
0
0
VERTEX
8
Layer 1
10
75.933866
20
2.779172
70
0
0
VERTEX
8
Layer 1
10
75.886902
20
3.165702
70
0
0
VERTEX
8
Layer 1
10
76.035863
20
3.538532
70
0
0
VERTEX
8
Layer 1
10
76.318173
20
3.793848
70
0
0
VERTEX
8
Layer 1
10
76.318702
20
3.794351
70
0
0
VERTEX
8
Layer 1
10
76.602335
20
3.960244
70
0
0
VERTEX
8
Layer 1
10
76.602599
20
3.960747
70
0
0
VERTEX
8
Layer 1
10
77.323323
20
4.398182
70
0
0
VERTEX
8
Layer 1
10
76.955818
20
4.627390
70
0
0
VERTEX
8
Layer 1
10
76.514758
20
4.887581
70
0
0
VERTEX
8
Layer 1
10
76.317908
20
5.003575
70
0
0
VERTEX
8
Layer 1
10
76.050051
20
5.239351
70
0
0
VERTEX
8
Layer 1
10
75.895104
20
5.580815
70
0
0
VERTEX
8
Layer 1
10
75.916635
20
5.968886
70
0
0
VERTEX
8
Layer 1
10
76.110210
20
6.295480
70
0
0
VERTEX
8
Layer 1
10
76.120529
20
6.306593
70
0
0
VERTEX
8
Layer 1
10
76.131642
20
6.316938
70
0
0
VERTEX
8
Layer 1
10
76.162598
20
6.346148
70
0
0
VERTEX
8
Layer 1
10
76.172123
20
6.354932
70
0
0
VERTEX
8
Layer 1
10
76.182177
20
6.363452
70
0
0
VERTEX
8
Layer 1
10
76.818764
20
6.612001
70
0
0
VERTEX
8
Layer 1
10
76.818764
20
6.612001
70
0
0
SEQEND
8
Layer 1
0
POLYLINE
8
Layer 1
62
7
70
1
10
0.000000
20
0.000000
66
1
0
VERTEX
8
Layer 1
10
79.996670
20
2.778140
70
0
0
VERTEX
8
Layer 1
10
79.996670
20
2.513558
70
0
0
VERTEX
8
Layer 1
10
83.184895
20
2.513558
70
0
0
VERTEX
8
Layer 1
10
83.184895
20
2.778140
70
0
0
VERTEX
8
Layer 1
10
79.996670
20
2.778140
70
0
0
VERTEX
8
Layer 1
10
79.996670
20
2.778140
70
0
0
SEQEND
8
Layer 1
0
POLYLINE
8
Layer 1
62
7
70
1
10
0.000000
20
0.000000
66
1
0
VERTEX
8
Layer 1
10
77.204261
20
6.005841
70
0
0
VERTEX
8
Layer 1
10
76.852994
20
6.083973
70
0
0
VERTEX
8
Layer 1
10
76.525341
20
5.960889
70
0
0
VERTEX
8
Layer 1
10
76.494385
20
5.931679
70
0
0
VERTEX
8
Layer 1
10
76.414249
20
5.682452
70
0
0
VERTEX
8
Layer 1
10
76.588312
20
5.458604
70
0
0
VERTEX
8
Layer 1
10
76.782780
20
5.343881
70
0
0
VERTEX
8
Layer 1
10
76.867976
20
5.293743
70
0
0
VERTEX
8
Layer 1
10
77.224899
20
5.083161
70
0
0
VERTEX
8
Layer 1
10
78.204120
20
4.398447
70
0
0
VERTEX
8
Layer 1
10
76.869564
20
3.503680
70
0
0
VERTEX
8
Layer 1
10
76.868505
20
3.503151
70
0
0
VERTEX
8
Layer 1
10
76.588312
20
3.338818
70
0
0
VERTEX
8
Layer 1
10
76.411769
20
3.097955
70
0
0
VERTEX
8
Layer 1
10
76.525341
20
2.836534
70
0
0
VERTEX
8
Layer 1
10
76.853192
20
2.713450
70
0
0
VERTEX
8
Layer 1
10
77.204261
20
2.791581
70
0
0
VERTEX
8
Layer 1
10
77.264321
20
2.826983
70
0
0
VERTEX
8
Layer 1
10
77.492392
20
2.960306
70
0
0
VERTEX
8
Layer 1
10
78.338065
20
3.475704
70
0
0
VERTEX
8
Layer 1
10
79.086505
20
4.070576
70
0
0
VERTEX
8
Layer 1
10
79.087034
20
4.071078
70
0
0
VERTEX
8
Layer 1
10
79.259013
20
4.398447
70
0
0
VERTEX
8
Layer 1
10
79.087034
20
4.725815
70
0
0
VERTEX
8
Layer 1
10
79.086505
20
4.726609
70
0
0
VERTEX
8
Layer 1
10
78.334659
20
5.321961
70
0
0
VERTEX
8
Layer 1
10
77.481015
20
5.843335
70
0
0
VERTEX
8
Layer 1
10
77.479427
20
5.844366
70
0
0
VERTEX
8
Layer 1
10
77.204790
20
6.005339
70
0
0
VERTEX
8
Layer 1
10
77.204261
20
6.005841
70
0
0
VERTEX
8
Layer 1
10
77.204261
20
6.005841
70
0
0
SEQEND
8
Layer 1
0
POLYLINE
8
Layer 1
62
7
70
1
10
0.000000
20
0.000000
66
1
0
VERTEX
8
Layer 1
10
76.198581
20
2.833438
70
0
0
VERTEX
8
Layer 1
10
76.199375
20
2.832142
70
0
0
VERTEX
8
Layer 1
10
76.194877
20
2.841693
70
0
0
VERTEX
8
Layer 1
10
76.198581
20
2.833438
70
0
0
VERTEX
8
Layer 1
10
76.198581
20
2.833438
70
0
0
SEQEND
8
Layer 1
0
POLYLINE
8
Layer 1
62
7
70
1
10
0.000000
20
0.000000
66
1
0
VERTEX
8
Layer 1
10
76.168683
20
2.910432
70
0
0
VERTEX
8
Layer 1
10
76.172917
20
2.896488
70
0
0
VERTEX
8
Layer 1
10
76.168683
20
2.910432
70
0
0
VERTEX
8
Layer 1
10
76.168683
20
2.910432
70
0
0
SEQEND
8
Layer 1
0
POLYLINE
8
Layer 1
62
7
70
1
10
0.000000
20
0.000000
66
1
0
VERTEX
8
Layer 1
10
76.160481
20
2.939113
70
0
0
VERTEX
8
Layer 1
10
76.162598
20
2.931361
70
0
0
VERTEX
8
Layer 1
10
76.156248
20
2.961602
70
0
0
VERTEX
8
Layer 1
10
76.160481
20
2.939113
70
0
0
VERTEX
8
Layer 1
10
76.160481
20
2.939113
70
0
0
SEQEND
8
Layer 1
0
POLYLINE
8
Layer 1
62
7
70
1
10
0.000000
20
0.000000
66
1
0
VERTEX
8
Layer 1
10
76.870093
20
5.820078
70
0
0
VERTEX
8
Layer 1
10
77.067736
20
5.778988
70
0
0
VERTEX
8
Layer 1
10
77.070382
20
5.777427
70
0
0
VERTEX
8
Layer 1
10
77.338140
20
5.620609
70
0
0
VERTEX
8
Layer 1
10
77.340786
20
5.618783
70
0
0
VERTEX
8
Layer 1
10
77.347400
20
5.614920
70
0
0
VERTEX
8
Layer 1
10
78.822186
20
4.613950
70
0
0
VERTEX
8
Layer 1
10
78.899709
20
4.539020
70
0
0
VERTEX
8
Layer 1
10
78.976703
20
4.445225
70
0
0
VERTEX
8
Layer 1
10
78.994430
20
4.398447
70
0
0
VERTEX
8
Layer 1
10
78.976438
20
4.351695
70
0
0
VERTEX
8
Layer 1
10
78.899974
20
4.258165
70
0
0
VERTEX
8
Layer 1
10
78.191321
20
3.695979
70
0
0
VERTEX
8
Layer 1
10
77.359042
20
3.188959
70
0
0
VERTEX
8
Layer 1
10
77.358778
20
3.188720
70
0
0
VERTEX
8
Layer 1
10
77.130972
20
3.055397
70
0
0
VERTEX
8
Layer 1
10
77.130442
20
3.055132
70
0
0
VERTEX
8
Layer 1
10
77.069588
20
3.019467
70
0
0
VERTEX
8
Layer 1
10
77.069324
20
3.019202
70
0
0
VERTEX
8
Layer 1
10
76.870093
20
2.977610
70
0
0
VERTEX
8
Layer 1
10
76.697585
20
3.037564
70
0
0
VERTEX
8
Layer 1
10
76.697320
20
3.037802
70
0
0
VERTEX
8
Layer 1
10
76.679858
20
3.055635
70
0
0
VERTEX
8
Layer 1
10
76.674566
20
3.064419
70
0
0
VERTEX
8
Layer 1
10
76.674301
20
3.064948
70
0
0
VERTEX
8
Layer 1
10
76.723249
20
3.111462
70
0
0
VERTEX
8
Layer 1
10
77.001590
20
3.274763
70
0
0
VERTEX
8
Layer 1
10
77.002913
20
3.275265
70
0
0
VERTEX
8
Layer 1
10
78.379803
20
4.200539
70
0
0
VERTEX
8
Layer 1
10
78.602847
20
4.398711
70
0
0
VERTEX
8
Layer 1
10
78.379539
20
4.596381
70
0
0
VERTEX
8
Layer 1
10
77.361159
20
5.310015
70
0
0
VERTEX
8
Layer 1
10
77.359307
20
5.311046
70
0
0
VERTEX
8
Layer 1
10
77.002384
20
5.521628
70
0
0
VERTEX
8
Layer 1
10
77.002120
20
5.521893
70
0
0
VERTEX
8
Layer 1
10
76.916659
20
5.572031
70
0
0
VERTEX
8
Layer 1
10
76.723514
20
5.685961
70
0
0
VERTEX
8
Layer 1
10
76.723249
20
5.686225
70
0
0
VERTEX
8
Layer 1
10
76.695733
20
5.705857
70
0
0
VERTEX
8
Layer 1
10
76.680651
20
5.721362
70
0
0
VERTEX
8
Layer 1
10
76.675095
20
5.730675
70
0
0
VERTEX
8
Layer 1
10
76.674301
20
5.732210
70
0
0
VERTEX
8
Layer 1
10
76.685943
20
5.748746
70
0
0
VERTEX
8
Layer 1
10
76.698114
20
5.760388
70
0
0
VERTEX
8
Layer 1
10
76.870093
20
5.820078
70
0
0
VERTEX
8
Layer 1
10
76.870093
20
5.820078
70
0
0
SEQEND
8
Layer 1
0
POLYLINE
8
Layer 1
62
7
70
1
10
0.000000
20
0.000000
66
1
0
VERTEX
8
Layer 1
10
18.032469
20
8.418865
70
0
0
VERTEX
8
Layer 1
10
17.723618
20
8.454388
70
0
0
VERTEX
8
Layer 1
10
17.476422
20
8.288637
70
0
0
VERTEX
8
Layer 1
10
14.626995
20
3.973421
70
0
0
VERTEX
8
Layer 1
10
14.586385
20
3.703467
70
0
0
VERTEX
8
Layer 1
10
14.775823
20
3.487408
70
0
0
VERTEX
8
Layer 1
10
15.084674
20
3.451885
70
0
0
VERTEX
8
Layer 1
10
15.331870
20
3.617636
70
0
0
VERTEX
8
Layer 1
10
18.181297
20
7.932852
70
0
0
VERTEX
8
Layer 1
10
18.221907
20
8.202806
70
0
0
VERTEX
8
Layer 1
10
18.032469
20
8.418865
70
0
0
VERTEX
8
Layer 1
10
18.032469
20
8.418865
70
0
0
SEQEND
8
Layer 1
0
POLYLINE
8
Layer 1
62
7
70
1
10
0.000000
20
0.000000
66
1
0
VERTEX
8
Layer 1
10
17.697348
20
8.142931
70
0
0
VERTEX
8
Layer 1
10
17.913089
20
8.182725
70
0
0
VERTEX
8
Layer 1
10
17.936875
20
8.167987
70
0
0
VERTEX
8
Layer 1
10
17.968916
20
8.125363
70
0
0
VERTEX
8
Layer 1
10
17.960370
20
8.078585
70
0
0
VERTEX
8
Layer 1
10
15.110944
20
3.763342
70
0
0
VERTEX
8
Layer 1
10
14.928276
20
3.710637
70
0
0
VERTEX
8
Layer 1
10
14.895203
20
3.723548
70
0
0
VERTEX
8
Layer 1
10
14.839376
20
3.780910
70
0
0
VERTEX
8
Layer 1
10
14.847922
20
3.827688
70
0
0
VERTEX
8
Layer 1
10
17.697348
20
8.142931
70
0
0
VERTEX
8
Layer 1
10
17.697348
20
8.142931
70
0
0
SEQEND
8
Layer 1
0
POLYLINE
8
Layer 1
62
7
70
1
10
0.000000
20
0.000000
66
1
0
VERTEX
8
Layer 1
10
19.819701
20
7.739072
70
0
0
VERTEX
8
Layer 1
10
19.515490
20
7.812295
70
0
0
VERTEX
8
Layer 1
10
19.246085
20
7.693590
70
0
0
VERTEX
8
Layer 1
10
19.153451
20
7.433488
70
0
0
VERTEX
8
Layer 1
10
19.298287
20
7.192337
70
0
0
VERTEX
8
Layer 1
10
19.364168
20
7.144527
70
0
0
VERTEX
8
Layer 1
10
20.834350
20
5.953136
70
0
0
VERTEX
8
Layer 1
10
19.398008
20
4.786802
70
0
0
VERTEX
8
Layer 1
10
19.298287
20
4.713936
70
0
0
VERTEX
8
Layer 1
10
19.267781
20
4.689144
70
0
0
VERTEX
8
Layer 1
10
19.152168
20
4.455696
70
0
0
VERTEX
8
Layer 1
10
19.246085
20
4.212683
70
0
0
VERTEX
8
Layer 1
10
19.521784
20
4.086110
70
0
0
VERTEX
8
Layer 1
10
19.819172
20
4.167201
70
0
0
VERTEX
8
Layer 1
10
19.819701
20
4.167466
70
0
0
VERTEX
8
Layer 1
10
20.677294
20
4.748722
70
0
0
VERTEX
8
Layer 1
10
21.529410
20
5.578222
70
0
0
VERTEX
8
Layer 1
10
21.695806
20
5.953136
70
0
0
VERTEX
8
Layer 1
10
21.529410
20
6.328315
70
0
0
VERTEX
8
Layer 1
10
20.677294
20
7.157548
70
0
0
VERTEX
8
Layer 1
10
19.819701
20
7.739072
70
0
0
VERTEX
8
Layer 1
10
19.819701
20
7.739072
70
0
0
SEQEND
8
Layer 1
0
POLYLINE
8
Layer 1
62
7
70
1
10
0.000000
20
0.000000
66
1
0
VERTEX
8
Layer 1
10
13.562207
20
7.693590
70
0
0
VERTEX
8
Layer 1
10
13.292802
20
7.812295
70
0
0
VERTEX
8
Layer 1
10
12.988591
20
7.739072
70
0
0
VERTEX
8
Layer 1
10
12.130998
20
7.157548
70
0
0
VERTEX
8
Layer 1
10
11.278882
20
6.328315
70
0
0
VERTEX
8
Layer 1
10
11.112486
20
5.953136
70
0
0
VERTEX
8
Layer 1
10
11.278882
20
5.578222
70
0
0
VERTEX
8
Layer 1
10
12.130988
20
4.748722
70
0
0
VERTEX
8
Layer 1
10
12.988591
20
4.167466
70
0
0
VERTEX
8
Layer 1
10
12.989120
20
4.167201
70
0
0
VERTEX
8
Layer 1
10
13.022193
20
4.145241
70
0
0
VERTEX
8
Layer 1
10
13.076697
20
4.118888
70
0
0
VERTEX
8
Layer 1
10
13.335426
20
4.092880
70
0
0
VERTEX
8
Layer 1
10
13.562207
20
4.212683
70
0
0
VERTEX
8
Layer 1
10
13.654841
20
4.472785
70
0
0
VERTEX
8
Layer 1
10
13.510005
20
4.713936
70
0
0
VERTEX
8
Layer 1
10
13.410284
20
4.786802
70
0
0
VERTEX
8
Layer 1
10
11.973942
20
5.953136
70
0
0
VERTEX
8
Layer 1
10
13.444124
20
7.144527
70
0
0
VERTEX
8
Layer 1
10
13.510005
20
7.192337
70
0
0
VERTEX
8
Layer 1
10
13.654841
20
7.433488
70
0
0
VERTEX
8
Layer 1
10
13.562207
20
7.693590
70
0
0
VERTEX
8
Layer 1
10
13.562207
20
7.693590
70
0
0
SEQEND
8
Layer 1
0
POLYLINE
8
Layer 1
62
7
70
1
10
0.000000
20
0.000000
66
1
0
VERTEX
8
Layer 1
10
14.150534
20
7.708063
70
0
0
VERTEX
8
Layer 1
10
14.139183
20
7.191858
70
0
0
VERTEX
8
Layer 1
10
13.821366
20
6.764454
70
0
0
VERTEX
8
Layer 1
10
13.820837
20
6.763951
70
0
0
VERTEX
8
Layer 1
10
13.754956
20
6.716141
70
0
0
VERTEX
8
Layer 1
10
13.754691
20
6.716406
70
0
0
VERTEX
8
Layer 1
10
12.762267
20
5.953666
70
0
0
VERTEX
8
Layer 1
10
13.722412
20
5.214156
70
0
0
VERTEX
8
Layer 1
10
13.821631
20
5.141555
70
0
0
VERTEX
8
Layer 1
10
14.135853
20
4.724086
70
0
0
VERTEX
8
Layer 1
10
14.156487
20
4.218610
70
0
0
VERTEX
8
Layer 1
10
14.185432
20
4.265123
70
0
0
VERTEX
8
Layer 1
10
16.785013
20
8.202092
70
0
0
VERTEX
8
Layer 1
10
15.007068
20
8.202092
70
0
0
VERTEX
8
Layer 1
10
14.720260
20
8.251966
70
0
0
VERTEX
8
Layer 1
10
14.150534
20
7.708063
70
0
0
VERTEX
8
Layer 1
10
14.150534
20
7.708063
70
0
0
SEQEND
8
Layer 1
0
POLYLINE
8
Layer 1
62
7
70
1
10
0.000000
20
0.000000
66
1
0
VERTEX
8
Layer 1
10
19.530062
20
7.548122
70
0
0
VERTEX
8
Layer 1
10
19.691537
20
7.507562
70
0
0
VERTEX
8
Layer 1
10
20.503909
20
6.957580
70
0
0
VERTEX
8
Layer 1
10
21.326580
20
6.157765
70
0
0
VERTEX
8
Layer 1
10
21.431223
20
5.953136
70
0
0
VERTEX
8
Layer 1
10
21.326845
20
5.749275
70
0
0
VERTEX
8
Layer 1
10
20.506522
20
4.951068
70
0
0
VERTEX
8
Layer 1
10
19.697728
20
4.402574
70
0
0
VERTEX
8
Layer 1
10
19.680954
20
4.394055
70
0
0
VERTEX
8
Layer 1
10
19.663121
20
4.380878
70
0
0
VERTEX
8
Layer 1
10
19.437802
20
4.395087
70
0
0
VERTEX
8
Layer 1
10
19.437537
20
4.395351
70
0
0
VERTEX
8
Layer 1
10
19.426187
20
4.409559
70
0
0
VERTEX
8
Layer 1
10
19.416371
20
4.442368
70
0
0
VERTEX
8
Layer 1
10
19.443226
20
4.490945
70
0
0
VERTEX
8
Layer 1
10
19.457963
20
4.503089
70
0
0
VERTEX
8
Layer 1
10
19.554086
20
4.573124
70
0
0
VERTEX
8
Layer 1
10
21.016251
20
5.761155
70
0
0
VERTEX
8
Layer 1
10
21.218842
20
5.953136
70
0
0
VERTEX
8
Layer 1
10
21.016516
20
6.145118
70
0
0
VERTEX
8
Layer 1
10
19.520219
20
7.358205
70
0
0
VERTEX
8
Layer 1
10
19.519452
20
7.358734
70
0
0
VERTEX
8
Layer 1
10
19.454074
20
7.406279
70
0
0
VERTEX
8
Layer 1
10
19.416609
20
7.461048
70
0
0
VERTEX
8
Layer 1
10
19.437537
20
7.510922
70
0
0
VERTEX
8
Layer 1
10
19.437802
20
7.511186
70
0
0
VERTEX
8
Layer 1
10
19.530062
20
7.548122
70
0
0
VERTEX
8
Layer 1
10
19.530062
20
7.548122
70
0
0
SEQEND
8
Layer 1
0
POLYLINE
8
Layer 1
62
7
70
1
10
0.000000
20
0.000000
66
1
0
VERTEX
8
Layer 1
10
13.153691
20
7.487665
70
0
0
VERTEX
8
Layer 1
10
13.197374
20
7.400088
70
0
0
VERTEX
8
Layer 1
10
13.197638
20
7.399559
70
0
0
VERTEX
8
Layer 1
10
13.236902
20
7.320740
70
0
0
VERTEX
8
Layer 1
10
11.791776
20
6.145118
70
0
0
VERTEX
8
Layer 1
10
11.589450
20
5.953136
70
0
0
VERTEX
8
Layer 1
10
11.792041
20
5.761155
70
0
0
VERTEX
8
Layer 1
10
13.247247
20
4.578284
70
0
0
VERTEX
8
Layer 1
10
13.117020
20
4.399241
70
0
0
VERTEX
8
Layer 1
10
13.110564
20
4.402336
70
0
0
VERTEX
8
Layer 1
10
12.301641
20
4.950919
70
0
0
VERTEX
8
Layer 1
10
11.481209
20
5.749275
70
0
0
VERTEX
8
Layer 1
10
11.377069
20
5.953136
70
0
0
VERTEX
8
Layer 1
10
11.481447
20
6.157765
70
0
0
VERTEX
8
Layer 1
10
12.304260
20
6.957599
70
0
0
VERTEX
8
Layer 1
10
13.116755
20
7.507562
70
0
0
VERTEX
8
Layer 1
10
13.210814
20
7.542196
70
0
0
VERTEX
8
Layer 1
10
13.153691
20
7.487665
70
0
0
VERTEX
8
Layer 1
10
13.153691
20
7.487665
70
0
0
SEQEND
8
Layer 1
0
POLYLINE
8
Layer 1
62
7
70
1
10
0.000000
20
0.000000
66
1
0
VERTEX
8
Layer 1
10
76.203608
20
5.490645
70
0
0
VERTEX
8
Layer 1
10
76.205725
20
5.486253
70
0
0
VERTEX
8
Layer 1
10
76.207048
20
5.483660
70
0
0
VERTEX
8
Layer 1
10
76.207312
20
5.483396
70
0
0
VERTEX
8
Layer 1
10
76.201491
20
5.494773
70
0
0
VERTEX
8
Layer 1
10
76.203608
20
5.490645
70
0
0
VERTEX
8
Layer 1
10
76.203608
20
5.490645
70
0
0
SEQEND
8
Layer 1
0
POLYLINE
8
Layer 1
62
7
70
1
10
0.000000
20
0.000000
66
1
0
VERTEX
8
Layer 1
10
18.679983
20
8.477523
70
0
0
VERTEX
8
Layer 1
10
18.737345
20
7.892027
70
0
0
VERTEX
8
Layer 1
10
18.863419
20
8.058953
70
0
0
VERTEX
8
Layer 1
10
19.075032
20
8.225084
70
0
0
VERTEX
8
Layer 1
10
18.801665
20
8.354016
70
0
0
VERTEX
8
Layer 1
10
18.679983
20
8.477523
70
0
0
VERTEX
8
Layer 1
10
18.679983
20
8.477523
70
0
0
SEQEND
8
Layer 1
0
POLYLINE
8
Layer 1
62
7
70
1
10
0.000000
20
0.000000
66
1
0
VERTEX
8
Layer 1
10
13.863726
20
8.217067
70
0
0
VERTEX
8
Layer 1
10
13.767100
20
8.204923
70
0
0
VERTEX
8
Layer 1
10
13.776149
20
8.198996
70
0
0
VERTEX
8
Layer 1
10
13.863726
20
8.217067
70
0
0
VERTEX
8
Layer 1
10
13.863726
20
8.217067
70
0
0
SEQEND
8
Layer 1
0
POLYLINE
8
Layer 1
62
7
70
1
10
0.000000
20
0.000000
66
1
0
VERTEX
8
Layer 1
10
14.354924
20
8.571318
70
0
0
VERTEX
8
Layer 1
10
14.172759
20
8.354016
70
0
0
VERTEX
8
Layer 1
10
13.875632
20
8.219396
70
0
0
VERTEX
8
Layer 1
10
14.536058
20
8.355312
70
0
0
VERTEX
8
Layer 1
10
14.354924
20
8.571318
70
0
0
VERTEX
8
Layer 1
10
14.354924
20
8.571318
70
0
0
SEQEND
8
Layer 1
0
POLYLINE
8
Layer 1
62
7
70
1
10
0.000000
20
0.000000
66
1
0
VERTEX
8
Layer 1
10
2.976559
20
13.127357
70
0
0
VERTEX
8
Layer 1
10
2.023922
20
12.954625
70
0
0
VERTEX
8
Layer 1
10
1.245990
20
12.483567
70
0
0
VERTEX
8
Layer 1
10
0.721494
20
11.784892
70
0
0
VERTEX
8
Layer 1
10
0.529166
20
10.929308
70
0
0
VERTEX
8
Layer 1
10
0.532267
20
10.816146
70
0
0
VERTEX
8
Layer 1
10
0.757725
20
10.000433
70
0
0
VERTEX
8
Layer 1
10
1.287987
20
9.338192
70
0
0
VERTEX
8
Layer 1
10
2.051462
20
8.893705
70
0
0
VERTEX
8
Layer 1
10
2.976559
20
8.731258
70
0
0
VERTEX
8
Layer 1
10
2.976559
20
10.054173
70
0
0
VERTEX
8
Layer 1
10
2.480959
20
10.141241
70
0
0
VERTEX
8
Layer 1
10
2.129967
20
10.359284
70
0
0
VERTEX
8
Layer 1
10
1.852081
20
10.929308
70
0
0
VERTEX
8
Layer 1
10
2.129956
20
11.499342
70
0
0
VERTEX
8
Layer 1
10
2.480950
20
11.717378
70
0
0
VERTEX
8
Layer 1
10
2.976559
20
11.804442
70
0
0
VERTEX
8
Layer 1
10
2.976559
20
12.069025
70
0
0
VERTEX
8
Layer 1
10
2.384892
20
11.963405
70
0
0
VERTEX
8
Layer 1
10
1.949028
20
11.692395
70
0
0
VERTEX
8
Layer 1
10
1.679664
20
11.324770
70
0
0
VERTEX
8
Layer 1
10
1.587498
20
10.929308
70
0
0
VERTEX
8
Layer 1
10
1.670634
20
10.553973
70
0
0
VERTEX
8
Layer 1
10
1.913912
20
10.200683
70
0
0
VERTEX
8
Layer 1
10
2.308175
20
9.928131
70
0
0
VERTEX
8
Layer 1
10
2.844267
20
9.795014
70
0
0
VERTEX
8
Layer 1
10
2.844267
20
8.999704
70
0
0
VERTEX
8
Layer 1
10
2.055879
20
9.175546
70
0
0
VERTEX
8
Layer 1
10
1.417808
20
9.576736
70
0
0
VERTEX
8
Layer 1
10
0.981047
20
10.146881
70
0
0
VERTEX
8
Layer 1
10
0.796591
20
10.829586
70
0
0
VERTEX
8
Layer 1
10
0.793749
20
10.933197
70
0
0
VERTEX
8
Layer 1
10
0.962631
20
11.673498
70
0
0
VERTEX
8
Layer 1
10
1.424238
20
12.288034
70
0
0
VERTEX
8
Layer 1
10
2.116303
20
12.707546
70
0
0
VERTEX
8
Layer 1
10
2.976559
20
12.862774
70
0
0
VERTEX
8
Layer 1
10
7.871344
20
12.862774
70
0
0
VERTEX
8
Layer 1
10
8.731595
20
12.707546
70
0
0
VERTEX
8
Layer 1
10
9.423659
20
12.288034
70
0
0
VERTEX
8
Layer 1
10
9.885269
20
11.673498
70
0
0
VERTEX
8
Layer 1
10
10.054154
20
10.933197
70
0
0
VERTEX
8
Layer 1
10
10.051323
20
10.829586
70
0
0
VERTEX
8
Layer 1
10
9.854309
20
10.122264
70
0
0
VERTEX
8
Layer 1
10
9.387210
20
9.538669
70
0
0
VERTEX
8
Layer 1
10
8.707172
20
9.142097
70
0
0
VERTEX
8
Layer 1
10
7.871344
20
8.995841
70
0
0
VERTEX
8
Layer 1
10
7.871344
20
8.731258
70
0
0
VERTEX
8
Layer 1
10
8.796443
20
8.893705
70
0
0
VERTEX
8
Layer 1
10
9.559920
20
9.338192
70
0
0
VERTEX
8
Layer 1
10
10.090183
20
10.000433
70
0
0
VERTEX
8
Layer 1
10
10.315641
20
10.816146
70
0
0
VERTEX
8
Layer 1
10
10.318737
20
10.929308
70
0
0
VERTEX
8
Layer 1
10
10.126407
20
11.784892
70
0
0
VERTEX
8
Layer 1
10
9.601909
20
12.483567
70
0
0
VERTEX
8
Layer 1
10
8.823976
20
12.954625
70
0
0
VERTEX
8
Layer 1
10
7.871344
20
13.127357
70
0
0
VERTEX
8
Layer 1
10
2.976559
20
13.127357
70
0
0
VERTEX
8
Layer 1
10
2.976559
20
13.127357
70
0
0
SEQEND
8
Layer 1
0
POLYLINE
8
Layer 1
62
7
70
1
10
0.000000
20
0.000000
66
1
0
VERTEX
8
Layer 1
10
2.976559
20
12.069025
70
0
0
VERTEX
8
Layer 1
10
2.976559
20
11.804442
70
0
0
VERTEX
8
Layer 1
10
5.275891
20
11.804442
70
0
0
VERTEX
8
Layer 1
10
5.121904
20
11.002438
70
0
0
VERTEX
8
Layer 1
10
5.120872
20
10.929308
70
0
0
VERTEX
8
Layer 1
10
5.121904
20
10.856177
70
0
0
VERTEX
8
Layer 1
10
5.275891
20
10.054173
70
0
0
VERTEX
8
Layer 1
10
2.976559
20
10.054173
70
0
0
VERTEX
8
Layer 1
10
2.976559
20
8.731258
70
0
0
VERTEX
8
Layer 1
10
7.871344
20
8.731258
70
0
0
VERTEX
8
Layer 1
10
7.871344
20
8.995841
70
0
0
VERTEX
8
Layer 1
10
3.108850
20
8.995841
70
0
0
VERTEX
8
Layer 1
10
3.108850
20
9.789590
70
0
0
VERTEX
8
Layer 1
10
5.655991
20
9.789590
70
0
0
VERTEX
8
Layer 1
10
5.523937
20
10.146169
70
0
0
VERTEX
8
Layer 1
10
5.390879
20
10.767833
70
0
0
VERTEX
8
Layer 1
10
5.386487
20
10.863427
70
0
0
VERTEX
8
Layer 1
10
5.385455
20
10.925683
70
0
0
VERTEX
8
Layer 1
10
5.386487
20
10.995189
70
0
0
VERTEX
8
Layer 1
10
5.523937
20
11.712473
70
0
0
VERTEX
8
Layer 1
10
5.655991
20
12.069025
70
0
0
VERTEX
8
Layer 1
10
2.976559
20
12.069025
70
0
0
VERTEX
8
Layer 1
10
2.976559
20
12.069025
70
0
0
SEQEND
8
Layer 1
0
POLYLINE
8
Layer 1
62
7
70
1
10
0.000000
20
0.000000
66
1
0
VERTEX
8
Layer 1
10
12.848045
20
20.017363
70
0
0
VERTEX
8
Layer 1
10
12.577244
20
19.890258
70
0
0
VERTEX
8
Layer 1
10
10.579193
20
17.045461
70
0
0
VERTEX
8
Layer 1
10
10.494447
20
16.791488
70
0
0
VERTEX
8
Layer 1
10
10.494447
20
8.942871
70
0
0
VERTEX
8
Layer 1
10
10.497807
20
8.893262
70
0
0
VERTEX
8
Layer 1
10
10.706060
20
8.731258
70
0
0
VERTEX
8
Layer 1
10
13.703283
20
8.731258
70
0
0
VERTEX
8
Layer 1
10
13.911536
20
8.893262
70
0
0
VERTEX
8
Layer 1
10
13.914896
20
8.942871
70
0
0
VERTEX
8
Layer 1
10
13.914896
20
12.177293
70
0
0
VERTEX
8
Layer 1
10
14.795455
20
12.177293
70
0
0
VERTEX
8
Layer 1
10
14.795455
20
8.942871
70
0
0
VERTEX
8
Layer 1
10
14.798815
20
8.893262
70
0
0
VERTEX
8
Layer 1
10
15.007068
20
8.731258
70
0
0
VERTEX
8
Layer 1
10
18.004318
20
8.731258
70
0
0
VERTEX
8
Layer 1
10
18.212809
20
8.893262
70
0
0
VERTEX
8
Layer 1
10
18.215931
20
8.942871
70
0
0
VERTEX
8
Layer 1
10
18.215931
20
16.791488
70
0
0
VERTEX
8
Layer 1
10
18.131423
20
17.045461
70
0
0
VERTEX
8
Layer 1
10
16.116306
20
19.890258
70
0
0
VERTEX
8
Layer 1
10
15.845267
20
20.017363
70
0
0
VERTEX
8
Layer 1
10
12.848045
20
20.017363
70
0
0
VERTEX
8
Layer 1
10
12.848045
20
20.017363
70
0
0
SEQEND
8
Layer 1
0
POLYLINE
8
Layer 1
62
7
70
1
10
0.000000
20
0.000000
66
1
0
VERTEX
8
Layer 1
10
30.178072
20
18.044633
70
0
0
VERTEX
8
Layer 1
10
29.966406
20
17.833019
70
0
0
VERTEX
8
Layer 1
10
29.966406
20
8.942871
70
0
0
VERTEX
8
Layer 1
10
29.969581
20
8.893262
70
0
0
VERTEX
8
Layer 1
10
30.178072
20
8.731258
70
0
0
VERTEX
8
Layer 1
10
32.794005
20
8.731258
70
0
0
VERTEX
8
Layer 1
10
33.002496
20
8.893262
70
0
0
VERTEX
8
Layer 1
10
33.005671
20
8.942871
70
0
0
VERTEX
8
Layer 1
10
33.005671
20
13.735078
70
0
0
VERTEX
8
Layer 1
10
34.572267
20
14.818731
70
0
0
VERTEX
8
Layer 1
10
34.665400
20
14.912023
70
0
0
VERTEX
8
Layer 1
10
34.690535
20
15.098316
70
0
0
VERTEX
8
Layer 1
10
34.690535
20
17.833019
70
0
0
VERTEX
8
Layer 1
10
34.478869
20
18.044633
70
0
0
VERTEX
8
Layer 1
10
33.801801
20
18.044633
70
0
0
VERTEX
8
Layer 1
10
33.766082
20
18.043071
70
0
0
VERTEX
8
Layer 1
10
33.539335
20
17.943086
70
0
0
VERTEX
8
Layer 1
10
32.989002
20
17.409527
70
0
0
VERTEX
8
Layer 1
10
32.514869
20
17.900699
70
0
0
VERTEX
8
Layer 1
10
32.271189
20
18.042304
70
0
0
VERTEX
8
Layer 1
10
32.235470
20
18.044633
70
0
0
VERTEX
8
Layer 1
10
30.178072
20
18.044633
70
0
0
VERTEX
8
Layer 1
10
30.178072
20
18.044633
70
0
0
SEQEND
8
Layer 1
0
POLYLINE
8
Layer 1
62
7
70
1
10
0.000000
20
0.000000
66
1
0
VERTEX
8
Layer 1
10
37.350918
20
18.044633
70
0
0
VERTEX
8
Layer 1
10
37.302763
20
18.042304
70
0
0
VERTEX
8
Layer 1
10
37.012251
20
17.900699
70
0
0
VERTEX
8
Layer 1
10
35.318656
20
16.207289
70
0
0
VERTEX
8
Layer 1
10
35.183454
20
15.868543
70
0
0
VERTEX
8
Layer 1
10
35.183454
20
10.907083
70
0
0
VERTEX
8
Layer 1
10
35.185306
20
10.857473
70
0
0
VERTEX
8
Layer 1
10
35.318656
20
10.568602
70
0
0
VERTEX
8
Layer 1
10
37.012251
20
8.875165
70
0
0
VERTEX
8
Layer 1
10
37.048764
20
8.841325
70
0
0
VERTEX
8
Layer 1
10
37.302763
20
8.733586
70
0
0
VERTEX
8
Layer 1
10
37.350918
20
8.731258
70
0
0
VERTEX
8
Layer 1
10
39.924516
20
8.731258
70
0
0
VERTEX
8
Layer 1
10
39.924516
20
8.995841
70
0
0
VERTEX
8
Layer 1
10
37.358061
20
8.995841
70
0
0
VERTEX
8
Layer 1
10
37.324195
20
8.997640
70
0
0
VERTEX
8
Layer 1
10
37.220478
20
9.043122
70
0
0
VERTEX
8
Layer 1
10
37.194549
20
9.066908
70
0
0
VERTEX
8
Layer 1
10
35.505716
20
10.755688
70
0
0
VERTEX
8
Layer 1
10
35.449095
20
10.879434
70
0
0
VERTEX
8
Layer 1
10
35.448037
20
10.913803
70
0
0
VERTEX
8
Layer 1
10
35.448037
20
15.868543
70
0
0
VERTEX
8
Layer 1
10
35.505716
20
16.020202
70
0
0
VERTEX
8
Layer 1
10
37.199311
20
17.713639
70
0
0
VERTEX
8
Layer 1
10
37.231855
20
17.741817
70
0
0
VERTEX
8
Layer 1
10
37.324459
20
17.778488
70
0
0
VERTEX
8
Layer 1
10
37.358061
20
17.780050
70
0
0
VERTEX
8
Layer 1
10
39.924516
20
17.780050
70
0
0
VERTEX
8
Layer 1
10
40.076387
20
17.713639
70
0
0
VERTEX
8
Layer 1
10
41.769454
20
16.020202
70
0
0
VERTEX
8
Layer 1
10
41.827662
20
15.868543
70
0
0
VERTEX
8
Layer 1
10
41.827662
20
10.907083
70
0
0
VERTEX
8
Layer 1
10
41.826604
20
10.882291
70
0
0
VERTEX
8
Layer 1
10
41.769454
20
10.755688
70
0
0
VERTEX
8
Layer 1
10
40.081414
20
9.067675
70
0
0
VERTEX
8
Layer 1
10
40.053897
20
9.042355
70
0
0
VERTEX
8
Layer 1
10
39.924516
20
8.995841
70
0
0
VERTEX
8
Layer 1
10
39.924516
20
8.731258
70
0
0
VERTEX
8
Layer 1
10
40.226406
20
8.841325
70
0
0
VERTEX
8
Layer 1
10
40.263447
20
8.875165
70
0
0
VERTEX
8
Layer 1
10
41.956514
20
10.568602
70
0
0
VERTEX
8
Layer 1
10
42.092245
20
10.907083
70
0
0
VERTEX
8
Layer 1
10
42.092245
20
15.868543
70
0
0
VERTEX
8
Layer 1
10
41.956514
20
16.207289
70
0
0
VERTEX
8
Layer 1
10
40.263447
20
17.900699
70
0
0
VERTEX
8
Layer 1
10
39.924516
20
18.044633
70
0
0
VERTEX
8
Layer 1
10
37.350918
20
18.044633
70
0
0
VERTEX
8
Layer 1
10
37.350918
20
18.044633
70
0
0
SEQEND
8
Layer 1
0
POLYLINE
8
Layer 1
62
7
70
1
10
0.000000
20
0.000000
66
1
0
VERTEX
8
Layer 1
10
43.192116
20
18.044633
70
0
0
VERTEX
8
Layer 1
10
43.142639
20
18.041272
70
0
0
VERTEX
8
Layer 1
10
42.980450
20
17.833019
70
0
0
VERTEX
8
Layer 1
10
42.980450
20
8.942871
70
0
0
VERTEX
8
Layer 1
10
42.983625
20
8.893262
70
0
0
VERTEX
8
Layer 1
10
43.142639
20
8.734618
70
0
0
VERTEX
8
Layer 1
10
43.192116
20
8.731258
70
0
0
VERTEX
8
Layer 1
10
45.808313
20
8.731258
70
0
0
VERTEX
8
Layer 1
10
46.016805
20
8.893262
70
0
0
VERTEX
8
Layer 1
10
46.019980
20
8.942871
70
0
0
VERTEX
8
Layer 1
10
46.019980
20
15.072730
70
0
0
VERTEX
8
Layer 1
10
46.485646
20
15.072730
70
0
0
VERTEX
8
Layer 1
10
46.485646
20
16.395645
70
0
0
VERTEX
8
Layer 1
10
44.697065
20
16.395645
70
0
0
VERTEX
8
Layer 1
10
44.697065
20
10.054173
70
0
0
VERTEX
8
Layer 1
10
44.303365
20
10.054173
70
0
0
VERTEX
8
Layer 1
10
44.303365
20
16.721718
70
0
0
VERTEX
8
Layer 1
10
47.368294
20
16.721718
70
0
0
VERTEX
8
Layer 1
10
48.566326
20
15.524109
70
0
0
VERTEX
8
Layer 1
10
48.566326
20
10.054173
70
0
0
VERTEX
8
Layer 1
10
48.172627
20
10.054173
70
0
0
VERTEX
8
Layer 1
10
48.172627
20
14.717184
70
0
0
VERTEX
8
Layer 1
10
48.078998
20
15.300057
70
0
0
VERTEX
8
Layer 1
10
47.683148
20
15.930297
70
0
0
VERTEX
8
Layer 1
10
47.054631
20
16.308445
70
0
0
VERTEX
8
Layer 1
10
46.485646
20
16.395645
70
0
0
VERTEX
8
Layer 1
10
46.485646
20
15.072730
70
0
0
VERTEX
8
Layer 1
10
46.529566
20
15.071434
70
0
0
VERTEX
8
Layer 1
10
46.769709
20
14.972463
70
0
0
VERTEX
8
Layer 1
10
46.849712
20
14.717184
70
0
0
VERTEX
8
Layer 1
10
46.849712
20
8.942871
70
0
0
VERTEX
8
Layer 1
10
46.852887
20
8.893262
70
0
0
VERTEX
8
Layer 1
10
47.061378
20
8.731258
70
0
0
VERTEX
8
Layer 1
10
49.677575
20
8.731258
70
0
0
VERTEX
8
Layer 1
10
49.886066
20
8.893262
70
0
0
VERTEX
8
Layer 1
10
49.889241
20
8.942871
70
0
0
VERTEX
8
Layer 1
10
49.889241
20
15.868543
70
0
0
VERTEX
8
Layer 1
10
49.753775
20
16.207289
70
0
0
VERTEX
8
Layer 1
10
48.060444
20
17.900699
70
0
0
VERTEX
8
Layer 1
10
47.769667
20
18.042304
70
0
0
VERTEX
8
Layer 1
10
47.721777
20
18.044633
70
0
0
VERTEX
8
Layer 1
10
43.192116
20
18.044633
70
0
0
VERTEX
8
Layer 1
10
43.192116
20
18.044633
70
0
0
SEQEND
8
Layer 1
0
POLYLINE
8
Layer 1
62
7
70
1
10
0.000000
20
0.000000
66
1
0
VERTEX
8
Layer 1
10
52.944646
20
18.044633
70
0
0
VERTEX
8
Layer 1
10
52.896756
20
18.042304
70
0
0
VERTEX
8
Layer 1
10
52.605980
20
17.900699
70
0
0
VERTEX
8
Layer 1
10
50.912648
20
16.207289
70
0
0
VERTEX
8
Layer 1
10
50.777182
20
15.868543
70
0
0
VERTEX
8
Layer 1
10
50.777182
20
10.907083
70
0
0
VERTEX
8
Layer 1
10
50.912648
20
10.568602
70
0
0
VERTEX
8
Layer 1
10
52.605980
20
8.875165
70
0
0
VERTEX
8
Layer 1
10
52.642757
20
8.841325
70
0
0
VERTEX
8
Layer 1
10
52.896756
20
8.733586
70
0
0
VERTEX
8
Layer 1
10
52.944646
20
8.731258
70
0
0
VERTEX
8
Layer 1
10
53.884445
20
8.731258
70
0
0
VERTEX
8
Layer 1
10
53.932334
20
8.733586
70
0
0
VERTEX
8
Layer 1
10
54.186334
20
8.841325
70
0
0
VERTEX
8
Layer 1
10
54.223111
20
8.875165
70
0
0
VERTEX
8
Layer 1
10
54.646444
20
9.298418
70
0
0
VERTEX
8
Layer 1
10
55.069776
20
8.875165
70
0
0
VERTEX
8
Layer 1
10
55.205243
20
8.765098
70
0
0
VERTEX
8
Layer 1
10
55.245989
20
8.750387
70
0
0
VERTEX
8
Layer 1
10
55.399976
20
8.731258
70
0
0
VERTEX
8
Layer 1
10
55.399976
20
8.995841
70
0
0
VERTEX
8
Layer 1
10
55.323512
20
9.003858
70
0
0
VERTEX
8
Layer 1
10
55.317162
20
9.006186
70
0
0
VERTEX
8
Layer 1
10
55.267420
20
9.050874
70
0
0
VERTEX
8
Layer 1
10
55.262128
20
9.056827
70
0
0
VERTEX
8
Layer 1
10
54.646444
20
9.672538
70
0
0
VERTEX
8
Layer 1
10
54.041342
20
9.067675
70
0
0
VERTEX
8
Layer 1
10
54.014355
20
9.043122
70
0
0
VERTEX
8
Layer 1
10
53.910638
20
8.997640
70
0
0
VERTEX
8
Layer 1
10
53.877036
20
8.995841
70
0
0
VERTEX
8
Layer 1
10
52.952054
20
8.995841
70
0
0
VERTEX
8
Layer 1
10
52.918187
20
8.997640
70
0
0
VERTEX
8
Layer 1
10
52.814206
20
9.043122
70
0
0
VERTEX
8
Layer 1
10
52.788542
20
9.066908
70
0
0
VERTEX
8
Layer 1
10
51.099709
20
10.755688
70
0
0
VERTEX
8
Layer 1
10
51.041765
20
10.907083
70
0
0
VERTEX
8
Layer 1
10
51.041765
20
15.868543
70
0
0
VERTEX
8
Layer 1
10
51.099709
20
16.020202
70
0
0
VERTEX
8
Layer 1
10
52.793040
20
17.713639
70
0
0
VERTEX
8
Layer 1
10
52.825583
20
17.741817
70
0
0
VERTEX
8
Layer 1
10
52.918452
20
17.778488
70
0
0
VERTEX
8
Layer 1
10
52.952054
20
17.780050
70
0
0
VERTEX
8
Layer 1
10
57.421390
20
17.780050
70
0
0
VERTEX
8
Layer 1
10
57.421390
20
8.995841
70
0
0
VERTEX
8
Layer 1
10
55.399976
20
8.995841
70
0
0
VERTEX
8
Layer 1
10
55.399976
20
8.731258
70
0
0
VERTEX
8
Layer 1
10
57.474307
20
8.731258
70
0
0
VERTEX
8
Layer 1
10
57.682798
20
8.893262
70
0
0
VERTEX
8
Layer 1
10
57.685973
20
8.942871
70
0
0
VERTEX
8
Layer 1
10
57.685973
20
17.833019
70
0
0
VERTEX
8
Layer 1
10
57.474307
20
18.044633
70
0
0
VERTEX
8
Layer 1
10
52.944646
20
18.044633
70
0
0
VERTEX
8
Layer 1
10
52.944646
20
18.044633
70
0
0
SEQEND
8
Layer 1
0
POLYLINE
8
Layer 1
62
7
70
1
10
0.000000
20
0.000000
66
1
0
VERTEX
8
Layer 1
10
60.555376
20
16.986301
70
0
0
VERTEX
8
Layer 1
10
59.632775
20
16.986301
70
0
0
VERTEX
8
Layer 1
10
59.632775
20
11.142218
70
0
0
VERTEX
8
Layer 1
10
60.985323
20
9.789590
70
0
0
VERTEX
8
Layer 1
10
64.424638
20
9.789590
70
0
0
VERTEX
8
Layer 1
10
64.424638
20
16.986301
70
0
0
VERTEX
8
Layer 1
10
63.502037
20
16.986301
70
0
0
VERTEX
8
Layer 1
10
63.502037
20
10.644828
70
0
0
VERTEX
8
Layer 1
10
61.977774
20
10.644828
70
0
0
VERTEX
8
Layer 1
10
61.977774
20
10.380245
70
0
0
VERTEX
8
Layer 1
10
63.766620
20
10.380245
70
0
0
VERTEX
8
Layer 1
10
63.766620
20
16.721718
70
0
0
VERTEX
8
Layer 1
10
64.160055
20
16.721718
70
0
0
VERTEX
8
Layer 1
10
64.160055
20
10.054173
70
0
0
VERTEX
8
Layer 1
10
61.094861
20
10.054173
70
0
0
VERTEX
8
Layer 1
10
59.897358
20
11.251781
70
0
0
VERTEX
8
Layer 1
10
59.897358
20
16.721718
70
0
0
VERTEX
8
Layer 1
10
60.290793
20
16.721718
70
0
0
VERTEX
8
Layer 1
10
60.290793
20
12.058707
70
0
0
VERTEX
8
Layer 1
10
60.384554
20
11.475844
70
0
0
VERTEX
8
Layer 1
10
60.780536
20
10.845594
70
0
0
VERTEX
8
Layer 1
10
61.409020
20
10.467445
70
0
0
VERTEX
8
Layer 1
10
61.977774
20
10.380245
70
0
0
VERTEX
8
Layer 1
10
61.977774
20
10.644828
70
0
0
VERTEX
8
Layer 1
10
61.490379
20
10.719285
70
0
0
VERTEX
8
Layer 1
10
60.965479
20
11.034982
70
0
0
VERTEX
8
Layer 1
10
60.635214
20
11.560755
70
0
0
VERTEX
8
Layer 1
10
60.555376
20
12.058707
70
0
0
VERTEX
8
Layer 1
10
60.555376
20
16.986301
70
0
0
VERTEX
8
Layer 1
10
60.555376
20
16.986301
70
0
0
SEQEND
8
Layer 1
0
POLYLINE
8
Layer 1
62
7
70
1
10
0.000000
20
0.000000
66
1
0
VERTEX
8
Layer 1
10
73.801459
20
20.017363
70
0
0
VERTEX
8
Layer 1
10
73.530526
20
19.890258
70
0
0
VERTEX
8
Layer 1
10
71.532395
20
17.045461
70
0
0
VERTEX
8
Layer 1
10
71.447729
20
16.791488
70
0
0
VERTEX
8
Layer 1
10
71.447729
20
8.942871
70
0
0
VERTEX
8
Layer 1
10
71.451168
20
8.893262
70
0
0
VERTEX
8
Layer 1
10
71.659395
20
8.731258
70
0
0
VERTEX
8
Layer 1
10
74.656591
20
8.731258
70
0
0
VERTEX
8
Layer 1
10
74.864818
20
8.893262
70
0
0
VERTEX
8
Layer 1
10
74.868258
20
8.942871
70
0
0
VERTEX
8
Layer 1
10
74.868258
20
12.177293
70
0
0
VERTEX
8
Layer 1
10
75.748790
20
12.177293
70
0
0
VERTEX
8
Layer 1
10
75.748790
20
8.942871
70
0
0
VERTEX
8
Layer 1
10
75.752230
20
8.893262
70
0
0
VERTEX
8
Layer 1
10
75.960456
20
8.731258
70
0
0
VERTEX
8
Layer 1
10
78.957653
20
8.731258
70
0
0
VERTEX
8
Layer 1
10
79.166144
20
8.893262
70
0
0
VERTEX
8
Layer 1
10
79.169319
20
8.942871
70
0
0
VERTEX
8
Layer 1
10
79.169319
20
16.791488
70
0
0
VERTEX
8
Layer 1
10
79.084652
20
17.045461
70
0
0
VERTEX
8
Layer 1
10
77.069588
20
19.890258
70
0
0
VERTEX
8
Layer 1
10
76.798655
20
20.017363
70
0
0
VERTEX
8
Layer 1
10
73.801459
20
20.017363
70
0
0
VERTEX
8
Layer 1
10
73.801459
20
20.017363
70
0
0
SEQEND
8
Layer 1
0
POLYLINE
8
Layer 1
62
7
70
1
10
0.000000
20
0.000000
66
1
0
VERTEX
8
Layer 1
10
82.222607
20
20.017363
70
0
0
VERTEX
8
Layer 1
10
81.883941
20
19.881738
70
0
0
VERTEX
8
Layer 1
10
80.190609
20
18.188539
70
0
0
VERTEX
8
Layer 1
10
80.055143
20
17.849820
70
0
0
VERTEX
8
Layer 1
10
80.055143
20
10.907083
70
0
0
VERTEX
8
Layer 1
10
80.190609
20
10.568602
70
0
0
VERTEX
8
Layer 1
10
81.883941
20
8.875165
70
0
0
VERTEX
8
Layer 1
10
81.920718
20
8.841589
70
0
0
VERTEX
8
Layer 1
10
82.222607
20
8.731258
70
0
0
VERTEX
8
Layer 1
10
82.222607
20
8.995841
70
0
0
VERTEX
8
Layer 1
10
82.121272
20
9.022458
70
0
0
VERTEX
8
Layer 1
10
82.090844
20
9.044418
70
0
0
VERTEX
8
Layer 1
10
82.068620
20
9.064818
70
0
0
VERTEX
8
Layer 1
10
80.377670
20
10.755688
70
0
0
VERTEX
8
Layer 1
10
80.319726
20
10.907083
70
0
0
VERTEX
8
Layer 1
10
80.319726
20
17.849820
70
0
0
VERTEX
8
Layer 1
10
80.354386
20
17.971264
70
0
0
VERTEX
8
Layer 1
10
80.383490
20
18.007168
70
0
0
VERTEX
8
Layer 1
10
82.065445
20
19.688963
70
0
0
VERTEX
8
Layer 1
10
82.222607
20
19.752780
70
0
0
VERTEX
8
Layer 1
10
87.275084
20
19.752780
70
0
0
VERTEX
8
Layer 1
10
87.275084
20
17.047525
70
0
0
VERTEX
8
Layer 1
10
83.763538
20
17.047525
70
0
0
VERTEX
8
Layer 1
10
83.763538
20
16.782942
70
0
0
VERTEX
8
Layer 1
10
87.328000
20
16.782942
70
0
0
VERTEX
8
Layer 1
10
87.539667
20
16.994820
70
0
0
VERTEX
8
Layer 1
10
87.539667
20
19.805750
70
0
0
VERTEX
8
Layer 1
10
87.328000
20
20.017363
70
0
0
VERTEX
8
Layer 1
10
82.222607
20
20.017363
70
0
0
VERTEX
8
Layer 1
10
82.222607
20
20.017363
70
0
0
SEQEND
8
Layer 1
0
POLYLINE
8
Layer 1
62
7
70
1
10
0.000000
20
0.000000
66
1
0
VERTEX
8
Layer 1
10
82.222607
20
8.995841
70
0
0
VERTEX
8
Layer 1
10
82.222607
20
8.731258
70
0
0
VERTEX
8
Layer 1
10
85.905602
20
8.731258
70
0
0
VERTEX
8
Layer 1
10
85.905602
20
8.995841
70
0
0
VERTEX
8
Layer 1
10
82.222607
20
8.995841
70
0
0
VERTEX
8
Layer 1
10
82.222607
20
8.995841
70
0
0
SEQEND
8
Layer 1
0
POLYLINE
8
Layer 1
62
7
70
1
10
0.000000
20
0.000000
66
1
0
VERTEX
8
Layer 1
10
82.457821
20
18.959031
70
0
0
VERTEX
8
Layer 1
10
81.113475
20
17.614685
70
0
0
VERTEX
8
Layer 1
10
81.113475
20
11.142218
70
0
0
VERTEX
8
Layer 1
10
82.466288
20
9.789590
70
0
0
VERTEX
8
Layer 1
10
85.662186
20
9.789590
70
0
0
VERTEX
8
Layer 1
10
87.023201
20
11.151002
70
0
0
VERTEX
8
Layer 1
10
87.023201
20
14.810211
70
0
0
VERTEX
8
Layer 1
10
86.108802
20
14.810211
70
0
0
VERTEX
8
Layer 1
10
86.108802
20
10.907083
70
0
0
VERTEX
8
Layer 1
10
83.763538
20
10.907083
70
0
0
VERTEX
8
Layer 1
10
83.763538
20
10.642500
70
0
0
VERTEX
8
Layer 1
10
86.140816
20
10.642500
70
0
0
VERTEX
8
Layer 1
10
85.552648
20
10.054173
70
0
0
VERTEX
8
Layer 1
10
82.575825
20
10.054173
70
0
0
VERTEX
8
Layer 1
10
81.378058
20
11.251781
70
0
0
VERTEX
8
Layer 1
10
81.378058
20
17.505121
70
0
0
VERTEX
8
Layer 1
10
82.567358
20
18.694448
70
0
0
VERTEX
8
Layer 1
10
86.216752
20
18.694448
70
0
0
VERTEX
8
Layer 1
10
86.216752
20
18.105857
70
0
0
VERTEX
8
Layer 1
10
83.763538
20
18.105857
70
0
0
VERTEX
8
Layer 1
10
83.181059
20
17.997593
70
0
0
VERTEX
8
Layer 1
10
82.682717
20
17.688848
70
0
0
VERTEX
8
Layer 1
10
82.624773
20
17.633814
70
0
0
VERTEX
8
Layer 1
10
82.270992
20
17.108826
70
0
0
VERTEX
8
Layer 1
10
82.152757
20
16.503648
70
0
0
VERTEX
8
Layer 1
10
82.152757
20
12.245000
70
0
0
VERTEX
8
Layer 1
10
82.283593
20
11.613797
70
0
0
VERTEX
8
Layer 1
10
82.624773
20
11.114833
70
0
0
VERTEX
8
Layer 1
10
83.144546
20
10.765537
70
0
0
VERTEX
8
Layer 1
10
83.763538
20
10.642500
70
0
0
VERTEX
8
Layer 1
10
83.763538
20
10.907083
70
0
0
VERTEX
8
Layer 1
10
83.246411
20
11.009734
70
0
0
VERTEX
8
Layer 1
10
82.811833
20
11.301894
70
0
0
VERTEX
8
Layer 1
10
82.526183
20
11.719482
70
0
0
VERTEX
8
Layer 1
10
82.417340
20
12.245000
70
0
0
VERTEX
8
Layer 1
10
82.417340
20
16.503648
70
0
0
VERTEX
8
Layer 1
10
82.515103
20
17.006716
70
0
0
VERTEX
8
Layer 1
10
82.807335
20
17.442098
70
0
0
VERTEX
8
Layer 1
10
82.865014
20
17.497131
70
0
0
VERTEX
8
Layer 1
10
83.279649
20
17.752040
70
0
0
VERTEX
8
Layer 1
10
83.763538
20
17.841274
70
0
0
VERTEX
8
Layer 1
10
86.481335
20
17.841274
70
0
0
VERTEX
8
Layer 1
10
86.481335
20
18.959031
70
0
0
VERTEX
8
Layer 1
10
82.457821
20
18.959031
70
0
0
VERTEX
8
Layer 1
10
82.457821
20
18.959031
70
0
0
SEQEND
8
Layer 1
0
POLYLINE
8
Layer 1
62
7
70
1
10
0.000000
20
0.000000
66
1
0
VERTEX
8
Layer 1
10
15.845267
20
19.752780
70
0
0
VERTEX
8
Layer 1
10
15.893845
20
19.746086
70
0
0
VERTEX
8
Layer 1
10
15.894347
20
19.745822
70
0
0
VERTEX
8
Layer 1
10
15.896173
20
19.743494
70
0
0
VERTEX
8
Layer 1
10
15.900301
20
19.737302
70
0
0
VERTEX
8
Layer 1
10
17.915418
20
16.892506
70
0
0
VERTEX
8
Layer 1
10
17.916185
20
16.891739
70
0
0
VERTEX
8
Layer 1
10
17.951348
20
16.791488
70
0
0
VERTEX
8
Layer 1
10
17.951348
20
8.995841
70
0
0
VERTEX
8
Layer 1
10
15.060038
20
8.995841
70
0
0
VERTEX
8
Layer 1
10
15.060038
20
12.441876
70
0
0
VERTEX
8
Layer 1
10
13.650313
20
12.441876
70
0
0
VERTEX
8
Layer 1
10
13.650313
20
8.995841
70
0
0
VERTEX
8
Layer 1
10
10.759030
20
8.995841
70
0
0
VERTEX
8
Layer 1
10
10.759030
20
16.791488
70
0
0
VERTEX
8
Layer 1
10
10.794431
20
16.891739
70
0
0
VERTEX
8
Layer 1
10
10.795701
20
16.893273
70
0
0
VERTEX
8
Layer 1
10
12.790683
20
19.733677
70
0
0
VERTEX
8
Layer 1
10
12.803859
20
19.746086
70
0
0
VERTEX
8
Layer 1
10
12.848045
20
19.752780
70
0
0
VERTEX
8
Layer 1
10
15.845267
20
19.752780
70
0
0
VERTEX
8
Layer 1
10
15.845267
20
19.752780
70
0
0
SEQEND
8
Layer 1
0
POLYLINE
8
Layer 1
62
7
70
1
10
0.000000
20
0.000000
66
1
0
VERTEX
8
Layer 1
10
27.209451
20
16.402101
70
0
0
VERTEX
8
Layer 1
10
28.242383
20
16.402101
70
0
0
VERTEX
8
Layer 1
10
28.242383
20
16.986301
70
0
0
VERTEX
8
Layer 1
10
27.209451
20
16.986301
70
0
0
VERTEX
8
Layer 1
10
27.209451
20
18.256246
70
0
0
VERTEX
8
Layer 1
10
26.286480
20
18.256246
70
0
0
VERTEX
8
Layer 1
10
26.286480
20
16.986301
70
0
0
VERTEX
8
Layer 1
10
25.719320
20
16.986301
70
0
0
VERTEX
8
Layer 1
10
25.719320
20
16.402101
70
0
0
VERTEX
8
Layer 1
10
26.286480
20
16.402101
70
0
0
VERTEX
8
Layer 1
10
26.286480
20
10.855674
70
0
0
VERTEX
8
Layer 1
10
27.358941
20
9.789590
70
0
0
VERTEX
8
Layer 1
10
28.225450
20
9.789590
70
0
0
VERTEX
8
Layer 1
10
28.225450
20
10.172521
70
0
0
VERTEX
8
Layer 1
10
27.606855
20
10.791090
70
0
0
VERTEX
8
Layer 1
10
27.591774
20
10.807361
70
0
0
VERTEX
8
Layer 1
10
27.591509
20
10.807626
70
0
0
VERTEX
8
Layer 1
10
27.302254
20
11.276417
70
0
0
VERTEX
8
Layer 1
10
27.209451
20
11.796187
70
0
0
VERTEX
8
Layer 1
10
27.209451
20
16.402101
70
0
0
VERTEX
8
Layer 1
10
27.209451
20
16.402101
70
0
0
SEQEND
8
Layer 1
0
POLYLINE
8
Layer 1
62
7
70
1
10
0.000000
20
0.000000
66
1
0
VERTEX
8
Layer 1
10
32.226209
20
17.780050
70
0
0
VERTEX
8
Layer 1
10
32.240497
20
17.779282
70
0
0
VERTEX
8
Layer 1
10
32.321988
20
17.719328
70
0
0
VERTEX
8
Layer 1
10
32.324370
20
17.716999
70
0
0
VERTEX
8
Layer 1
10
32.982652
20
17.034878
70
0
0
VERTEX
8
Layer 1
10
33.714489
20
17.744648
70
0
0
VERTEX
8
Layer 1
10
33.787778
20
17.779282
70
0
0
VERTEX
8
Layer 1
10
33.807093
20
17.780050
70
0
0
VERTEX
8
Layer 1
10
34.425952
20
17.780050
70
0
0
VERTEX
8
Layer 1
10
34.425952
20
15.098316
70
0
0
VERTEX
8
Layer 1
10
34.423571
20
15.037594
70
0
0
VERTEX
8
Layer 1
10
34.421719
20
15.036297
70
0
0
VERTEX
8
Layer 1
10
32.741088
20
13.873825
70
0
0
VERTEX
8
Layer 1
10
32.741088
20
8.995841
70
0
0
VERTEX
8
Layer 1
10
30.230989
20
8.995841
70
0
0
VERTEX
8
Layer 1
10
30.230989
20
17.780050
70
0
0
VERTEX
8
Layer 1
10
32.226209
20
17.780050
70
0
0
VERTEX
8
Layer 1
10
32.226209
20
17.780050
70
0
0
SEQEND
8
Layer 1
0
POLYLINE
8
Layer 1
62
7
70
1
10
0.000000
20
0.000000
66
1
0
VERTEX
8
Layer 1
10
47.714369
20
17.780050
70
0
0
VERTEX
8
Layer 1
10
47.747707
20
17.778488
70
0
0
VERTEX
8
Layer 1
10
47.873119
20
17.713639
70
0
0
VERTEX
8
Layer 1
10
49.566715
20
16.020202
70
0
0
VERTEX
8
Layer 1
10
49.624658
20
15.868543
70
0
0
VERTEX
8
Layer 1
10
49.624658
20
8.995841
70
0
0
VERTEX
8
Layer 1
10
47.114295
20
8.995841
70
0
0
VERTEX
8
Layer 1
10
47.114295
20
14.717184
70
0
0
VERTEX
8
Layer 1
10
47.112443
20
14.774043
70
0
0
VERTEX
8
Layer 1
10
46.966128
20
15.149989
70
0
0
VERTEX
8
Layer 1
10
46.617937
20
15.327497
70
0
0
VERTEX
8
Layer 1
10
46.617937
20
16.125638
70
0
0
VERTEX
8
Layer 1
10
47.052515
20
16.028146
70
0
0
VERTEX
8
Layer 1
10
47.498205
20
15.740908
70
0
0
VERTEX
8
Layer 1
10
47.828338
20
15.215146
70
0
0
VERTEX
8
Layer 1
10
47.908044
20
14.717184
70
0
0
VERTEX
8
Layer 1
10
47.908044
20
9.789590
70
0
0
VERTEX
8
Layer 1
10
48.830909
20
9.789590
70
0
0
VERTEX
8
Layer 1
10
48.830909
20
15.633673
70
0
0
VERTEX
8
Layer 1
10
47.477832
20
16.986301
70
0
0
VERTEX
8
Layer 1
10
44.038782
20
16.986301
70
0
0
VERTEX
8
Layer 1
10
44.038782
20
9.789590
70
0
0
VERTEX
8
Layer 1
10
44.961648
20
9.789590
70
0
0
VERTEX
8
Layer 1
10
44.961648
20
16.131062
70
0
0
VERTEX
8
Layer 1
10
46.353354
20
16.131062
70
0
0
VERTEX
8
Layer 1
10
46.353354
20
15.337313
70
0
0
VERTEX
8
Layer 1
10
45.755397
20
15.337313
70
0
0
VERTEX
8
Layer 1
10
45.755397
20
8.995841
70
0
0
VERTEX
8
Layer 1
10
43.245033
20
8.995841
70
0
0
VERTEX
8
Layer 1
10
43.245033
20
17.780050
70
0
0
VERTEX
8
Layer 1
10
47.714369
20
17.780050
70
0
0
VERTEX
8
Layer 1
10
47.714369
20
17.780050
70
0
0
SEQEND
8
Layer 1
0
POLYLINE
8
Layer 1
62
7
70
1
10
0.000000
20
0.000000
66
1
0
VERTEX
8
Layer 1
10
68.699241
20
16.402101
70
0
0
VERTEX
8
Layer 1
10
69.732437
20
16.402101
70
0
0
VERTEX
8
Layer 1
10
69.732437
20
16.986301
70
0
0
VERTEX
8
Layer 1
10
68.699241
20
16.986301
70
0
0
VERTEX
8
Layer 1
10
68.699241
20
18.256246
70
0
0
VERTEX
8
Layer 1
10
67.776375
20
18.256246
70
0
0
VERTEX
8
Layer 1
10
67.776375
20
16.986301
70
0
0
VERTEX
8
Layer 1
10
67.209374
20
16.986301
70
0
0
VERTEX
8
Layer 1
10
67.209374
20
16.402101
70
0
0
VERTEX
8
Layer 1
10
67.776375
20
16.402101
70
0
0
VERTEX
8
Layer 1
10
67.776375
20
10.855674
70
0
0
VERTEX
8
Layer 1
10
68.848995
20
9.789590
70
0
0
VERTEX
8
Layer 1
10
69.715239
20
9.789590
70
0
0
VERTEX
8
Layer 1
10
69.715239
20
10.172521
70
0
0
VERTEX
8
Layer 1
10
69.096644
20
10.791090
70
0
0
VERTEX
8
Layer 1
10
69.081828
20
10.807361
70
0
0
VERTEX
8
Layer 1
10
69.081563
20
10.807626
70
0
0
VERTEX
8
Layer 1
10
68.792175
20
11.276368
70
0
0
VERTEX
8
Layer 1
10
68.699241
20
11.796187
70
0
0
VERTEX
8
Layer 1
10
68.699241
20
16.402101
70
0
0
VERTEX
8
Layer 1
10
68.699241
20
16.402101
70
0
0
SEQEND
8
Layer 1
0
POLYLINE
8
Layer 1
62
7
70
1
10
0.000000
20
0.000000
66
1
0
VERTEX
8
Layer 1
10
76.798655
20
19.752780
70
0
0
VERTEX
8
Layer 1
10
76.847074
20
19.746086
70
0
0
VERTEX
8
Layer 1
10
76.847603
20
19.745822
70
0
0
VERTEX
8
Layer 1
10
76.849455
20
19.743494
70
0
0
VERTEX
8
Layer 1
10
76.853689
20
19.737302
70
0
0
VERTEX
8
Layer 1
10
78.868753
20
16.892506
70
0
0
VERTEX
8
Layer 1
10
78.869546
20
16.891739
70
0
0
VERTEX
8
Layer 1
10
78.904736
20
16.791488
70
0
0
VERTEX
8
Layer 1
10
78.904736
20
8.995841
70
0
0
VERTEX
8
Layer 1
10
76.013373
20
8.995841
70
0
0
VERTEX
8
Layer 1
10
76.013373
20
12.441876
70
0
0
VERTEX
8
Layer 1
10
74.603675
20
12.441876
70
0
0
VERTEX
8
Layer 1
10
74.603675
20
8.995841
70
0
0
VERTEX
8
Layer 1
10
71.712312
20
8.995841
70
0
0
VERTEX
8
Layer 1
10
71.712312
20
16.791488
70
0
0
VERTEX
8
Layer 1
10
71.747766
20
16.891739
70
0
0
VERTEX
8
Layer 1
10
71.749089
20
16.893273
70
0
0
VERTEX
8
Layer 1
10
73.744045
20
19.733677
70
0
0
VERTEX
8
Layer 1
10
73.757538
20
19.746086
70
0
0
VERTEX
8
Layer 1
10
73.801459
20
19.752780
70
0
0
VERTEX
8
Layer 1
10
76.798655
20
19.752780
70
0
0
VERTEX
8
Layer 1
10
76.798655
20
19.752780
70
0
0
SEQEND
8
Layer 1
0
POLYLINE
8
Layer 1
62
7
70
1
10
0.000000
20
0.000000
66
1
0
VERTEX
8
Layer 1
10
7.871344
20
12.476245
70
0
0
VERTEX
8
Layer 1
10
7.224221
20
12.358320
70
0
0
VERTEX
8
Layer 1
10
6.685073
20
12.032867
70
0
0
VERTEX
8
Layer 1
10
6.316025
20
11.542368
70
0
0
VERTEX
8
Layer 1
10
6.179204
20
10.929308
70
0
0
VERTEX
8
Layer 1
10
6.316036
20
10.316266
70
0
0
VERTEX
8
Layer 1
10
6.685103
20
9.825861
70
0
0
VERTEX
8
Layer 1
10
7.224255
20
9.500511
70
0
0
VERTEX
8
Layer 1
10
7.871344
20
9.382635
70
0
0
VERTEX
8
Layer 1
10
8.499835
20
9.493436
70
0
0
VERTEX
8
Layer 1
10
9.028352
20
9.800256
70
0
0
VERTEX
8
Layer 1
10
9.400819
20
10.264719
70
0
0
VERTEX
8
Layer 1
10
9.561156
20
10.848451
70
0
0
VERTEX
8
Layer 1
10
9.561686
20
10.856177
70
0
0
VERTEX
8
Layer 1
10
9.563485
20
10.922085
70
0
0
VERTEX
8
Layer 1
10
9.563485
20
10.929308
70
0
0
VERTEX
8
Layer 1
10
9.426663
20
11.542368
70
0
0
VERTEX
8
Layer 1
10
9.057615
20
12.032867
70
0
0
VERTEX
8
Layer 1
10
8.518467
20
12.358320
70
0
0
VERTEX
8
Layer 1
10
7.871344
20
12.476245
70
0
0
VERTEX
8
Layer 1
10
7.871344
20
12.476245
70
0
0
SEQEND
8
Layer 1
0
POLYLINE
8
Layer 1
62
7
70
1
10
0.000000
20
0.000000
66
1
0
VERTEX
8
Layer 1
10
7.871344
20
12.211662
70
0
0
VERTEX
8
Layer 1
10
8.427031
20
12.110879
70
0
0
VERTEX
8
Layer 1
10
8.880795
20
11.836044
70
0
0
VERTEX
8
Layer 1
10
9.186723
20
11.428429
70
0
0
VERTEX
8
Layer 1
10
9.298902
20
10.929308
70
0
0
VERTEX
8
Layer 1
10
9.297103
20
10.863427
70
0
0
VERTEX
8
Layer 1
10
9.165626
20
10.387566
70
0
0
VERTEX
8
Layer 1
10
8.856340
20
10.001253
70
0
0
VERTEX
8
Layer 1
10
8.410996
20
9.741975
70
0
0
VERTEX
8
Layer 1
10
7.871344
20
9.647218
70
0
0
VERTEX
8
Layer 1
10
7.315658
20
9.747964
70
0
0
VERTEX
8
Layer 1
10
6.861894
20
10.022714
70
0
0
VERTEX
8
Layer 1
10
6.555966
20
10.430239
70
0
0
VERTEX
8
Layer 1
10
6.443787
20
10.929308
70
0
0
VERTEX
8
Layer 1
10
6.555966
20
11.428429
70
0
0
VERTEX
8
Layer 1
10
6.861894
20
11.836044
70
0
0
VERTEX
8
Layer 1
10
7.315658
20
12.110879
70
0
0
VERTEX
8
Layer 1
10
7.871344
20
12.211662
70
0
0
VERTEX
8
Layer 1
10
7.871344
20
12.211662
70
0
0
SEQEND
8
Layer 1
0
POLYLINE
8
Layer 1
62
7
70
1
10
0.000000
20
0.000000
66
1
0
VERTEX
8
Layer 1
10
13.216476
20
18.959031
70
0
0
VERTEX
8
Layer 1
10
11.552779
20
16.590722
70
0
0
VERTEX
8
Layer 1
10
11.552779
20
9.789590
70
0
0
VERTEX
8
Layer 1
10
12.856564
20
9.789590
70
0
0
VERTEX
8
Layer 1
10
12.856564
20
13.235625
70
0
0
VERTEX
8
Layer 1
10
15.853787
20
13.235625
70
0
0
VERTEX
8
Layer 1
10
15.853787
20
9.789590
70
0
0
VERTEX
8
Layer 1
10
17.157599
20
9.789590
70
0
0
VERTEX
8
Layer 1
10
17.157599
20
16.589691
70
0
0
VERTEX
8
Layer 1
10
17.109022
20
16.658403
70
0
0
VERTEX
8
Layer 1
10
15.558195
20
18.847430
70
0
0
VERTEX
8
Layer 1
10
15.478873
20
18.959031
70
0
0
VERTEX
8
Layer 1
10
13.216476
20
18.959031
70
0
0
VERTEX
8
Layer 1
10
13.216476
20
18.959031
70
0
0
SEQEND
8
Layer 1
0
POLYLINE
8
Layer 1
62
7
70
1
10
0.000000
20
0.000000
66
1
0
VERTEX
8
Layer 1
10
21.972004
20
11.339623
70
0
0
VERTEX
8
Layer 1
10
20.117859
20
10.348998
70
0
0
VERTEX
8
Layer 1
10
20.117859
20
9.789590
70
0
0
VERTEX
8
Layer 1
10
21.674348
20
9.789590
70
0
0
VERTEX
8
Layer 1
10
22.971175
20
10.943278
70
0
0
VERTEX
8
Layer 1
10
22.971175
20
12.940562
70
0
0
VERTEX
8
Layer 1
10
21.972004
20
13.477216
70
0
0
VERTEX
8
Layer 1
10
21.972004
20
11.339623
70
0
0
VERTEX
8
Layer 1
10
21.972004
20
11.339623
70
0
0
SEQEND
8
Layer 1
0
POLYLINE
8
Layer 1
62
7
70
1
10
0.000000
20
0.000000
66
1
0
VERTEX
8
Layer 1
10
31.024738
20
16.986301
70
0
0
VERTEX
8
Layer 1
10
31.024738
20
9.789590
70
0
0
VERTEX
8
Layer 1
10
31.947339
20
9.789590
70
0
0
VERTEX
8
Layer 1
10
31.947339
20
14.289829
70
0
0
VERTEX
8
Layer 1
10
33.632203
20
15.455635
70
0
0
VERTEX
8
Layer 1
10
33.632203
20
16.559449
70
0
0
VERTEX
8
Layer 1
10
32.963867
20
15.911697
70
0
0
VERTEX
8
Layer 1
10
31.926701
20
16.986301
70
0
0
VERTEX
8
Layer 1
10
31.024738
20
16.986301
70
0
0
VERTEX
8
Layer 1
10
31.024738
20
16.986301
70
0
0
SEQEND
8
Layer 1
0
POLYLINE
8
Layer 1
62
7
70
1
10
0.000000
20
0.000000
66
1
0
VERTEX
8
Layer 1
10
37.594598
20
16.986301
70
0
0
VERTEX
8
Layer 1
10
36.241786
20
15.633408
70
0
0
VERTEX
8
Layer 1
10
36.241786
20
11.142482
70
0
0
VERTEX
8
Layer 1
10
37.594334
20
9.789590
70
0
0
VERTEX
8
Layer 1
10
39.681100
20
9.789590
70
0
0
VERTEX
8
Layer 1
10
41.033913
20
11.142482
70
0
0
VERTEX
8
Layer 1
10
41.033913
20
15.633408
70
0
0
VERTEX
8
Layer 1
10
39.680835
20
16.986301
70
0
0
VERTEX
8
Layer 1
10
37.594598
20
16.986301
70
0
0
VERTEX
8
Layer 1
10
37.594598
20
16.986301
70
0
0
SEQEND
8
Layer 1
0
POLYLINE
8
Layer 1
62
7
70
1
10
0.000000
20
0.000000
66
1
0
VERTEX
8
Layer 1
10
53.188327
20
16.986301
70
0
0
VERTEX
8
Layer 1
10
51.835514
20
15.633408
70
0
0
VERTEX
8
Layer 1
10
51.835514
20
11.142482
70
0
0
VERTEX
8
Layer 1
10
53.188062
20
9.789590
70
0
0
VERTEX
8
Layer 1
10
53.641028
20
9.789590
70
0
0
VERTEX
8
Layer 1
10
54.160934
20
10.310501
70
0
0
VERTEX
8
Layer 1
10
53.732574
20
10.435543
70
0
0
VERTEX
8
Layer 1
10
53.153137
20
10.776855
70
0
0
VERTEX
8
Layer 1
10
53.118741
20
10.811224
70
0
0
VERTEX
8
Layer 1
10
53.088314
20
10.847922
70
0
0
VERTEX
8
Layer 1
10
53.040425
20
10.908644
70
0
0
VERTEX
8
Layer 1
10
52.813876
20
11.380303
70
0
0
VERTEX
8
Layer 1
10
52.758379
20
11.813227
70
0
0
VERTEX
8
Layer 1
10
52.758379
20
14.962664
70
0
0
VERTEX
8
Layer 1
10
52.830346
20
15.442012
70
0
0
VERTEX
8
Layer 1
10
53.128531
20
15.955353
70
0
0
VERTEX
8
Layer 1
10
53.135410
20
15.963105
70
0
0
VERTEX
8
Layer 1
10
53.138850
20
15.966201
70
0
0
VERTEX
8
Layer 1
10
53.147581
20
15.975779
70
0
0
VERTEX
8
Layer 1
10
53.155254
20
15.983531
70
0
0
VERTEX
8
Layer 1
10
53.159487
20
15.987923
70
0
0
VERTEX
8
Layer 1
10
53.163456
20
15.991786
70
0
0
VERTEX
8
Layer 1
10
53.607823
20
16.290480
70
0
0
VERTEX
8
Layer 1
10
54.056953
20
16.396413
70
0
0
VERTEX
8
Layer 1
10
54.056953
20
15.598007
70
0
0
VERTEX
8
Layer 1
10
53.739189
20
15.446083
70
0
0
VERTEX
8
Layer 1
10
53.714847
20
15.421027
70
0
0
VERTEX
8
Layer 1
10
53.552128
20
14.962664
70
0
0
VERTEX
8
Layer 1
10
53.552128
20
11.805739
70
0
0
VERTEX
8
Layer 1
10
53.553451
20
11.760257
70
0
0
VERTEX
8
Layer 1
10
53.553716
20
11.756130
70
0
0
VERTEX
8
Layer 1
10
53.553980
20
11.751738
70
0
0
VERTEX
8
Layer 1
10
53.697914
20
11.355630
70
0
0
VERTEX
8
Layer 1
10
53.705587
20
11.346608
70
0
0
VERTEX
8
Layer 1
10
53.714318
20
11.338062
70
0
0
VERTEX
8
Layer 1
10
54.110928
20
11.169602
70
0
0
VERTEX
8
Layer 1
10
54.115161
20
11.169337
70
0
0
VERTEX
8
Layer 1
10
54.119659
20
11.169337
70
0
0
VERTEX
8
Layer 1
10
54.162786
20
11.167803
70
0
0
VERTEX
8
Layer 1
10
54.167813
20
11.167538
70
0
0
VERTEX
8
Layer 1
10
54.282377
20
11.167538
70
0
0
VERTEX
8
Layer 1
10
54.748044
20
11.346608
70
0
0
VERTEX
8
Layer 1
10
54.748308
20
11.346343
70
0
0
VERTEX
8
Layer 1
10
54.908910
20
11.750203
70
0
0
VERTEX
8
Layer 1
10
54.909175
20
11.754595
70
0
0
VERTEX
8
Layer 1
10
54.909175
20
11.758723
70
0
0
VERTEX
8
Layer 1
10
54.910762
20
11.804204
70
0
0
VERTEX
8
Layer 1
10
54.911027
20
11.808835
70
0
0
VERTEX
8
Layer 1
10
54.911027
20
15.608352
70
0
0
VERTEX
8
Layer 1
10
54.321536
20
15.608352
70
0
0
VERTEX
8
Layer 1
10
54.321536
20
16.402101
70
0
0
VERTEX
8
Layer 1
10
55.704776
20
16.402101
70
0
0
VERTEX
8
Layer 1
10
55.704776
20
11.813227
70
0
0
VERTEX
8
Layer 1
10
55.630924
20
11.325154
70
0
0
VERTEX
8
Layer 1
10
55.338593
20
10.816146
70
0
0
VERTEX
8
Layer 1
10
55.336212
20
10.813553
70
0
0
VERTEX
8
Layer 1
10
55.333301
20
10.810192
70
0
0
VERTEX
8
Layer 1
10
55.184870
20
10.671974
70
0
0
VERTEX
8
Layer 1
10
54.954154
20
10.487216
70
0
0
VERTEX
8
Layer 1
10
55.652124
20
9.789590
70
0
0
VERTEX
8
Layer 1
10
56.627641
20
9.789590
70
0
0
VERTEX
8
Layer 1
10
56.627641
20
16.986301
70
0
0
VERTEX
8
Layer 1
10
53.188327
20
16.986301
70
0
0
VERTEX
8
Layer 1
10
53.188327
20
16.986301
70
0
0
SEQEND
8
Layer 1
0
POLYLINE
8
Layer 1
62
7
70
1
10
0.000000
20
0.000000
66
1
0
VERTEX
8
Layer 1
10
74.169759
20
18.959031
70
0
0
VERTEX
8
Layer 1
10
72.506061
20
16.590722
70
0
0
VERTEX
8
Layer 1
10
72.506061
20
9.789590
70
0
0
VERTEX
8
Layer 1
10
73.809926
20
9.789590
70
0
0
VERTEX
8
Layer 1
10
73.809926
20
13.235625
70
0
0
VERTEX
8
Layer 1
10
76.807122
20
13.235625
70
0
0
VERTEX
8
Layer 1
10
76.807122
20
9.789590
70
0
0
VERTEX
8
Layer 1
10
78.110987
20
9.789590
70
0
0
VERTEX
8
Layer 1
10
78.110987
20
16.339818
70
0
0
VERTEX
8
Layer 1
10
78.232431
20
16.416839
70
0
0
VERTEX
8
Layer 1
10
78.231108
20
16.418902
70
0
0
VERTEX
8
Layer 1
10
78.227404
20
16.424564
70
0
0
VERTEX
8
Layer 1
10
78.225287
20
16.427686
70
0
0
VERTEX
8
Layer 1
10
78.110987
20
16.352757
70
0
0
VERTEX
8
Layer 1
10
78.110987
20
16.589691
70
0
0
VERTEX
8
Layer 1
10
78.062304
20
16.658403
70
0
0
VERTEX
8
Layer 1
10
76.511583
20
18.847430
70
0
0
VERTEX
8
Layer 1
10
76.432208
20
18.959031
70
0
0
VERTEX
8
Layer 1
10
74.169759
20
18.959031
70
0
0
VERTEX
8
Layer 1
10
74.169759
20
18.959031
70
0
0
SEQEND
8
Layer 1
0
POLYLINE
8
Layer 1
62
7
70
1
10
0.000000
20
0.000000
66
1
0
VERTEX
8
Layer 1
10
15.342189
20
18.694448
70
0
0
VERTEX
8
Layer 1
10
16.893016
20
16.505447
70
0
0
VERTEX
8
Layer 1
10
16.893016
20
10.054173
70
0
0
VERTEX
8
Layer 1
10
16.118370
20
10.054173
70
0
0
VERTEX
8
Layer 1
10
16.118370
20
13.500208
70
0
0
VERTEX
8
Layer 1
10
12.591981
20
13.500208
70
0
0
VERTEX
8
Layer 1
10
12.591981
20
10.054173
70
0
0
VERTEX
8
Layer 1
10
11.817362
20
10.054173
70
0
0
VERTEX
8
Layer 1
10
11.817362
20
16.507008
70
0
0
VERTEX
8
Layer 1
10
13.353954
20
18.694448
70
0
0
VERTEX
8
Layer 1
10
15.342189
20
18.694448
70
0
0
VERTEX
8
Layer 1
10
15.342189
20
18.694448
70
0
0
SEQEND
8
Layer 1
0
POLYLINE
8
Layer 1
62
7
70
1
10
0.000000
20
0.000000
66
1
0
VERTEX
8
Layer 1
10
22.706592
20
12.782421
70
0
0
VERTEX
8
Layer 1
10
22.706592
20
11.062128
70
0
0
VERTEX
8
Layer 1
10
21.573595
20
10.054173
70
0
0
VERTEX
8
Layer 1
10
20.382442
20
10.054173
70
0
0
VERTEX
8
Layer 1
10
20.382442
20
10.190327
70
0
0
VERTEX
8
Layer 1
10
22.236587
20
11.180979
70
0
0
VERTEX
8
Layer 1
10
22.236587
20
13.034859
70
0
0
VERTEX
8
Layer 1
10
22.706592
20
12.782421
70
0
0
VERTEX
8
Layer 1
10
22.706592
20
12.782421
70
0
0
SEQEND
8
Layer 1
0
POLYLINE
8
Layer 1
62
7
70
1
10
0.000000
20
0.000000
66
1
0
VERTEX
8
Layer 1
10
26.944868
20
17.991663
70
0
0
VERTEX
8
Layer 1
10
26.944868
20
16.721718
70
0
0
VERTEX
8
Layer 1
10
27.977800
20
16.721718
70
0
0
VERTEX
8
Layer 1
10
27.977800
20
16.666684
70
0
0
VERTEX
8
Layer 1
10
26.944868
20
16.666684
70
0
0
VERTEX
8
Layer 1
10
26.944868
20
11.796187
70
0
0
VERTEX
8
Layer 1
10
27.054505
20
11.183572
70
0
0
VERTEX
8
Layer 1
10
27.397305
20
10.628027
70
0
0
VERTEX
8
Layer 1
10
27.415297
20
10.608395
70
0
0
VERTEX
8
Layer 1
10
27.960867
20
10.062957
70
0
0
VERTEX
8
Layer 1
10
27.960867
20
10.054173
70
0
0
VERTEX
8
Layer 1
10
27.467949
20
10.054173
70
0
0
VERTEX
8
Layer 1
10
26.551169
20
10.965741
70
0
0
VERTEX
8
Layer 1
10
26.551169
20
16.666684
70
0
0
VERTEX
8
Layer 1
10
25.983903
20
16.666684
70
0
0
VERTEX
8
Layer 1
10
25.983903
20
16.721718
70
0
0
VERTEX
8
Layer 1
10
26.551169
20
16.721718
70
0
0
VERTEX
8
Layer 1
10
26.551169
20
17.991663
70
0
0
VERTEX
8
Layer 1
10
26.944868
20
17.991663
70
0
0
VERTEX
8
Layer 1
10
26.944868
20
17.991663
70
0
0
SEQEND
8
Layer 1
0
POLYLINE
8
Layer 1
62
7
70
1
10
0.000000
20
0.000000
66
1
0
VERTEX
8
Layer 1
10
31.814254
20
16.721718
70
0
0
VERTEX
8
Layer 1
10
32.957781
20
15.537047
70
0
0
VERTEX
8
Layer 1
10
33.367620
20
15.934424
70
0
0
VERTEX
8
Layer 1
10
33.367620
20
15.594409
70
0
0
VERTEX
8
Layer 1
10
31.682756
20
14.428312
70
0
0
VERTEX
8
Layer 1
10
31.682756
20
10.054173
70
0
0
VERTEX
8
Layer 1
10
31.289321
20
10.054173
70
0
0
VERTEX
8
Layer 1
10
31.289321
20
16.721718
70
0
0
VERTEX
8
Layer 1
10
31.814254
20
16.721718
70
0
0
VERTEX
8
Layer 1
10
31.814254
20
16.721718
70
0
0
SEQEND
8
Layer 1
0
POLYLINE
8
Layer 1
62
7
70
1
10
0.000000
20
0.000000
66
1
0
VERTEX
8
Layer 1
10
39.571298
20
16.721718
70
0
0
VERTEX
8
Layer 1
10
40.769330
20
15.523871
70
0
0
VERTEX
8
Layer 1
10
40.769330
20
11.252020
70
0
0
VERTEX
8
Layer 1
10
39.571563
20
10.054173
70
0
0
VERTEX
8
Layer 1
10
37.703871
20
10.054173
70
0
0
VERTEX
8
Layer 1
10
36.506369
20
11.252020
70
0
0
VERTEX
8
Layer 1
10
36.506369
20
15.523871
70
0
0
VERTEX
8
Layer 1
10
37.704136
20
16.721718
70
0
0
VERTEX
8
Layer 1
10
39.571298
20
16.721718
70
0
0
VERTEX
8
Layer 1
10
39.571298
20
16.721718
70
0
0
SEQEND
8
Layer 1
0
POLYLINE
8
Layer 1
62
7
70
1
10
0.000000
20
0.000000
66
1
0
VERTEX
8
Layer 1
10
56.363058
20
16.721718
70
0
0
VERTEX
8
Layer 1
10
56.363058
20
10.054173
70
0
0
VERTEX
8
Layer 1
10
55.761661
20
10.054173
70
0
0
VERTEX
8
Layer 1
10
55.350234
20
10.465520
70
0
0
VERTEX
8
Layer 1
10
55.528299
20
10.631652
70
0
0
VERTEX
8
Layer 1
10
55.528563
20
10.631387
70
0
0
VERTEX
8
Layer 1
10
55.529886
20
10.632948
70
0
0
VERTEX
8
Layer 1
10
55.532003
20
10.635541
70
0
0
VERTEX
8
Layer 1
10
55.882443
20
11.243097
70
0
0
VERTEX
8
Layer 1
10
55.969359
20
11.813227
70
0
0
VERTEX
8
Layer 1
10
55.969359
20
16.666684
70
0
0
VERTEX
8
Layer 1
10
54.189244
20
16.666684
70
0
0
VERTEX
8
Layer 1
10
54.189244
20
15.343769
70
0
0
VERTEX
8
Layer 1
10
54.646444
20
15.343769
70
0
0
VERTEX
8
Layer 1
10
54.646444
20
11.813227
70
0
0
VERTEX
8
Layer 1
10
54.644856
20
11.767771
70
0
0
VERTEX
8
Layer 1
10
54.553310
20
11.525149
70
0
0
VERTEX
8
Layer 1
10
54.282377
20
11.432121
70
0
0
VERTEX
8
Layer 1
10
54.172311
20
11.432121
70
0
0
VERTEX
8
Layer 1
10
54.129184
20
11.433682
70
0
0
VERTEX
8
Layer 1
10
53.901378
20
11.525149
70
0
0
VERTEX
8
Layer 1
10
53.818034
20
11.767771
70
0
0
VERTEX
8
Layer 1
10
53.816711
20
11.813227
70
0
0
VERTEX
8
Layer 1
10
53.816711
20
14.962664
70
0
0
VERTEX
8
Layer 1
10
53.909845
20
15.242222
70
0
0
VERTEX
8
Layer 1
10
54.189244
20
15.343769
70
0
0
VERTEX
8
Layer 1
10
54.189244
20
16.666684
70
0
0
VERTEX
8
Layer 1
10
53.596413
20
16.569109
70
0
0
VERTEX
8
Layer 1
10
52.974808
20
16.177312
70
0
0
VERTEX
8
Layer 1
10
52.974544
20
16.177576
70
0
0
VERTEX
8
Layer 1
10
52.956023
20
16.157918
70
0
0
VERTEX
8
Layer 1
10
52.934592
20
16.135957
70
0
0
VERTEX
8
Layer 1
10
52.934856
20
16.135719
70
0
0
VERTEX
8
Layer 1
10
52.578099
20
15.521797
70
0
0
VERTEX
8
Layer 1
10
52.493796
20
14.962664
70
0
0
VERTEX
8
Layer 1
10
52.493796
20
11.813227
70
0
0
VERTEX
8
Layer 1
10
52.568706
20
11.274840
70
0
0
VERTEX
8
Layer 1
10
52.885115
20
10.678430
70
0
0
VERTEX
8
Layer 1
10
52.923479
20
10.632181
70
0
0
VERTEX
8
Layer 1
10
52.966077
20
10.589795
70
0
0
VERTEX
8
Layer 1
10
53.658491
20
10.181543
70
0
0
VERTEX
8
Layer 1
10
53.531226
20
10.054173
70
0
0
VERTEX
8
Layer 1
10
53.297600
20
10.054173
70
0
0
VERTEX
8
Layer 1
10
52.100097
20
11.252020
70
0
0
VERTEX
8
Layer 1
10
52.100097
20
15.523871
70
0
0
VERTEX
8
Layer 1
10
53.297864
20
16.721718
70
0
0
VERTEX
8
Layer 1
10
56.363058
20
16.721718
70
0
0
VERTEX
8
Layer 1
10
56.363058
20
16.721718
70
0
0
SEQEND
8
Layer 1
0
POLYLINE
8
Layer 1
62
7
70
1
10
0.000000
20
0.000000
66
1
0
VERTEX
8
Layer 1
10
68.434658
20
17.991663
70
0
0
VERTEX
8
Layer 1
10
68.434658
20
16.721718
70
0
0
VERTEX
8
Layer 1
10
69.467854
20
16.721718
70
0
0
VERTEX
8
Layer 1
10
69.467854
20
16.666684
70
0
0
VERTEX
8
Layer 1
10
68.434658
20
16.666684
70
0
0
VERTEX
8
Layer 1
10
68.434658
20
11.796187
70
0
0
VERTEX
8
Layer 1
10
68.544393
20
11.183512
70
0
0
VERTEX
8
Layer 1
10
68.887094
20
10.628027
70
0
0
VERTEX
8
Layer 1
10
68.905351
20
10.608395
70
0
0
VERTEX
8
Layer 1
10
69.450656
20
10.062957
70
0
0
VERTEX
8
Layer 1
10
69.450656
20
10.054173
70
0
0
VERTEX
8
Layer 1
10
68.958003
20
10.054173
70
0
0
VERTEX
8
Layer 1
10
68.040958
20
10.965741
70
0
0
VERTEX
8
Layer 1
10
68.040958
20
16.666684
70
0
0
VERTEX
8
Layer 1
10
67.473957
20
16.666684
70
0
0
VERTEX
8
Layer 1
10
67.473957
20
16.721718
70
0
0
VERTEX
8
Layer 1
10
68.040958
20
16.721718
70
0
0
VERTEX
8
Layer 1
10
68.040958
20
17.991663
70
0
0
VERTEX
8
Layer 1
10
68.434658
20
17.991663
70
0
0
VERTEX
8
Layer 1
10
68.434658
20
17.991663
70
0
0
SEQEND
8
Layer 1
0
POLYLINE
8
Layer 1
62
7
70
1
10
0.000000
20
0.000000
66
1
0
VERTEX
8
Layer 1
10
76.295418
20
18.694448
70
0
0
VERTEX
8
Layer 1
10
77.846404
20
16.505447
70
0
0
VERTEX
8
Layer 1
10
77.846404
20
10.054173
70
0
0
VERTEX
8
Layer 1
10
77.071705
20
10.054173
70
0
0
VERTEX
8
Layer 1
10
77.071705
20
13.500208
70
0
0
VERTEX
8
Layer 1
10
73.545343
20
13.500208
70
0
0
VERTEX
8
Layer 1
10
73.545343
20
10.054173
70
0
0
VERTEX
8
Layer 1
10
72.770644
20
10.054173
70
0
0
VERTEX
8
Layer 1
10
72.770644
20
16.507008
70
0
0
VERTEX
8
Layer 1
10
74.307342
20
18.694448
70
0
0
VERTEX
8
Layer 1
10
76.295418
20
18.694448
70
0
0
VERTEX
8
Layer 1
10
76.295418
20
18.694448
70
0
0
SEQEND
8
Layer 1
0
POLYLINE
8
Layer 1
62
7
70
1
10
0.000000
20
0.000000
66
1
0
VERTEX
8
Layer 1
10
37.164651
20
14.962664
70
0
0
VERTEX
8
Layer 1
10
37.226067
20
15.414148
70
0
0
VERTEX
8
Layer 1
10
37.493263
20
15.917623
70
0
0
VERTEX
8
Layer 1
10
37.501994
20
15.927969
70
0
0
VERTEX
8
Layer 1
10
37.971166
20
16.278604
70
0
0
VERTEX
8
Layer 1
10
38.446291
20
16.396413
70
0
0
VERTEX
8
Layer 1
10
38.446291
20
15.598007
70
0
0
VERTEX
8
Layer 1
10
38.104185
20
15.411714
70
0
0
VERTEX
8
Layer 1
10
37.958400
20
14.962664
70
0
0
VERTEX
8
Layer 1
10
37.958400
20
11.805739
70
0
0
VERTEX
8
Layer 1
10
37.959723
20
11.760257
70
0
0
VERTEX
8
Layer 1
10
37.959988
20
11.756130
70
0
0
VERTEX
8
Layer 1
10
37.960252
20
11.751738
70
0
0
VERTEX
8
Layer 1
10
38.104185
20
11.355630
70
0
0
VERTEX
8
Layer 1
10
38.111858
20
11.346608
70
0
0
VERTEX
8
Layer 1
10
38.120325
20
11.338062
70
0
0
VERTEX
8
Layer 1
10
38.516935
20
11.169602
70
0
0
VERTEX
8
Layer 1
10
38.521433
20
11.169337
70
0
0
VERTEX
8
Layer 1
10
38.525666
20
11.169337
70
0
0
VERTEX
8
Layer 1
10
38.568793
20
11.167803
70
0
0
VERTEX
8
Layer 1
10
38.573820
20
11.167538
70
0
0
VERTEX
8
Layer 1
10
38.679918
20
11.167538
70
0
0
VERTEX
8
Layer 1
10
39.089492
20
11.295438
70
0
0
VERTEX
8
Layer 1
10
39.095313
20
11.299565
70
0
0
VERTEX
8
Layer 1
10
39.100340
20
11.304222
70
0
0
VERTEX
8
Layer 1
10
39.125211
20
11.325918
70
0
0
VERTEX
8
Layer 1
10
39.131826
20
11.331871
70
0
0
VERTEX
8
Layer 1
10
39.138176
20
11.338062
70
0
0
VERTEX
8
Layer 1
10
39.314917
20
11.748642
70
0
0
VERTEX
8
Layer 1
10
39.315446
20
11.753801
70
0
0
VERTEX
8
Layer 1
10
39.315446
20
11.758723
70
0
0
VERTEX
8
Layer 1
10
39.317034
20
11.804204
70
0
0
VERTEX
8
Layer 1
10
39.317298
20
11.808835
70
0
0
VERTEX
8
Layer 1
10
39.317298
20
14.962664
70
0
0
VERTEX
8
Layer 1
10
39.176540
20
15.388722
70
0
0
VERTEX
8
Layer 1
10
39.171513
20
15.394675
70
0
0
VERTEX
8
Layer 1
10
39.141880
20
15.425420
70
0
0
VERTEX
8
Layer 1
10
38.812209
20
15.597240
70
0
0
VERTEX
8
Layer 1
10
38.812209
20
16.396413
70
0
0
VERTEX
8
Layer 1
10
39.261438
20
16.287646
70
0
0
VERTEX
8
Layer 1
10
39.696975
20
15.992051
70
0
0
VERTEX
8
Layer 1
10
39.700415
20
15.988690
70
0
0
VERTEX
8
Layer 1
10
40.027869
20
15.469168
70
0
0
VERTEX
8
Layer 1
10
40.111047
20
14.962664
70
0
0
VERTEX
8
Layer 1
10
40.111047
20
11.813227
70
0
0
VERTEX
8
Layer 1
10
40.025058
20
11.295299
70
0
0
VERTEX
8
Layer 1
10
39.699356
20
10.776855
70
0
0
VERTEX
8
Layer 1
10
39.181303
20
10.454742
70
0
0
VERTEX
8
Layer 1
10
38.679918
20
10.373789
70
0
0
VERTEX
8
Layer 1
10
38.578583
20
10.373789
70
0
0
VERTEX
8
Layer 1
10
38.077198
20
10.454742
70
0
0
VERTEX
8
Layer 1
10
37.559144
20
10.776855
70
0
0
VERTEX
8
Layer 1
10
37.524749
20
10.811224
70
0
0
VERTEX
8
Layer 1
10
37.494586
20
10.847922
70
0
0
VERTEX
8
Layer 1
10
37.446432
20
10.908644
70
0
0
VERTEX
8
Layer 1
10
37.220015
20
11.380303
70
0
0
VERTEX
8
Layer 1
10
37.164651
20
11.813227
70
0
0
VERTEX
8
Layer 1
10
37.164651
20
14.962664
70
0
0
VERTEX
8
Layer 1
10
37.164651
20
14.962664
70
0
0
SEQEND
8
Layer 1
0
POLYLINE
8
Layer 1
62
7
70
1
10
0.000000
20
0.000000
66
1
0
VERTEX
8
Layer 1
10
55.320337
20
10.794450
70
0
0
VERTEX
8
Layer 1
10
55.319543
20
10.793391
70
0
0
VERTEX
8
Layer 1
10
55.319014
20
10.792889
70
0
0
VERTEX
8
Layer 1
10
55.319807
20
10.793921
70
0
0
VERTEX
8
Layer 1
10
55.322189
20
10.796752
70
0
0
VERTEX
8
Layer 1
10
55.322982
20
10.797545
70
0
0
VERTEX
8
Layer 1
10
55.320337
20
10.794450
70
0
0
VERTEX
8
Layer 1
10
55.320337
20
10.794450
70
0
0
SEQEND
8
Layer 1
0
POLYLINE
8
Layer 1
62
7
70
1
10
0.000000
20
0.000000
66
1
0
VERTEX
8
Layer 1
10
55.325364
20
10.800641
70
0
0
VERTEX
8
Layer 1
10
55.322982
20
10.797545
70
0
0
VERTEX
8
Layer 1
10
55.324834
20
10.800112
70
0
0
VERTEX
8
Layer 1
10
55.325364
20
10.800641
70
0
0
VERTEX
8
Layer 1
10
55.325364
20
10.800641
70
0
0
SEQEND
8
Layer 1
0
POLYLINE
8
Layer 1
62
7
70
1
10
0.000000
20
0.000000
66
1
0
VERTEX
8
Layer 1
10
86.758618
20
14.545628
70
0
0
VERTEX
8
Layer 1
10
86.758618
20
11.260566
70
0
0
VERTEX
8
Layer 1
10
86.373385
20
10.875306
70
0
0
VERTEX
8
Layer 1
10
86.373385
20
14.545628
70
0
0
VERTEX
8
Layer 1
10
86.758618
20
14.545628
70
0
0
VERTEX
8
Layer 1
10
86.758618
20
14.545628
70
0
0
SEQEND
8
Layer 1
0
POLYLINE
8
Layer 1
62
7
70
1
10
0.000000
20
0.000000
66
1
0
VERTEX
8
Layer 1
10
55.115020
20
10.961349
70
0
0
VERTEX
8
Layer 1
10
55.115549
20
10.961878
70
0
0
VERTEX
8
Layer 1
10
55.115814
20
10.962910
70
0
0
VERTEX
8
Layer 1
10
55.115020
20
10.961349
70
0
0
VERTEX
8
Layer 1
10
55.115020
20
10.961349
70
0
0
SEQEND
8
Layer 1
0
POLYLINE
8
Layer 1
62
7
70
1
10
0.000000
20
0.000000
66
1
0
VERTEX
8
Layer 1
10
29.437240
20
14.891068
70
0
0
VERTEX
8
Layer 1
10
29.089049
20
14.814603
70
0
0
VERTEX
8
Layer 1
10
28.796949
20
14.814603
70
0
0
VERTEX
8
Layer 1
10
28.796949
20
11.846061
70
0
0
VERTEX
8
Layer 1
10
29.437240
20
11.205771
70
0
0
VERTEX
8
Layer 1
10
29.437240
20
14.891068
70
0
0
VERTEX
8
Layer 1
10
29.437240
20
14.891068
70
0
0
SEQEND
8
Layer 1
0
POLYLINE
8
Layer 1
62
7
70
1
10
0.000000
20
0.000000
66
1
0
VERTEX
8
Layer 1
10
70.918563
20
14.886940
70
0
0
VERTEX
8
Layer 1
10
70.579103
20
14.814603
70
0
0
VERTEX
8
Layer 1
10
70.286739
20
14.814603
70
0
0
VERTEX
8
Layer 1
10
70.286739
20
11.846061
70
0
0
VERTEX
8
Layer 1
10
70.918563
20
11.214317
70
0
0
VERTEX
8
Layer 1
10
70.918563
20
14.886940
70
0
0
VERTEX
8
Layer 1
10
70.918563
20
14.886940
70
0
0
SEQEND
8
Layer 1
0
POLYLINE
8
Layer 1
62
7
70
1
10
0.000000
20
0.000000
66
1
0
VERTEX
8
Layer 1
10
18.745097
20
11.376559
70
0
0
VERTEX
8
Layer 1
10
18.937052
20
11.517396
70
0
0
VERTEX
8
Layer 1
10
20.141645
20
12.161524
70
0
0
VERTEX
8
Layer 1
10
18.935253
20
12.811895
70
0
0
VERTEX
8
Layer 1
10
18.745097
20
12.957098
70
0
0
VERTEX
8
Layer 1
10
18.745097
20
11.376559
70
0
0
VERTEX
8
Layer 1
10
18.745097
20
11.376559
70
0
0
SEQEND
8
Layer 1
0
POLYLINE
8
Layer 1
62
7
70
1
10
0.000000
20
0.000000
66
1
0
VERTEX
8
Layer 1
10
84.004838
20
12.494581
70
0
0
VERTEX
8
Layer 1
10
84.521304
20
12.494581
70
0
0
VERTEX
8
Layer 1
10
84.521304
20
12.836687
70
0
0
VERTEX
8
Layer 1
10
84.276565
20
12.842111
70
0
0
VERTEX
8
Layer 1
10
84.004838
20
12.891455
70
0
0
VERTEX
8
Layer 1
10
84.004838
20
12.494581
70
0
0
VERTEX
8
Layer 1
10
84.004838
20
12.494581
70
0
0
SEQEND
8
Layer 1
0
POLYLINE
8
Layer 1
62
7
70
1
10
0.000000
20
0.000000
66
1
0
VERTEX
8
Layer 1
10
9.965281
20
14.119544
70
0
0
VERTEX
8
Layer 1
10
8.881363
20
13.493752
70
0
0
VERTEX
8
Layer 1
10
9.965281
20
12.868198
70
0
0
VERTEX
8
Layer 1
10
9.965281
20
14.119544
70
0
0
VERTEX
8
Layer 1
10
9.965281
20
14.119544
70
0
0
SEQEND
8
Layer 1
0
POLYLINE
8
Layer 1
62
7
70
1
10
0.000000
20
0.000000
66
1
0
VERTEX
8
Layer 1
10
21.466095
20
16.986301
70
0
0
VERTEX
8
Layer 1
10
20.117859
20
15.998771
70
0
0
VERTEX
8
Layer 1
10
20.117859
20
13.978230
70
0
0
VERTEX
8
Layer 1
10
21.252418
20
13.366620
70
0
0
VERTEX
8
Layer 1
10
21.252418
20
15.509398
70
0
0
VERTEX
8
Layer 1
10
22.945590
20
16.423797
70
0
0
VERTEX
8
Layer 1
10
22.945590
20
16.986301
70
0
0
VERTEX
8
Layer 1
10
21.466095
20
16.986301
70
0
0
VERTEX
8
Layer 1
10
21.466095
20
16.986301
70
0
0
SEQEND
8
Layer 1
0
POLYLINE
8
Layer 1
62
7
70
1
10
0.000000
20
0.000000
66
1
0
VERTEX
8
Layer 1
10
14.355189
20
18.148243
70
0
0
VERTEX
8
Layer 1
10
13.517423
20
18.003913
70
0
0
VERTEX
8
Layer 1
10
12.743137
20
17.498665
70
0
0
VERTEX
8
Layer 1
10
12.734856
20
17.490146
70
0
0
VERTEX
8
Layer 1
10
12.726601
20
17.481362
70
0
0
VERTEX
8
Layer 1
10
12.268419
20
16.704037
70
0
0
VERTEX
8
Layer 1
10
12.143434
20
15.894128
70
0
0
VERTEX
8
Layer 1
10
12.266891
20
15.082417
70
0
0
VERTEX
8
Layer 1
10
12.726601
20
14.298349
70
0
0
VERTEX
8
Layer 1
10
12.742608
20
14.281045
70
0
0
VERTEX
8
Layer 1
10
12.759409
20
14.264244
70
0
0
VERTEX
8
Layer 1
10
13.531492
20
13.776816
70
0
0
VERTEX
8
Layer 1
10
14.355189
20
13.639749
70
0
0
VERTEX
8
Layer 1
10
15.181518
20
13.778638
70
0
0
VERTEX
8
Layer 1
10
15.958694
20
14.281045
70
0
0
VERTEX
8
Layer 1
10
15.958959
20
14.280781
70
0
0
VERTEX
8
Layer 1
10
16.436961
20
15.068593
70
0
0
VERTEX
8
Layer 1
10
16.567182
20
15.894128
70
0
0
VERTEX
8
Layer 1
10
16.438495
20
16.707734
70
0
0
VERTEX
8
Layer 1
10
15.974966
20
17.481097
70
0
0
VERTEX
8
Layer 1
10
15.975495
20
17.481362
70
0
0
VERTEX
8
Layer 1
10
15.965944
20
17.490913
70
0
0
VERTEX
8
Layer 1
10
15.958959
20
17.498665
70
0
0
VERTEX
8
Layer 1
10
15.958429
20
17.498401
70
0
0
VERTEX
8
Layer 1
10
15.238248
20
17.985376
70
0
0
VERTEX
8
Layer 1
10
14.458535
20
18.146179
70
0
0
VERTEX
8
Layer 1
10
14.355189
20
18.148243
70
0
0
VERTEX
8
Layer 1
10
14.355189
20
18.148243
70
0
0
SEQEND
8
Layer 1
0
POLYLINE
8
Layer 1
62
7
70
1
10
0.000000
20
0.000000
66
1
0
VERTEX
8
Layer 1
10
75.308524
20
18.148243
70
0
0
VERTEX
8
Layer 1
10
74.470722
20
18.003913
70
0
0
VERTEX
8
Layer 1
10
73.696420
20
17.498665
70
0
0
VERTEX
8
Layer 1
10
73.688218
20
17.490146
70
0
0
VERTEX
8
Layer 1
10
73.680016
20
17.481362
70
0
0
VERTEX
8
Layer 1
10
73.221824
20
16.704047
70
0
0
VERTEX
8
Layer 1
10
73.096610
20
15.894128
70
0
0
VERTEX
8
Layer 1
10
73.220137
20
15.082417
70
0
0
VERTEX
8
Layer 1
10
73.680016
20
14.298349
70
0
0
VERTEX
8
Layer 1
10
73.695890
20
14.281045
70
0
0
VERTEX
8
Layer 1
10
73.712824
20
14.264244
70
0
0
VERTEX
8
Layer 1
10
74.484778
20
13.776816
70
0
0
VERTEX
8
Layer 1
10
75.308524
20
13.639749
70
0
0
VERTEX
8
Layer 1
10
76.134817
20
13.778638
70
0
0
VERTEX
8
Layer 1
10
76.911897
20
14.281045
70
0
0
VERTEX
8
Layer 1
10
76.912161
20
14.280781
70
0
0
VERTEX
8
Layer 1
10
77.390230
20
15.068613
70
0
0
VERTEX
8
Layer 1
10
77.520438
20
15.894128
70
0
0
VERTEX
8
Layer 1
10
77.391751
20
16.707734
70
0
0
VERTEX
8
Layer 1
10
76.928301
20
17.481097
70
0
0
VERTEX
8
Layer 1
10
76.928830
20
17.481362
70
0
0
VERTEX
8
Layer 1
10
76.919305
20
17.490913
70
0
0
VERTEX
8
Layer 1
10
76.912161
20
17.498665
70
0
0
VERTEX
8
Layer 1
10
76.911632
20
17.498401
70
0
0
VERTEX
8
Layer 1
10
76.191437
20
17.985376
70
0
0
VERTEX
8
Layer 1
10
75.411711
20
18.146179
70
0
0
VERTEX
8
Layer 1
10
75.308524
20
18.148243
70
0
0
VERTEX
8
Layer 1
10
75.308524
20
18.148243
70
0
0
SEQEND
8
Layer 1
0
POLYLINE
8
Layer 1
62
7
70
1
10
0.000000
20
0.000000
66
1
0
VERTEX
8
Layer 1
10
22.681007
20
16.721718
70
0
0
VERTEX
8
Layer 1
10
22.681007
20
16.581674
70
0
0
VERTEX
8
Layer 1
10
20.987835
20
15.667010
70
0
0
VERTEX
8
Layer 1
10
20.987835
20
13.809743
70
0
0
VERTEX
8
Layer 1
10
20.382442
20
14.136080
70
0
0
VERTEX
8
Layer 1
10
20.382442
20
15.864654
70
0
0
VERTEX
8
Layer 1
10
21.552667
20
16.721718
70
0
0
VERTEX
8
Layer 1
10
22.681007
20
16.721718
70
0
0
VERTEX
8
Layer 1
10
22.681007
20
16.721718
70
0
0
SEQEND
8
Layer 1
0
POLYLINE
8
Layer 1
62
7
70
1
10
0.000000
20
0.000000
66
1
0
VERTEX
8
Layer 1
10
2.976559
20
14.124730
70
0
0
VERTEX
8
Layer 1
10
2.976559
20
13.860147
70
0
0
VERTEX
8
Layer 1
10
7.871344
20
13.860147
70
0
0
VERTEX
8
Layer 1
10
7.871344
20
14.124730
70
0
0
VERTEX
8
Layer 1
10
2.976559
20
14.124730
70
0
0
VERTEX
8
Layer 1
10
2.976559
20
14.124730
70
0
0
SEQEND
8
Layer 1
0
POLYLINE
8
Layer 1
62
7
70
1
10
0.000000
20
0.000000
66
1
0
VERTEX
8
Layer 1
10
2.976559
20
18.256246
70
0
0
VERTEX
8
Layer 1
10
2.976559
20
17.523483
70
0
0
VERTEX
8
Layer 1
10
7.871344
20
17.523483
70
0
0
VERTEX
8
Layer 1
10
7.871344
20
17.788066
70
0
0
VERTEX
8
Layer 1
10
3.108850
20
17.788066
70
0
0
VERTEX
8
Layer 1
10
3.108850
20
17.991663
70
0
0
VERTEX
8
Layer 1
10
7.871344
20
17.991663
70
0
0
VERTEX
8
Layer 1
10
8.732573
20
17.836061
70
0
0
VERTEX
8
Layer 1
10
9.425118
20
17.415603
70
0
0
VERTEX
8
Layer 1
10
9.886478
20
16.799808
70
0
0
VERTEX
8
Layer 1
10
10.054154
20
16.058196
70
0
0
VERTEX
8
Layer 1
10
9.886478
20
15.316573
70
0
0
VERTEX
8
Layer 1
10
9.425118
20
14.700780
70
0
0
VERTEX
8
Layer 1
10
8.732573
20
14.280327
70
0
0
VERTEX
8
Layer 1
10
7.871344
20
14.124730
70
0
0
VERTEX
8
Layer 1
10
7.871344
20
13.860147
70
0
0
VERTEX
8
Layer 1
10
8.823976
20
14.032879
70
0
0
VERTEX
8
Layer 1
10
9.601909
20
14.503937
70
0
0
VERTEX
8
Layer 1
10
10.126407
20
15.202612
70
0
0
VERTEX
8
Layer 1
10
10.318737
20
16.058196
70
0
0
VERTEX
8
Layer 1
10
10.126407
20
16.913781
70
0
0
VERTEX
8
Layer 1
10
9.601909
20
17.612456
70
0
0
VERTEX
8
Layer 1
10
8.823976
20
18.083514
70
0
0
VERTEX
8
Layer 1
10
7.871344
20
18.256246
70
0
0
VERTEX
8
Layer 1
10
2.976559
20
18.256246
70
0
0
VERTEX
8
Layer 1
10
2.976559
20
18.256246
70
0
0
SEQEND
8
Layer 1
0
POLYLINE
8
Layer 1
62
7
70
1
10
0.000000
20
0.000000
66
1
0
VERTEX
8
Layer 1
10
15.508850
20
15.894128
70
0
0
VERTEX
8
Layer 1
10
15.434866
20
16.372121
70
0
0
VERTEX
8
Layer 1
10
15.197251
20
16.763575
70
0
0
VERTEX
8
Layer 1
10
14.820759
20
17.012339
70
0
0
VERTEX
8
Layer 1
10
14.355189
20
17.089911
70
0
0
VERTEX
8
Layer 1
10
13.886206
20
17.011952
70
0
0
VERTEX
8
Layer 1
10
13.504316
20
16.763575
70
0
0
VERTEX
8
Layer 1
10
13.502782
20
16.762014
70
0
0
VERTEX
8
Layer 1
10
13.501221
20
16.760214
70
0
0
VERTEX
8
Layer 1
10
13.272436
20
16.369270
70
0
0
VERTEX
8
Layer 1
10
13.201766
20
15.894128
70
0
0
VERTEX
8
Layer 1
10
13.201766
20
15.885847
70
0
0
VERTEX
8
Layer 1
10
13.205126
20
15.776812
70
0
0
VERTEX
8
Layer 1
10
13.205390
20
15.772156
70
0
0
VERTEX
8
Layer 1
10
13.205629
20
15.767261
70
0
0
VERTEX
8
Layer 1
10
13.500956
20
15.019496
70
0
0
VERTEX
8
Layer 1
10
13.507677
20
15.012776
70
0
0
VERTEX
8
Layer 1
10
13.835736
20
14.793767
70
0
0
VERTEX
8
Layer 1
10
14.232713
20
14.702711
70
0
0
VERTEX
8
Layer 1
10
14.237608
20
14.702208
70
0
0
VERTEX
8
Layer 1
10
14.242265
20
14.702208
70
0
0
VERTEX
8
Layer 1
10
14.345108
20
14.698319
70
0
0
VERTEX
8
Layer 1
10
14.350268
20
14.698081
70
0
0
VERTEX
8
Layer 1
10
14.355189
20
14.698081
70
0
0
VERTEX
8
Layer 1
10
14.820286
20
14.773348
70
0
0
VERTEX
8
Layer 1
10
15.197515
20
15.016136
70
0
0
VERTEX
8
Layer 1
10
15.232123
20
15.053866
70
0
0
VERTEX
8
Layer 1
10
15.504458
20
15.766732
70
0
0
VERTEX
8
Layer 1
10
15.504723
20
15.771124
70
0
0
VERTEX
8
Layer 1
10
15.504723
20
15.775780
70
0
0
VERTEX
8
Layer 1
10
15.508585
20
15.884815
70
0
0
VERTEX
8
Layer 1
10
15.508850
20
15.889472
70
0
0
VERTEX
8
Layer 1
10
15.508850
20
15.894128
70
0
0
VERTEX
8
Layer 1
10
15.508850
20
15.894128
70
0
0
SEQEND
8
Layer 1
0
POLYLINE
8
Layer 1
62
7
70
1
10
0.000000
20
0.000000
66
1
0
VERTEX
8
Layer 1
10
76.462106
20
15.894128
70
0
0
VERTEX
8
Layer 1
10
76.388122
20
16.372121
70
0
0
VERTEX
8
Layer 1
10
76.150427
20
16.763575
70
0
0
VERTEX
8
Layer 1
10
75.774025
20
17.012339
70
0
0
VERTEX
8
Layer 1
10
75.308524
20
17.089911
70
0
0
VERTEX
8
Layer 1
10
74.839517
20
17.011952
70
0
0
VERTEX
8
Layer 1
10
74.457625
20
16.763575
70
0
0
VERTEX
8
Layer 1
10
74.456037
20
16.762014
70
0
0
VERTEX
8
Layer 1
10
74.454450
20
16.760214
70
0
0
VERTEX
8
Layer 1
10
74.225817
20
16.369270
70
0
0
VERTEX
8
Layer 1
10
74.154942
20
15.894128
70
0
0
VERTEX
8
Layer 1
10
74.154942
20
15.889974
70
0
0
VERTEX
8
Layer 1
10
74.155207
20
15.885847
70
0
0
VERTEX
8
Layer 1
10
74.158646
20
15.776812
70
0
0
VERTEX
8
Layer 1
10
74.158646
20
15.772156
70
0
0
VERTEX
8
Layer 1
10
74.158911
20
15.767261
70
0
0
VERTEX
8
Layer 1
10
74.454185
20
15.019496
70
0
0
VERTEX
8
Layer 1
10
74.461065
20
15.012776
70
0
0
VERTEX
8
Layer 1
10
74.789114
20
14.793767
70
0
0
VERTEX
8
Layer 1
10
75.186022
20
14.702711
70
0
0
VERTEX
8
Layer 1
10
75.191049
20
14.702208
70
0
0
VERTEX
8
Layer 1
10
75.195547
20
14.702208
70
0
0
VERTEX
8
Layer 1
10
75.298470
20
14.698319
70
0
0
VERTEX
8
Layer 1
10
75.303497
20
14.698081
70
0
0
VERTEX
8
Layer 1
10
75.308524
20
14.698081
70
0
0
VERTEX
8
Layer 1
10
75.773562
20
14.773348
70
0
0
VERTEX
8
Layer 1
10
76.150692
20
15.016136
70
0
0
VERTEX
8
Layer 1
10
76.185352
20
15.053866
70
0
0
VERTEX
8
Layer 1
10
76.457872
20
15.766732
70
0
0
VERTEX
8
Layer 1
10
76.458137
20
15.771124
70
0
0
VERTEX
8
Layer 1
10
76.458137
20
15.775780
70
0
0
VERTEX
8
Layer 1
10
76.461841
20
15.884815
70
0
0
VERTEX
8
Layer 1
10
76.462106
20
15.889472
70
0
0
VERTEX
8
Layer 1
10
76.462106
20
15.894128
70
0
0
VERTEX
8
Layer 1
10
76.462106
20
15.894128
70
0
0
SEQEND
8
Layer 1
0
POLYLINE
8
Layer 1
62
7
70
1
10
0.000000
20
0.000000
66
1
0
VERTEX
8
Layer 1
10
84.870553
20
14.151849
70
0
0
VERTEX
8
Layer 1
10
85.326959
20
14.141504
70
0
0
VERTEX
8
Layer 1
10
85.579636
20
14.136080
70
0
0
VERTEX
8
Layer 1
10
85.579636
20
15.074794
70
0
0
VERTEX
8
Layer 1
10
84.870553
20
15.074794
70
0
0
VERTEX
8
Layer 1
10
84.870553
20
14.151849
70
0
0
VERTEX
8
Layer 1
10
84.870553
20
14.151849
70
0
0
SEQEND
8
Layer 1
0
POLYLINE
8
Layer 1
62
7
70
1
10
0.000000
20
0.000000
66
1
0
VERTEX
8
Layer 1
10
39.052715
20
11.813227
70
0
0
VERTEX
8
Layer 1
10
39.051128
20
11.767771
70
0
0
VERTEX
8
Layer 1
10
38.951116
20
11.525149
70
0
0
VERTEX
8
Layer 1
10
38.926245
20
11.503426
70
0
0
VERTEX
8
Layer 1
10
38.679918
20
11.432121
70
0
0
VERTEX
8
Layer 1
10
38.578583
20
11.432121
70
0
0
VERTEX
8
Layer 1
10
38.535456
20
11.433682
70
0
0
VERTEX
8
Layer 1
10
38.307385
20
11.525149
70
0
0
VERTEX
8
Layer 1
10
38.224306
20
11.767771
70
0
0
VERTEX
8
Layer 1
10
38.222983
20
11.813227
70
0
0
VERTEX
8
Layer 1
10
38.222983
20
14.962664
70
0
0
VERTEX
8
Layer 1
10
38.307385
20
15.242222
70
0
0
VERTEX
8
Layer 1
10
38.578583
20
15.343769
70
0
0
VERTEX
8
Layer 1
10
38.578583
20
16.666684
70
0
0
VERTEX
8
Layer 1
10
37.953108
20
16.556982
70
0
0
VERTEX
8
Layer 1
10
37.291122
20
16.088941
70
0
0
VERTEX
8
Layer 1
10
37.291386
20
16.088676
70
0
0
VERTEX
8
Layer 1
10
36.971803
20
15.487292
70
0
0
VERTEX
8
Layer 1
10
36.900068
20
14.962664
70
0
0
VERTEX
8
Layer 1
10
36.900068
20
11.813227
70
0
0
VERTEX
8
Layer 1
10
36.974945
20
11.274840
70
0
0
VERTEX
8
Layer 1
10
37.291122
20
10.678430
70
0
0
VERTEX
8
Layer 1
10
37.329751
20
10.632181
70
0
0
VERTEX
8
Layer 1
10
37.372084
20
10.589795
70
0
0
VERTEX
8
Layer 1
10
37.991804
20
10.204344
70
0
0
VERTEX
8
Layer 1
10
38.578583
20
10.109206
70
0
0
VERTEX
8
Layer 1
10
38.679918
20
10.109206
70
0
0
VERTEX
8
Layer 1
10
39.266697
20
10.204344
70
0
0
VERTEX
8
Layer 1
10
39.886416
20
10.589795
70
0
0
VERTEX
8
Layer 1
10
40.274692
20
11.207771
70
0
0
VERTEX
8
Layer 1
10
40.375630
20
11.813227
70
0
0
VERTEX
8
Layer 1
10
40.375630
20
14.962664
70
0
0
VERTEX
8
Layer 1
10
40.277867
20
15.555723
70
0
0
VERTEX
8
Layer 1
10
39.885623
20
16.177576
70
0
0
VERTEX
8
Layer 1
10
39.278305
20
16.564945
70
0
0
VERTEX
8
Layer 1
10
38.679918
20
16.666684
70
0
0
VERTEX
8
Layer 1
10
38.679918
20
15.343769
70
0
0
VERTEX
8
Layer 1
10
38.951116
20
15.242222
70
0
0
VERTEX
8
Layer 1
10
38.974928
20
15.217404
70
0
0
VERTEX
8
Layer 1
10
39.052715
20
14.962664
70
0
0
VERTEX
8
Layer 1
10
39.052715
20
11.813227
70
0
0
VERTEX
8
Layer 1
10
39.052715
20
11.813227
70
0
0
SEQEND
8
Layer 1
0
POLYLINE
8
Layer 1
62
7
70
1
10
0.000000
20
0.000000
66
1
0
VERTEX
8
Layer 1
10
14.355189
20
16.825328
70
0
0
VERTEX
8
Layer 1
10
15.007068
20
16.579875
70
0
0
VERTEX
8
Layer 1
10
15.244267
20
15.894128
70
0
0
VERTEX
8
Layer 1
10
15.240404
20
15.785094
70
0
0
VERTEX
8
Layer 1
10
15.007068
20
15.199836
70
0
0
VERTEX
8
Layer 1
10
14.355189
20
14.962664
70
0
0
VERTEX
8
Layer 1
10
14.252345
20
14.966527
70
0
0
VERTEX
8
Layer 1
10
13.694763
20
15.199836
70
0
0
VERTEX
8
Layer 1
10
13.469709
20
15.785094
70
0
0
VERTEX
8
Layer 1
10
13.466349
20
15.894128
70
0
0
VERTEX
8
Layer 1
10
13.694763
20
16.579875
70
0
0
VERTEX
8
Layer 1
10
14.355189
20
16.825328
70
0
0
VERTEX
8
Layer 1
10
14.355189
20
16.825328
70
0
0
SEQEND
8
Layer 1
0
POLYLINE
8
Layer 1
62
7
70
1
10
0.000000
20
0.000000
66
1
0
VERTEX
8
Layer 1
10
75.308524
20
16.825328
70
0
0
VERTEX
8
Layer 1
10
75.960456
20
16.579875
70
0
0
VERTEX
8
Layer 1
10
76.197523
20
15.894128
70
0
0
VERTEX
8
Layer 1
10
76.193819
20
15.785094
70
0
0
VERTEX
8
Layer 1
10
75.960456
20
15.199836
70
0
0
VERTEX
8
Layer 1
10
75.308524
20
14.962664
70
0
0
VERTEX
8
Layer 1
10
75.205601
20
14.966527
70
0
0
VERTEX
8
Layer 1
10
74.648125
20
15.199836
70
0
0
VERTEX
8
Layer 1
10
74.422965
20
15.785094
70
0
0
VERTEX
8
Layer 1
10
74.419525
20
15.894128
70
0
0
VERTEX
8
Layer 1
10
74.648125
20
16.579875
70
0
0
VERTEX
8
Layer 1
10
75.308524
20
16.825328
70
0
0
VERTEX
8
Layer 1
10
75.308524
20
16.825328
70
0
0
SEQEND
8
Layer 1
0
POLYLINE
8
Layer 1
62
7
70
1
10
0.000000
20
0.000000
66
1
0
VERTEX
8
Layer 1
10
31.818487
20
15.165731
70
0
0
VERTEX
8
Layer 1
10
32.275422
20
15.482252
70
0
0
VERTEX
8
Layer 1
10
31.818487
20
15.955882
70
0
0
VERTEX
8
Layer 1
10
31.818487
20
15.165731
70
0
0
VERTEX
8
Layer 1
10
31.818487
20
15.165731
70
0
0
SEQEND
8
Layer 1
0
POLYLINE
8
Layer 1
62
7
70
1
10
0.000000
20
0.000000
66
1
0
VERTEX
8
Layer 1
10
3.029793
20
16.891474
70
0
0
VERTEX
8
Layer 1
10
3.681616
20
16.623256
70
0
0
VERTEX
8
Layer 1
10
3.935672
20
16.058196
70
0
0
VERTEX
8
Layer 1
10
3.666065
20
15.478888
70
0
0
VERTEX
8
Layer 1
10
2.979919
20
15.223887
70
0
0
VERTEX
8
Layer 1
10
2.922822
20
15.225157
70
0
0
VERTEX
8
Layer 1
10
2.271339
20
15.493394
70
0
0
VERTEX
8
Layer 1
10
2.017445
20
16.058196
70
0
0
VERTEX
8
Layer 1
10
2.287195
20
16.637613
70
0
0
VERTEX
8
Layer 1
10
2.973728
20
16.892506
70
0
0
VERTEX
8
Layer 1
10
3.029793
20
16.891474
70
0
0
VERTEX
8
Layer 1
10
3.029793
20
16.891474
70
0
0
SEQEND
8
Layer 1
0
POLYLINE
8
Layer 1
62
7
70
1
10
0.000000
20
0.000000
66
1
0
VERTEX
8
Layer 1
10
38.578583
20
16.666684
70
0
0
VERTEX
8
Layer 1
10
38.578583
20
15.343769
70
0
0
VERTEX
8
Layer 1
10
38.679918
20
15.343769
70
0
0
VERTEX
8
Layer 1
10
38.679918
20
16.666684
70
0
0
VERTEX
8
Layer 1
10
38.578583
20
16.666684
70
0
0
VERTEX
8
Layer 1
10
38.578583
20
16.666684
70
0
0
SEQEND
8
Layer 1
0
POLYLINE
8
Layer 1
62
7
70
1
10
0.000000
20
0.000000
66
1
0
VERTEX
8
Layer 1
10
14.355189
20
16.296162
70
0
0
VERTEX
8
Layer 1
10
14.078461
20
16.215544
70
0
0
VERTEX
8
Layer 1
10
13.995515
20
15.897991
70
0
0
VERTEX
8
Layer 1
10
13.998081
20
15.816341
70
0
0
VERTEX
8
Layer 1
10
14.075869
20
15.568294
70
0
0
VERTEX
8
Layer 1
10
14.283355
20
15.495190
70
0
0
VERTEX
8
Layer 1
10
14.361883
20
15.492068
70
0
0
VERTEX
8
Layer 1
10
14.626228
20
15.567263
70
0
0
VERTEX
8
Layer 1
10
14.626466
20
15.567527
70
0
0
VERTEX
8
Layer 1
10
14.712005
20
15.816870
70
0
0
VERTEX
8
Layer 1
10
14.714836
20
15.901881
70
0
0
VERTEX
8
Layer 1
10
14.626466
20
16.212184
70
0
0
VERTEX
8
Layer 1
10
14.623132
20
16.215808
70
0
0
VERTEX
8
Layer 1
10
14.607866
20
16.231048
70
0
0
VERTEX
8
Layer 1
10
14.355189
20
16.296162
70
0
0
VERTEX
8
Layer 1
10
14.355189
20
16.296162
70
0
0
SEQEND
8
Layer 1
0
POLYLINE
8
Layer 1
62
7
70
1
10
0.000000
20
0.000000
66
1
0
VERTEX
8
Layer 1
10
75.308524
20
16.296162
70
0
0
VERTEX
8
Layer 1
10
75.031770
20
16.215544
70
0
0
VERTEX
8
Layer 1
10
74.948691
20
15.897991
70
0
0
VERTEX
8
Layer 1
10
74.951337
20
15.816341
70
0
0
VERTEX
8
Layer 1
10
75.029124
20
15.568294
70
0
0
VERTEX
8
Layer 1
10
75.236557
20
15.495190
70
0
0
VERTEX
8
Layer 1
10
75.315138
20
15.492068
70
0
0
VERTEX
8
Layer 1
10
75.579457
20
15.567263
70
0
0
VERTEX
8
Layer 1
10
75.579721
20
15.567527
70
0
0
VERTEX
8
Layer 1
10
75.665182
20
15.816870
70
0
0
VERTEX
8
Layer 1
10
75.668092
20
15.901881
70
0
0
VERTEX
8
Layer 1
10
75.579721
20
16.212184
70
0
0
VERTEX
8
Layer 1
10
75.576546
20
16.215808
70
0
0
VERTEX
8
Layer 1
10
75.561201
20
16.231048
70
0
0
VERTEX
8
Layer 1
10
75.308524
20
16.296162
70
0
0
VERTEX
8
Layer 1
10
75.308524
20
16.296162
70
0
0
SEQEND
8
Layer 1
0
POLYLINE
8
Layer 1
62
7
70
1
10
0.000000
20
0.000000
66
1
0
VERTEX
8
Layer 1
10
2.976559
20
16.465151
70
0
0
VERTEX
8
Layer 1
10
2.976559
20
16.200568
70
0
0
VERTEX
8
Layer 1
10
3.042440
20
16.200568
70
0
0
VERTEX
8
Layer 1
10
3.075777
20
16.058196
70
0
0
VERTEX
8
Layer 1
10
3.042440
20
15.915824
70
0
0
VERTEX
8
Layer 1
10
2.976559
20
15.915824
70
0
0
VERTEX
8
Layer 1
10
2.976559
20
16.465151
70
0
0
VERTEX
8
Layer 1
10
2.871916
20
16.457637
70
0
0
VERTEX
8
Layer 1
10
2.731872
20
16.438534
70
0
0
VERTEX
8
Layer 1
10
2.669854
20
16.311402
70
0
0
VERTEX
8
Layer 1
10
2.613792
20
16.094894
70
0
0
VERTEX
8
Layer 1
10
2.612757
20
16.058196
70
0
0
VERTEX
8
Layer 1
10
2.669854
20
15.805493
70
0
0
VERTEX
8
Layer 1
10
2.731608
20
15.678123
70
0
0
VERTEX
8
Layer 1
10
2.871916
20
15.658993
70
0
0
VERTEX
8
Layer 1
10
2.976559
20
15.651241
70
0
0
VERTEX
8
Layer 1
10
3.204444
20
15.651241
70
0
0
VERTEX
8
Layer 1
10
3.278078
20
15.795412
70
0
0
VERTEX
8
Layer 1
10
3.340360
20
16.058196
70
0
0
VERTEX
8
Layer 1
10
3.278078
20
16.320954
70
0
0
VERTEX
8
Layer 1
10
3.204206
20
16.465151
70
0
0
VERTEX
8
Layer 1
10
2.976559
20
16.465151
70
0
0
VERTEX
8
Layer 1
10
2.976559
20
16.465151
70
0
0
SEQEND
8
Layer 1
0
POLYLINE
8
Layer 1
62
7
70
1
10
0.000000
20
0.000000
66
1
0
VERTEX
8
Layer 1
10
2.976559
20
15.915824
70
0
0
VERTEX
8
Layer 1
10
2.907820
20
15.920984
70
0
0
VERTEX
8
Layer 1
10
2.877340
20
16.058196
70
0
0
VERTEX
8
Layer 1
10
2.907820
20
16.195647
70
0
0
VERTEX
8
Layer 1
10
2.976559
20
16.200568
70
0
0
VERTEX
8
Layer 1
10
2.976559
20
15.915824
70
0
0
VERTEX
8
Layer 1
10
2.976559
20
15.915824
70
0
0
SEQEND
8
Layer 1
0
POLYLINE
8
Layer 1
62
7
70
1
10
0.000000
20
0.000000
66
1
0
VERTEX
8
Layer 1
10
84.516541
20
24.424866
70
0
0
VERTEX
8
Layer 1
10
84.619464
20
24.945007
70
0
0
VERTEX
8
Layer 1
10
84.854943
20
25.390436
70
0
0
VERTEX
8
Layer 1
10
84.838903
20
25.811510
70
0
0
VERTEX
8
Layer 1
10
84.967126
20
26.338172
70
0
0
VERTEX
8
Layer 1
10
84.761281
20
26.212082
70
0
0
VERTEX
8
Layer 1
10
84.761016
20
26.211823
70
0
0
VERTEX
8
Layer 1
10
84.475002
20
25.633058
70
0
0
VERTEX
8
Layer 1
10
84.335831
20
23.944781
70
0
0
VERTEX
8
Layer 1
10
84.356204
20
23.166271
70
0
0
VERTEX
8
Layer 1
10
84.447221
20
23.225194
70
0
0
VERTEX
8
Layer 1
10
84.707041
20
23.304252
70
0
0
VERTEX
8
Layer 1
10
84.513896
20
24.325648
70
0
0
VERTEX
8
Layer 1
10
84.516541
20
24.424866
70
0
0
VERTEX
8
Layer 1
10
84.516541
20
24.424866
70
0
0
SEQEND
8
Layer 1
0
POLYLINE
8
Layer 1
62
7
70
1
10
0.000000
20
0.000000
66
1
0
VERTEX
8
Layer 1
10
87.338584
20
22.016473
70
0
0
VERTEX
8
Layer 1
10
87.337790
20
22.012346
70
0
0
VERTEX
8
Layer 1
10
87.332234
20
21.978744
70
0
0
VERTEX
8
Layer 1
10
87.332763
20
21.917519
70
0
0
VERTEX
8
Layer 1
10
87.334615
20
21.597638
70
0
0
VERTEX
8
Layer 1
10
87.337261
20
20.902843
70
0
0
VERTEX
8
Layer 1
10
87.444682
20
20.902076
70
0
0
VERTEX
8
Layer 1
10
87.663492
20
20.903372
70
0
0
VERTEX
8
Layer 1
10
87.666931
20
21.956783
70
0
0
VERTEX
8
Layer 1
10
87.662169
20
22.015441
70
0
0
VERTEX
8
Layer 1
10
87.498392
20
22.143076
70
0
0
VERTEX
8
Layer 1
10
87.338584
20
22.016473
70
0
0
VERTEX
8
Layer 1
10
87.338584
20
22.016473
70
0
0
SEQEND
8
Layer 1
0
POLYLINE
8
Layer 1
62
7
70
1
10
0.000000
20
0.000000
66
1
0
VERTEX
8
Layer 1
10
84.505694
20
22.142838
70
0
0
VERTEX
8
Layer 1
10
84.761281
20
21.677225
70
0
0
VERTEX
8
Layer 1
10
84.796735
20
21.648544
70
0
0
VERTEX
8
Layer 1
10
84.920031
20
21.573350
70
0
0
VERTEX
8
Layer 1
10
84.847535
20
21.676696
70
0
0
VERTEX
8
Layer 1
10
84.773452
20
21.812877
70
0
0
VERTEX
8
Layer 1
10
84.754666
20
21.857565
70
0
0
VERTEX
8
Layer 1
10
84.582687
20
22.095795
70
0
0
VERTEX
8
Layer 1
10
84.570516
20
22.100954
70
0
0
VERTEX
8
Layer 1
10
84.536914
20
22.121909
70
0
0
VERTEX
8
Layer 1
10
84.505694
20
22.142838
70
0
0
VERTEX
8
Layer 1
10
84.505694
20
22.142838
70
0
0
SEQEND
8
Layer 1
0
POLYLINE
8
Layer 1
62
7
70
1
10
0.000000
20
0.000000
66
1
0
VERTEX
8
Layer 1
10
87.444682
20
26.612574
70
0
0
VERTEX
8
Layer 1
10
86.230510
20
26.575884
70
0
0
VERTEX
8
Layer 1
10
86.623151
20
26.389072
70
0
0
VERTEX
8
Layer 1
10
87.498921
20
26.474596
70
0
0
VERTEX
8
Layer 1
10
87.503154
20
26.474596
70
0
0
VERTEX
8
Layer 1
10
88.378659
20
26.389072
70
0
0
VERTEX
8
Layer 1
10
88.751986
20
26.568647
70
0
0
VERTEX
8
Layer 1
10
87.444682
20
26.612574
70
0
0
VERTEX
8
Layer 1
10
87.444682
20
26.612574
70
0
0
SEQEND
8
Layer 1
0
POLYLINE
8
Layer 1
62
7
70
1
10
0.000000
20
0.000000
66
1
0
VERTEX
8
Layer 1
10
85.217686
20
4.497930
70
0
0
VERTEX
8
Layer 1
10
85.067139
20
2.494428
70
0
0
VERTEX
8
Layer 1
10
84.865493
20
2.002634
70
0
0
VERTEX
8
Layer 1
10
84.619200
20
1.758967
70
0
0
VERTEX
8
Layer 1
10
84.163852
20
1.574189
70
0
0
VERTEX
8
Layer 1
10
83.273531
20
1.424534
70
0
0
VERTEX
8
Layer 1
10
80.036358
20
1.322934
70
0
0
VERTEX
8
Layer 1
10
76.799184
20
1.424534
70
0
0
VERTEX
8
Layer 1
10
75.908863
20
1.574189
70
0
0
VERTEX
8
Layer 1
10
75.453515
20
1.758967
70
0
0
VERTEX
8
Layer 1
10
75.207222
20
2.002634
70
0
0
VERTEX
8
Layer 1
10
75.005576
20
2.494428
70
0
0
VERTEX
8
Layer 1
10
74.856352
20
4.174424
70
0
0
VERTEX
8
Layer 1
10
74.855029
20
4.497930
70
0
0
VERTEX
8
Layer 1
10
75.005576
20
6.501432
70
0
0
VERTEX
8
Layer 1
10
75.207222
20
6.993212
70
0
0
VERTEX
8
Layer 1
10
75.453515
20
7.236787
70
0
0
VERTEX
8
Layer 1
10
75.908863
20
7.421618
70
0
0
VERTEX
8
Layer 1
10
76.799184
20
7.571644
70
0
0
VERTEX
8
Layer 1
10
80.036358
20
7.672926
70
0
0
VERTEX
8
Layer 1
10
83.273531
20
7.571644
70
0
0
VERTEX
8
Layer 1
10
84.163852
20
7.421618
70
0
0
VERTEX
8
Layer 1
10
84.619200
20
7.236787
70
0
0
VERTEX
8
Layer 1
10
84.865493
20
6.993212
70
0
0
VERTEX
8
Layer 1
10
85.067139
20
6.501432
70
0
0
VERTEX
8
Layer 1
10
85.217686
20
4.497930
70
0
0
VERTEX
8
Layer 1
10
85.217686
20
4.497930
70
0
0
SEQEND
8
Layer 1
0
POLYLINE
8
Layer 1
62
7
70
1
10
0.000000
20
0.000000
66
1
0
VERTEX
8
Layer 1
10
25.228148
20
10.619243
70
0
0
VERTEX
8
Layer 1
10
25.363800
20
10.280762
70
0
0
VERTEX
8
Layer 1
10
26.777652
20
8.875165
70
0
0
VERTEX
8
Layer 1
10
27.068428
20
8.733586
70
0
0
VERTEX
8
Layer 1
10
27.116318
20
8.731258
70
0
0
VERTEX
8
Layer 1
10
29.072115
20
8.731258
70
0
0
VERTEX
8
Layer 1
10
29.280342
20
8.893262
70
0
0
VERTEX
8
Layer 1
10
29.283782
20
8.942871
70
0
0
VERTEX
8
Layer 1
10
29.283782
20
10.441496
70
0
0
VERTEX
8
Layer 1
10
29.199115
20
10.695469
70
0
0
VERTEX
8
Layer 1
10
28.369383
20
11.525149
70
0
0
VERTEX
8
Layer 1
10
28.267783
20
11.796187
70
0
0
VERTEX
8
Layer 1
10
28.267783
20
15.343769
70
0
0
VERTEX
8
Layer 1
10
29.089049
20
15.343769
70
0
0
VERTEX
8
Layer 1
10
29.300715
20
15.555383
70
0
0
VERTEX
8
Layer 1
10
29.300715
20
17.833019
70
0
0
VERTEX
8
Layer 1
10
29.089049
20
18.044633
70
0
0
VERTEX
8
Layer 1
10
28.267783
20
18.044633
70
0
0
VERTEX
8
Layer 1
10
28.267783
20
19.102965
70
0
0
VERTEX
8
Layer 1
10
28.105858
20
19.311218
70
0
0
VERTEX
8
Layer 1
10
28.056117
20
19.314578
70
0
0
VERTEX
8
Layer 1
10
25.440026
20
19.314578
70
0
0
VERTEX
8
Layer 1
10
25.390417
20
19.311218
70
0
0
VERTEX
8
Layer 1
10
25.228148
20
19.102965
70
0
0
VERTEX
8
Layer 1
10
25.228148
20
18.044633
70
0
0
VERTEX
8
Layer 1
10
24.872601
20
18.044633
70
0
0
VERTEX
8
Layer 1
10
24.660988
20
17.833019
70
0
0
VERTEX
8
Layer 1
10
24.660988
20
15.555383
70
0
0
VERTEX
8
Layer 1
10
24.872601
20
15.343769
70
0
0
VERTEX
8
Layer 1
10
25.228148
20
15.343769
70
0
0
VERTEX
8
Layer 1
10
25.228148
20
10.619243
70
0
0
VERTEX
8
Layer 1
10
25.228148
20
10.619243
70
0
0
SEQEND
8
Layer 1
0
POLYLINE
8
Layer 1
62
7
70
1
10
0.000000
20
0.000000
66
1
0
VERTEX
8
Layer 1
10
66.718043
20
10.619243
70
0
0
VERTEX
8
Layer 1
10
66.853774
20
10.280762
70
0
0
VERTEX
8
Layer 1
10
68.267706
20
8.875165
70
0
0
VERTEX
8
Layer 1
10
68.558218
20
8.733586
70
0
0
VERTEX
8
Layer 1
10
68.606372
20
8.731258
70
0
0
VERTEX
8
Layer 1
10
70.561905
20
8.731258
70
0
0
VERTEX
8
Layer 1
10
70.770396
20
8.893262
70
0
0
VERTEX
8
Layer 1
10
70.773571
20
8.942871
70
0
0
VERTEX
8
Layer 1
10
70.773571
20
10.441496
70
0
0
VERTEX
8
Layer 1
10
70.689169
20
10.695469
70
0
0
VERTEX
8
Layer 1
10
69.859172
20
11.525149
70
0
0
VERTEX
8
Layer 1
10
69.757573
20
11.796187
70
0
0
VERTEX
8
Layer 1
10
69.757573
20
15.343769
70
0
0
VERTEX
8
Layer 1
10
70.579103
20
15.343769
70
0
0
VERTEX
8
Layer 1
10
70.790769
20
15.555383
70
0
0
VERTEX
8
Layer 1
10
70.790769
20
17.833019
70
0
0
VERTEX
8
Layer 1
10
70.579103
20
18.044633
70
0
0
VERTEX
8
Layer 1
10
69.757573
20
18.044633
70
0
0
VERTEX
8
Layer 1
10
69.757573
20
19.102965
70
0
0
VERTEX
8
Layer 1
10
69.595648
20
19.311218
70
0
0
VERTEX
8
Layer 1
10
69.546171
20
19.314578
70
0
0
VERTEX
8
Layer 1
10
66.929974
20
19.314578
70
0
0
VERTEX
8
Layer 1
10
66.880232
20
19.311218
70
0
0
VERTEX
8
Layer 1
10
66.718043
20
19.102965
70
0
0
VERTEX
8
Layer 1
10
66.718043
20
18.044633
70
0
0
VERTEX
8
Layer 1
10
66.362443
20
18.044633
70
0
0
VERTEX
8
Layer 1
10
66.151042
20
17.833019
70
0
0
VERTEX
8
Layer 1
10
66.151042
20
15.555383
70
0
0
VERTEX
8
Layer 1
10
66.362443
20
15.343769
70
0
0
VERTEX
8
Layer 1
10
66.718043
20
15.343769
70
0
0
VERTEX
8
Layer 1
10
66.718043
20
10.619243
70
0
0
VERTEX
8
Layer 1
10
66.718043
20
10.619243
70
0
0
SEQEND
8
Layer 1
0
POLYLINE
8
Layer 1
62
7
70
1
10
0.000000
20
0.000000
66
1
0
VERTEX
8
Layer 1
10
2.384089
20
10.913300
70
0
0
VERTEX
8
Layer 1
10
2.400368
20
10.868083
70
0
0
VERTEX
8
Layer 1
10
2.491835
20
10.745343
70
0
0
VERTEX
8
Layer 1
10
2.976559
20
10.583339
70
0
0
VERTEX
8
Layer 1
10
4.610835
20
10.583339
70
0
0
VERTEX
8
Layer 1
10
4.593002
20
10.841731
70
0
0
VERTEX
8
Layer 1
10
4.592738
20
10.845329
70
0
0
VERTEX
8
Layer 1
10
4.592738
20
10.848689
70
0
0
VERTEX
8
Layer 1
10
4.591706
20
10.921820
70
0
0
VERTEX
8
Layer 1
10
4.591706
20
10.936795
70
0
0
VERTEX
8
Layer 1
10
4.592738
20
11.009926
70
0
0
VERTEX
8
Layer 1
10
4.592738
20
11.013286
70
0
0
VERTEX
8
Layer 1
10
4.593002
20
11.016911
70
0
0
VERTEX
8
Layer 1
10
4.610835
20
11.275276
70
0
0
VERTEX
8
Layer 1
10
2.976559
20
11.275276
70
0
0
VERTEX
8
Layer 1
10
2.491835
20
11.113272
70
0
0
VERTEX
8
Layer 1
10
2.400368
20
10.990559
70
0
0
VERTEX
8
Layer 1
10
2.381247
20
10.929308
70
0
0
VERTEX
8
Layer 1
10
2.384089
20
10.913300
70
0
0
VERTEX
8
Layer 1
10
2.384089
20
10.913300
70
0
0
SEQEND
8
Layer 1
0
POLYLINE
8
Layer 1
62
7
70
1
10
0.000000
20
0.000000
66
1
0
VERTEX
8
Layer 1
10
6.973985
20
10.895203
70
0
0
VERTEX
8
Layer 1
10
7.230270
20
10.403188
70
0
0
VERTEX
8
Layer 1
10
7.871344
20
10.176384
70
0
0
VERTEX
8
Layer 1
10
8.512111
20
10.403168
70
0
0
VERTEX
8
Layer 1
10
8.768704
20
10.893139
70
0
0
VERTEX
8
Layer 1
10
8.769736
20
10.933435
70
0
0
VERTEX
8
Layer 1
10
8.525407
20
11.444014
70
0
0
VERTEX
8
Layer 1
10
7.871344
20
11.682496
70
0
0
VERTEX
8
Layer 1
10
7.215526
20
11.442387
70
0
0
VERTEX
8
Layer 1
10
6.972953
20
10.929308
70
0
0
VERTEX
8
Layer 1
10
6.973985
20
10.895203
70
0
0
VERTEX
8
Layer 1
10
6.973985
20
10.895203
70
0
0
SEQEND
8
Layer 1
0
POLYLINE
8
Layer 1
62
7
70
1
10
0.000000
20
0.000000
66
1
0
VERTEX
8
Layer 1
10
28.003200
20
11.796187
70
0
0
VERTEX
8
Layer 1
10
28.174915
20
11.345576
70
0
0
VERTEX
8
Layer 1
10
28.178619
20
11.341687
70
0
0
VERTEX
8
Layer 1
10
29.009674
20
10.511002
70
0
0
VERTEX
8
Layer 1
10
29.011526
20
10.506081
70
0
0
VERTEX
8
Layer 1
10
29.019199
20
10.441496
70
0
0
VERTEX
8
Layer 1
10
29.019199
20
8.995841
70
0
0
VERTEX
8
Layer 1
10
27.123726
20
8.995841
70
0
0
VERTEX
8
Layer 1
10
27.090389
20
8.997640
70
0
0
VERTEX
8
Layer 1
10
26.964712
20
9.062251
70
0
0
VERTEX
8
Layer 1
10
26.964183
20
9.062754
70
0
0
VERTEX
8
Layer 1
10
25.556284
20
10.462425
70
0
0
VERTEX
8
Layer 1
10
25.492731
20
10.619243
70
0
0
VERTEX
8
Layer 1
10
25.492731
20
15.608352
70
0
0
VERTEX
8
Layer 1
10
24.925571
20
15.608352
70
0
0
VERTEX
8
Layer 1
10
24.925571
20
17.780050
70
0
0
VERTEX
8
Layer 1
10
25.492731
20
17.780050
70
0
0
VERTEX
8
Layer 1
10
25.492731
20
19.049995
70
0
0
VERTEX
8
Layer 1
10
28.003200
20
19.049995
70
0
0
VERTEX
8
Layer 1
10
28.003200
20
17.780050
70
0
0
VERTEX
8
Layer 1
10
29.036132
20
17.780050
70
0
0
VERTEX
8
Layer 1
10
29.036132
20
15.608352
70
0
0
VERTEX
8
Layer 1
10
28.003200
20
15.608352
70
0
0
VERTEX
8
Layer 1
10
28.003200
20
11.796187
70
0
0
VERTEX
8
Layer 1
10
28.003200
20
11.796187
70
0
0
SEQEND
8
Layer 1
0
POLYLINE
8
Layer 1
62
7
70
1
10
0.000000
20
0.000000
66
1
0
VERTEX
8
Layer 1
10
69.492990
20
11.796187
70
0
0
VERTEX
8
Layer 1
10
69.664968
20
11.345576
70
0
0
VERTEX
8
Layer 1
10
69.668408
20
11.341687
70
0
0
VERTEX
8
Layer 1
10
70.499463
20
10.511002
70
0
0
VERTEX
8
Layer 1
10
70.501580
20
10.506081
70
0
0
VERTEX
8
Layer 1
10
70.508988
20
10.441496
70
0
0
VERTEX
8
Layer 1
10
70.508988
20
8.995841
70
0
0
VERTEX
8
Layer 1
10
68.613780
20
8.995841
70
0
0
VERTEX
8
Layer 1
10
68.580178
20
8.997640
70
0
0
VERTEX
8
Layer 1
10
68.454766
20
9.062251
70
0
0
VERTEX
8
Layer 1
10
68.454237
20
9.062754
70
0
0
VERTEX
8
Layer 1
10
67.046126
20
10.462425
70
0
0
VERTEX
8
Layer 1
10
66.982626
20
10.619243
70
0
0
VERTEX
8
Layer 1
10
66.982626
20
15.608352
70
0
0
VERTEX
8
Layer 1
10
66.415625
20
15.608352
70
0
0
VERTEX
8
Layer 1
10
66.415625
20
17.780050
70
0
0
VERTEX
8
Layer 1
10
66.982626
20
17.780050
70
0
0
VERTEX
8
Layer 1
10
66.982626
20
19.049995
70
0
0
VERTEX
8
Layer 1
10
69.492990
20
19.049995
70
0
0
VERTEX
8
Layer 1
10
69.492990
20
17.780050
70
0
0
VERTEX
8
Layer 1
10
70.526186
20
17.780050
70
0
0
VERTEX
8
Layer 1
10
70.526186
20
15.608352
70
0
0
VERTEX
8
Layer 1
10
69.492990
20
15.608352
70
0
0
VERTEX
8
Layer 1
10
69.492990
20
11.796187
70
0
0
VERTEX
8
Layer 1
10
69.492990
20
11.796187
70
0
0
SEQEND
8
Layer 1
0
POLYLINE
8
Layer 1
62
7
70
1
10
0.000000
20
0.000000
66
1
0
VERTEX
8
Layer 1
10
61.349125
20
12.058707
70
0
0
VERTEX
8
Layer 1
10
61.520045
20
11.602645
70
0
0
VERTEX
8
Layer 1
10
61.977774
20
11.438577
70
0
0
VERTEX
8
Layer 1
10
62.708288
20
11.438577
70
0
0
VERTEX
8
Layer 1
10
62.708288
20
17.780050
70
0
0
VERTEX
8
Layer 1
10
65.218387
20
17.780050
70
0
0
VERTEX
8
Layer 1
10
65.218387
20
8.995841
70
0
0
VERTEX
8
Layer 1
10
60.741642
20
8.995841
70
0
0
VERTEX
8
Layer 1
10
60.741642
20
8.731258
70
0
0
VERTEX
8
Layer 1
10
65.271303
20
8.731258
70
0
0
VERTEX
8
Layer 1
10
65.479795
20
8.893262
70
0
0
VERTEX
8
Layer 1
10
65.482970
20
8.942871
70
0
0
VERTEX
8
Layer 1
10
65.482970
20
17.833019
70
0
0
VERTEX
8
Layer 1
10
65.271303
20
18.044633
70
0
0
VERTEX
8
Layer 1
10
62.655371
20
18.044633
70
0
0
VERTEX
8
Layer 1
10
62.443705
20
17.833019
70
0
0
VERTEX
8
Layer 1
10
62.443705
20
11.703160
70
0
0
VERTEX
8
Layer 1
10
61.977774
20
11.703160
70
0
0
VERTEX
8
Layer 1
10
61.704757
20
11.792063
70
0
0
VERTEX
8
Layer 1
10
61.613708
20
12.058707
70
0
0
VERTEX
8
Layer 1
10
61.613708
20
17.833019
70
0
0
VERTEX
8
Layer 1
10
61.402041
20
18.044633
70
0
0
VERTEX
8
Layer 1
10
58.786109
20
18.044633
70
0
0
VERTEX
8
Layer 1
10
58.574443
20
17.833019
70
0
0
VERTEX
8
Layer 1
10
58.574443
20
10.907083
70
0
0
VERTEX
8
Layer 1
10
58.709909
20
10.568602
70
0
0
VERTEX
8
Layer 1
10
60.403241
20
8.875165
70
0
0
VERTEX
8
Layer 1
10
60.440018
20
8.841325
70
0
0
VERTEX
8
Layer 1
10
60.741642
20
8.731258
70
0
0
VERTEX
8
Layer 1
10
60.741642
20
8.995841
70
0
0
VERTEX
8
Layer 1
10
60.611203
20
9.043122
70
0
0
VERTEX
8
Layer 1
10
60.585538
20
9.066908
70
0
0
VERTEX
8
Layer 1
10
58.896970
20
10.755688
70
0
0
VERTEX
8
Layer 1
10
58.839026
20
10.907083
70
0
0
VERTEX
8
Layer 1
10
58.839026
20
17.780050
70
0
0
VERTEX
8
Layer 1
10
61.349125
20
17.780050
70
0
0
VERTEX
8
Layer 1
10
61.349125
20
12.058707
70
0
0
VERTEX
8
Layer 1
10
61.349125
20
12.058707
70
0
0
SEQEND
8
Layer 1
0
POLYLINE
8
Layer 1
62
7
70
1
10
0.000000
20
0.000000
66
1
0
VERTEX
8
Layer 1
10
83.211089
20
12.245000
70
0
0
VERTEX
8
Layer 1
10
83.373278
20
11.863101
70
0
0
VERTEX
8
Layer 1
10
83.414289
20
11.825900
70
0
0
VERTEX
8
Layer 1
10
83.763538
20
11.700832
70
0
0
VERTEX
8
Layer 1
10
85.315053
20
11.700832
70
0
0
VERTEX
8
Layer 1
10
85.315053
20
13.612603
70
0
0
VERTEX
8
Layer 1
10
84.341387
20
13.634563
70
0
0
VERTEX
8
Layer 1
10
84.341387
20
15.603960
70
0
0
VERTEX
8
Layer 1
10
87.816950
20
15.603960
70
0
0
VERTEX
8
Layer 1
10
87.816950
20
10.914068
70
0
0
VERTEX
8
Layer 1
10
87.815362
20
10.880730
70
0
0
VERTEX
8
Layer 1
10
87.756360
20
10.761377
70
0
0
VERTEX
8
Layer 1
10
86.051387
20
9.056563
70
0
0
VERTEX
8
Layer 1
10
85.905602
20
8.995841
70
0
0
VERTEX
8
Layer 1
10
85.905602
20
8.731258
70
0
0
VERTEX
8
Layer 1
10
86.244268
20
8.875165
70
0
0
VERTEX
8
Layer 1
10
87.937600
20
10.568602
70
0
0
VERTEX
8
Layer 1
10
88.079152
20
10.857473
70
0
0
VERTEX
8
Layer 1
10
88.081533
20
10.907083
70
0
0
VERTEX
8
Layer 1
10
88.081533
20
15.656930
70
0
0
VERTEX
8
Layer 1
10
87.869866
20
15.868543
70
0
0
VERTEX
8
Layer 1
10
84.288471
20
15.868543
70
0
0
VERTEX
8
Layer 1
10
84.076804
20
15.656930
70
0
0
VERTEX
8
Layer 1
10
84.076804
20
13.582625
70
0
0
VERTEX
8
Layer 1
10
84.288471
20
13.371012
70
0
0
VERTEX
8
Layer 1
10
85.050470
20
13.353973
70
0
0
VERTEX
8
Layer 1
10
85.050470
20
11.965415
70
0
0
VERTEX
8
Layer 1
10
83.763538
20
11.965415
70
0
0
VERTEX
8
Layer 1
10
83.560338
20
12.050161
70
0
0
VERTEX
8
Layer 1
10
83.475672
20
12.245000
70
0
0
VERTEX
8
Layer 1
10
83.475672
20
16.503648
70
0
0
VERTEX
8
Layer 1
10
83.560338
20
16.698461
70
0
0
VERTEX
8
Layer 1
10
83.763538
20
16.782942
70
0
0
VERTEX
8
Layer 1
10
83.763538
20
17.047525
70
0
0
VERTEX
8
Layer 1
10
83.373278
20
16.885521
70
0
0
VERTEX
8
Layer 1
10
83.373543
20
16.885283
70
0
0
VERTEX
8
Layer 1
10
83.211089
20
16.503648
70
0
0
VERTEX
8
Layer 1
10
83.211089
20
12.245000
70
0
0
VERTEX
8
Layer 1
10
83.211089
20
12.245000
70
0
0
SEQEND
8
Layer 1
0
POLYLINE
8
Layer 1
62
7
70
1
10
0.000000
20
0.000000
66
1
0
VERTEX
8
Layer 1
10
89.164471
20
24.325648
70
0
0
VERTEX
8
Layer 1
10
89.004398
20
24.697440
70
0
0
VERTEX
8
Layer 1
10
88.673140
20
25.024570
70
0
0
VERTEX
8
Layer 1
10
88.595618
20
24.977025
70
0
0
VERTEX
8
Layer 1
10
88.272033
20
25.058410
70
0
0
VERTEX
8
Layer 1
10
87.500509
20
25.151676
70
0
0
VERTEX
8
Layer 1
10
86.730572
20
25.058410
70
0
0
VERTEX
8
Layer 1
10
86.730043
20
25.058410
70
0
0
VERTEX
8
Layer 1
10
86.406458
20
24.977025
70
0
0
VERTEX
8
Layer 1
10
86.327877
20
25.025073
70
0
0
VERTEX
8
Layer 1
10
85.997942
20
24.698234
70
0
0
VERTEX
8
Layer 1
10
85.836811
20
24.325648
70
0
0
VERTEX
8
Layer 1
10
85.920948
20
23.829555
70
0
0
VERTEX
8
Layer 1
10
86.081021
20
23.625429
70
0
0
VERTEX
8
Layer 1
10
86.879003
20
23.390029
70
0
0
VERTEX
8
Layer 1
10
87.476167
20
23.328805
70
0
0
VERTEX
8
Layer 1
10
88.120162
20
23.393125
70
0
0
VERTEX
8
Layer 1
10
88.920790
20
23.626461
70
0
0
VERTEX
8
Layer 1
10
89.080334
20
23.828761
70
0
0
VERTEX
8
Layer 1
10
89.164471
20
24.325648
70
0
0
VERTEX
8
Layer 1
10
89.164471
20
24.325648
70
0
0
SEQEND
8
Layer 1
0
POLYLINE
8
Layer 1
62
7
70
1
10
0.000000
20
0.000000
66
1
0
VERTEX
8
Layer 1
10
16.302599
20
15.894128
70
0
0
VERTEX
8
Layer 1
10
16.188091
20
15.159249
70
0
0
VERTEX
8
Layer 1
10
15.777058
20
14.474058
70
0
0
VERTEX
8
Layer 1
10
15.768274
20
14.464745
70
0
0
VERTEX
8
Layer 1
10
15.091507
20
14.027446
70
0
0
VERTEX
8
Layer 1
10
14.355189
20
13.904332
70
0
0
VERTEX
8
Layer 1
10
13.620498
20
14.025954
70
0
0
VERTEX
8
Layer 1
10
12.946470
20
14.451304
70
0
0
VERTEX
8
Layer 1
10
12.933055
20
14.464745
70
0
0
VERTEX
8
Layer 1
10
12.920911
20
14.477921
70
0
0
VERTEX
8
Layer 1
10
12.920117
20
14.478715
70
0
0
VERTEX
8
Layer 1
10
12.518285
20
15.164832
70
0
0
VERTEX
8
Layer 1
10
12.408017
20
15.894128
70
0
0
VERTEX
8
Layer 1
10
12.519247
20
16.620237
70
0
0
VERTEX
8
Layer 1
10
12.919085
20
17.300228
70
0
0
VERTEX
8
Layer 1
10
12.919350
20
17.299964
70
0
0
VERTEX
8
Layer 1
10
12.927367
20
17.309012
70
0
0
VERTEX
8
Layer 1
10
12.933055
20
17.314436
70
0
0
VERTEX
8
Layer 1
10
12.933558
20
17.314966
70
0
0
VERTEX
8
Layer 1
10
13.607901
20
17.755275
70
0
0
VERTEX
8
Layer 1
10
14.352331
20
17.883660
70
0
0
VERTEX
8
Layer 1
10
14.452079
20
17.881861
70
0
0
VERTEX
8
Layer 1
10
15.099669
20
17.755466
70
0
0
VERTEX
8
Layer 1
10
15.695408
20
17.387038
70
0
0
VERTEX
8
Layer 1
10
15.766977
20
17.315997
70
0
0
VERTEX
8
Layer 1
10
15.782482
20
17.299461
70
0
0
VERTEX
8
Layer 1
10
16.187896
20
16.622711
70
0
0
VERTEX
8
Layer 1
10
16.302599
20
15.894128
70
0
0
VERTEX
8
Layer 1
10
16.302599
20
15.894128
70
0
0
SEQEND
8
Layer 1
0
POLYLINE
8
Layer 1
62
7
70
1
10
0.000000
20
0.000000
66
1
0
VERTEX
8
Layer 1
10
77.255855
20
15.894128
70
0
0
VERTEX
8
Layer 1
10
77.141356
20
15.159249
70
0
0
VERTEX
8
Layer 1
10
76.730393
20
14.474058
70
0
0
VERTEX
8
Layer 1
10
76.721662
20
14.464745
70
0
0
VERTEX
8
Layer 1
10
76.044858
20
14.027446
70
0
0
VERTEX
8
Layer 1
10
75.308524
20
13.904332
70
0
0
VERTEX
8
Layer 1
10
74.573744
20
14.025954
70
0
0
VERTEX
8
Layer 1
10
73.899884
20
14.451304
70
0
0
VERTEX
8
Layer 1
10
73.886390
20
14.464745
70
0
0
VERTEX
8
Layer 1
10
73.874219
20
14.477921
70
0
0
VERTEX
8
Layer 1
10
73.873426
20
14.478715
70
0
0
VERTEX
8
Layer 1
10
73.471557
20
15.164832
70
0
0
VERTEX
8
Layer 1
10
73.361193
20
15.894128
70
0
0
VERTEX
8
Layer 1
10
73.472616
20
16.620237
70
0
0
VERTEX
8
Layer 1
10
73.872367
20
17.300228
70
0
0
VERTEX
8
Layer 1
10
73.872632
20
17.299964
70
0
0
VERTEX
8
Layer 1
10
73.880569
20
17.309012
70
0
0
VERTEX
8
Layer 1
10
73.886390
20
17.314436
70
0
0
VERTEX
8
Layer 1
10
73.886919
20
17.314966
70
0
0
VERTEX
8
Layer 1
10
74.561242
20
17.755275
70
0
0
VERTEX
8
Layer 1
10
75.305613
20
17.883660
70
0
0
VERTEX
8
Layer 1
10
75.405361
20
17.881861
70
0
0
VERTEX
8
Layer 1
10
76.052895
20
17.755476
70
0
0
VERTEX
8
Layer 1
10
76.648637
20
17.387038
70
0
0
VERTEX
8
Layer 1
10
76.720339
20
17.315997
70
0
0
VERTEX
8
Layer 1
10
76.735685
20
17.299461
70
0
0
VERTEX
8
Layer 1
10
77.141125
20
16.622711
70
0
0
VERTEX
8
Layer 1
10
77.255855
20
15.894128
70
0
0
VERTEX
8
Layer 1
10
77.255855
20
15.894128
70
0
0
SEQEND
8
Layer 1
0
POLYLINE
8
Layer 1
62
7
70
1
10
0.000000
20
0.000000
66
1
0
VERTEX
8
Layer 1
10
0.529166
20
16.058196
70
0
0
VERTEX
8
Layer 1
10
0.721494
20
15.202612
70
0
0
VERTEX
8
Layer 1
10
1.245990
20
14.503937
70
0
0
VERTEX
8
Layer 1
10
2.023922
20
14.032879
70
0
0
VERTEX
8
Layer 1
10
2.976559
20
13.860147
70
0
0
VERTEX
8
Layer 1
10
2.976559
20
14.124730
70
0
0
VERTEX
8
Layer 1
10
2.115327
20
14.280327
70
0
0
VERTEX
8
Layer 1
10
1.422782
20
14.700780
70
0
0
VERTEX
8
Layer 1
10
0.961424
20
15.316573
70
0
0
VERTEX
8
Layer 1
10
0.793749
20
16.058196
70
0
0
VERTEX
8
Layer 1
10
0.949901
20
16.774804
70
0
0
VERTEX
8
Layer 1
10
1.381023
20
17.376802
70
0
0
VERTEX
8
Layer 1
10
2.031138
20
17.801957
70
0
0
VERTEX
8
Layer 1
10
2.844267
20
17.988038
70
0
0
VERTEX
8
Layer 1
10
2.844267
20
17.783674
70
0
0
VERTEX
8
Layer 1
10
2.162770
20
17.620172
70
0
0
VERTEX
8
Layer 1
10
1.601505
20
17.249934
70
0
0
VERTEX
8
Layer 1
10
1.220628
20
16.715198
70
0
0
VERTEX
8
Layer 1
10
1.080295
20
16.058196
70
0
0
VERTEX
8
Layer 1
10
1.233186
20
15.373846
70
0
0
VERTEX
8
Layer 1
10
1.646026
20
14.825210
70
0
0
VERTEX
8
Layer 1
10
2.250067
20
14.460599
70
0
0
VERTEX
8
Layer 1
10
2.976559
20
14.328326
70
0
0
VERTEX
8
Layer 1
10
7.871344
20
14.328326
70
0
0
VERTEX
8
Layer 1
10
8.576890
20
14.452656
70
0
0
VERTEX
8
Layer 1
10
9.168985
20
14.796493
70
0
0
VERTEX
8
Layer 1
10
9.585611
20
15.316105
70
0
0
VERTEX
8
Layer 1
10
9.764753
20
15.967762
70
0
0
VERTEX
8
Layer 1
10
9.765282
20
15.974482
70
0
0
VERTEX
8
Layer 1
10
9.767611
20
16.049915
70
0
0
VERTEX
8
Layer 1
10
9.767611
20
16.058196
70
0
0
VERTEX
8
Layer 1
10
9.614704
20
16.742546
70
0
0
VERTEX
8
Layer 1
10
9.201856
20
17.291183
70
0
0
VERTEX
8
Layer 1
10
8.597819
20
17.655793
70
0
0
VERTEX
8
Layer 1
10
7.871344
20
17.788066
70
0
0
VERTEX
8
Layer 1
10
7.871344
20
17.523483
70
0
0
VERTEX
8
Layer 1
10
8.506439
20
17.408341
70
0
0
VERTEX
8
Layer 1
10
9.025085
20
17.094330
70
0
0
VERTEX
8
Layer 1
10
9.374782
20
16.628574
70
0
0
VERTEX
8
Layer 1
10
9.503028
20
16.058196
70
0
0
VERTEX
8
Layer 1
10
9.500699
20
15.982737
70
0
0
VERTEX
8
Layer 1
10
9.350426
20
15.438951
70
0
0
VERTEX
8
Layer 1
10
8.996973
20
14.997490
70
0
0
VERTEX
8
Layer 1
10
8.488044
20
14.701195
70
0
0
VERTEX
8
Layer 1
10
7.871344
20
14.592909
70
0
0
VERTEX
8
Layer 1
10
2.976559
20
14.592909
70
0
0
VERTEX
8
Layer 1
10
2.341454
20
14.708052
70
0
0
VERTEX
8
Layer 1
10
1.822804
20
15.022063
70
0
0
VERTEX
8
Layer 1
10
1.473110
20
15.487819
70
0
0
VERTEX
8
Layer 1
10
1.344878
20
16.058196
70
0
0
VERTEX
8
Layer 1
10
1.473116
20
16.628574
70
0
0
VERTEX
8
Layer 1
10
1.822811
20
17.094330
70
0
0
VERTEX
8
Layer 1
10
2.341459
20
17.408341
70
0
0
VERTEX
8
Layer 1
10
2.976559
20
17.523483
70
0
0
VERTEX
8
Layer 1
10
2.976559
20
18.256246
70
0
0
VERTEX
8
Layer 1
10
2.023928
20
18.083514
70
0
0
VERTEX
8
Layer 1
10
1.245998
20
17.612456
70
0
0
VERTEX
8
Layer 1
10
0.721501
20
16.913781
70
0
0
VERTEX
8
Layer 1
10
0.529166
20
16.058196
70
0
0
VERTEX
8
Layer 1
10
0.529166
20
16.058196
70
0
0
SEQEND
8
Layer 1
0
POLYLINE
8
Layer 1
62
7
70
1
10
0.000000
20
0.000000
66
1
0
VERTEX
8
Layer 1
10
1.752862
20
16.058196
70
0
0
VERTEX
8
Layer 1
10
1.843296
20
15.642782
70
0
0
VERTEX
8
Layer 1
10
2.090739
20
15.299944
70
0
0
VERTEX
8
Layer 1
10
2.459405
20
15.061827
70
0
0
VERTEX
8
Layer 1
10
2.913509
20
14.960574
70
0
0
VERTEX
8
Layer 1
10
2.976559
20
14.959039
70
0
0
VERTEX
8
Layer 1
10
3.452875
20
15.045426
70
0
0
VERTEX
8
Layer 1
10
3.841841
20
15.281000
70
0
0
VERTEX
8
Layer 1
10
4.104090
20
15.630383
70
0
0
VERTEX
8
Layer 1
10
4.200255
20
16.058196
70
0
0
VERTEX
8
Layer 1
10
4.109819
20
16.473606
70
0
0
VERTEX
8
Layer 1
10
3.862373
20
16.816435
70
0
0
VERTEX
8
Layer 1
10
3.493706
20
17.054544
70
0
0
VERTEX
8
Layer 1
10
3.039609
20
17.155792
70
0
0
VERTEX
8
Layer 1
10
2.976559
20
17.157089
70
0
0
VERTEX
8
Layer 1
10
2.500246
20
17.070743
70
0
0
VERTEX
8
Layer 1
10
2.111282
20
16.835260
70
0
0
VERTEX
8
Layer 1
10
1.849033
20
16.485968
70
0
0
VERTEX
8
Layer 1
10
1.752862
20
16.058196
70
0
0
VERTEX
8
Layer 1
10
1.752862
20
16.058196
70
0
0
SEQEND
8
Layer 1
0
POLYLINE
8
Layer 1
62
7
70
1
10
0.000000
20
0.000000
66
1
0
VERTEX
8
Layer 1
10
4.729421
20
16.058196
70
0
0
VERTEX
8
Layer 1
10
4.645211
20
15.552939
70
0
0
VERTEX
8
Layer 1
10
4.413165
20
15.122075
70
0
0
VERTEX
8
Layer 1
10
7.871344
20
15.122075
70
0
0
VERTEX
8
Layer 1
10
8.309693
20
15.198050
70
0
0
VERTEX
8
Layer 1
10
8.651861
20
15.398723
70
0
0
VERTEX
8
Layer 1
10
8.972062
20
16.010651
70
0
0
VERTEX
8
Layer 1
10
8.973597
20
16.062324
70
0
0
VERTEX
8
Layer 1
10
8.669694
20
16.702171
70
0
0
VERTEX
8
Layer 1
10
8.322426
20
16.913887
70
0
0
VERTEX
8
Layer 1
10
7.871344
20
16.994317
70
0
0
VERTEX
8
Layer 1
10
4.412636
20
16.994317
70
0
0
VERTEX
8
Layer 1
10
4.645016
20
16.563335
70
0
0
VERTEX
8
Layer 1
10
4.729421
20
16.058196
70
0
0
VERTEX
8
Layer 1
10
4.729421
20
16.058196
70
0
0
SEQEND
8
Layer 1
0
POLYLINE
8
Layer 1
62
7
70
1
10
0.000000
20
0.000000
66
1
0
VERTEX
8
Layer 1
10
85.043062
20
24.325648
70
0
0
VERTEX
8
Layer 1
10
85.196908
20
23.504177
70
0
0
VERTEX
8
Layer 1
10
85.599546
20
22.994468
70
0
0
VERTEX
8
Layer 1
10
86.162620
20
22.719039
70
0
0
VERTEX
8
Layer 1
10
86.797776
20
22.600408
70
0
0
VERTEX
8
Layer 1
10
86.553301
20
22.134027
70
0
0
VERTEX
8
Layer 1
10
86.039316
20
22.045481
70
0
0
VERTEX
8
Layer 1
10
85.721465
20
22.141093
70
0
0
VERTEX
8
Layer 1
10
85.432263
20
22.423957
70
0
0
VERTEX
8
Layer 1
10
85.281947
20
22.594637
70
0
0
VERTEX
8
Layer 1
10
84.841714
20
22.783870
70
0
0
VERTEX
8
Layer 1
10
84.696127
20
22.758275
70
0
0
VERTEX
8
Layer 1
10
84.815256
20
22.571727
70
0
0
VERTEX
8
Layer 1
10
84.964712
20
22.466585
70
0
0
VERTEX
8
Layer 1
10
85.243351
20
22.061188
70
0
0
VERTEX
8
Layer 1
10
85.490372
20
21.748047
70
0
0
VERTEX
8
Layer 1
10
85.886176
20
21.577222
70
0
0
VERTEX
8
Layer 1
10
86.540866
20
21.592982
70
0
0
VERTEX
8
Layer 1
10
86.544306
20
20.765922
70
0
0
VERTEX
8
Layer 1
10
85.141222
20
20.935916
70
0
0
VERTEX
8
Layer 1
10
84.412031
20
21.279821
70
0
0
VERTEX
8
Layer 1
10
84.150346
20
21.613834
70
0
0
VERTEX
8
Layer 1
10
83.960818
20
22.131458
70
0
0
VERTEX
8
Layer 1
10
83.806665
20
23.944781
70
0
0
VERTEX
8
Layer 1
10
83.960818
20
25.758121
70
0
0
VERTEX
8
Layer 1
10
84.150346
20
26.275657
70
0
0
VERTEX
8
Layer 1
10
84.412031
20
26.609473
70
0
0
VERTEX
8
Layer 1
10
85.381166
20
27.006165
70
0
0
VERTEX
8
Layer 1
10
87.444682
20
27.141740
70
0
0
VERTEX
8
Layer 1
10
89.508197
20
27.006165
70
0
0
VERTEX
8
Layer 1
10
90.477332
20
26.609473
70
0
0
VERTEX
8
Layer 1
10
90.739017
20
26.275523
70
0
0
VERTEX
8
Layer 1
10
90.928545
20
25.758002
70
0
0
VERTEX
8
Layer 1
10
91.082698
20
23.944781
70
0
0
VERTEX
8
Layer 1
10
90.928545
20
22.131458
70
0
0
VERTEX
8
Layer 1
10
90.739017
20
21.613834
70
0
0
VERTEX
8
Layer 1
10
90.477332
20
21.279821
70
0
0
VERTEX
8
Layer 1
10
89.779395
20
20.944055
70
0
0
VERTEX
8
Layer 1
10
88.456976
20
20.771346
70
0
0
VERTEX
8
Layer 1
10
88.460680
20
21.956783
70
0
0
VERTEX
8
Layer 1
10
88.381768
20
22.361661
70
0
0
VERTEX
8
Layer 1
10
88.199272
20
22.603265
70
0
0
VERTEX
8
Layer 1
10
88.836206
20
22.720148
70
0
0
VERTEX
8
Layer 1
10
89.400611
20
22.993912
70
0
0
VERTEX
8
Layer 1
10
89.804084
20
23.502949
70
0
0
VERTEX
8
Layer 1
10
89.958220
20
24.325648
70
0
0
VERTEX
8
Layer 1
10
89.852751
20
24.845143
70
0
0
VERTEX
8
Layer 1
10
89.562139
20
25.262007
70
0
0
VERTEX
8
Layer 1
10
89.636818
20
25.576949
70
0
0
VERTEX
8
Layer 1
10
89.523775
20
26.185727
70
0
0
VERTEX
8
Layer 1
10
89.265575
20
26.175287
70
0
0
VERTEX
8
Layer 1
10
88.465443
20
25.828125
70
0
0
VERTEX
8
Layer 1
10
87.501038
20
25.945430
70
0
0
VERTEX
8
Layer 1
10
86.536368
20
25.828125
70
0
0
VERTEX
8
Layer 1
10
85.730746
20
26.176234
70
0
0
VERTEX
8
Layer 1
10
85.476978
20
26.185727
70
0
0
VERTEX
8
Layer 1
10
85.364728
20
25.576935
70
0
0
VERTEX
8
Layer 1
10
85.439407
20
25.262007
70
0
0
VERTEX
8
Layer 1
10
85.148862
20
24.845143
70
0
0
VERTEX
8
Layer 1
10
85.043062
20
24.325648
70
0
0
VERTEX
8
Layer 1
10
85.043062
20
24.325648
70
0
0
SEQEND
8
Layer 1
0
POLYLINE
8
Layer 1
62
7
70
1
10
0.000000
20
0.000000
66
1
0
VERTEX
8
Layer 1
10
89.693637
20
24.325648
70
0
0
VERTEX
8
Layer 1
10
89.562801
20
23.611528
70
0
0
VERTEX
8
Layer 1
10
89.240671
20
23.204768
70
0
0
VERTEX
8
Layer 1
10
88.761015
20
22.973887
70
0
0
VERTEX
8
Layer 1
10
88.172814
20
22.866552
70
0
0
VERTEX
8
Layer 1
10
87.516119
20
22.800671
70
0
0
VERTEX
8
Layer 1
10
88.036289
20
22.394747
70
0
0
VERTEX
8
Layer 1
10
88.196097
20
21.956783
70
0
0
VERTEX
8
Layer 1
10
88.191335
20
20.492528
70
0
0
VERTEX
8
Layer 1
10
88.470734
20
20.507001
70
0
0
VERTEX
8
Layer 1
10
89.846897
20
20.688217
70
0
0
VERTEX
8
Layer 1
10
90.651957
20
21.081146
70
0
0
VERTEX
8
Layer 1
10
90.698259
20
21.123506
70
0
0
VERTEX
8
Layer 1
10
90.987878
20
21.518445
70
0
0
VERTEX
8
Layer 1
10
91.185621
20
22.068940
70
0
0
VERTEX
8
Layer 1
10
91.347281
20
23.944781
70
0
0
VERTEX
8
Layer 1
10
91.185885
20
25.820375
70
0
0
VERTEX
8
Layer 1
10
90.971606
20
26.401662
70
0
0
VERTEX
8
Layer 1
10
90.651957
20
26.808169
70
0
0
VERTEX
8
Layer 1
10
90.199454
20
27.083534
70
0
0
VERTEX
8
Layer 1
10
89.556848
20
27.266279
70
0
0
VERTEX
8
Layer 1
10
87.444682
20
27.406323
70
0
0
VERTEX
8
Layer 1
10
87.444682
20
27.516651
70
0
0
VERTEX
8
Layer 1
10
89.612145
20
27.371440
70
0
0
VERTEX
8
Layer 1
10
90.321063
20
27.166875
70
0
0
VERTEX
8
Layer 1
10
90.817056
20
26.863202
70
0
0
VERTEX
8
Layer 1
10
91.157500
20
26.434184
70
0
0
VERTEX
8
Layer 1
10
91.382801
20
25.829939
70
0
0
VERTEX
8
Layer 1
10
91.545718
20
23.944781
70
0
0
VERTEX
8
Layer 1
10
91.382801
20
22.059620
70
0
0
VERTEX
8
Layer 1
10
91.157500
20
21.455373
70
0
0
VERTEX
8
Layer 1
10
90.817056
20
21.026351
70
0
0
VERTEX
8
Layer 1
10
90.321063
20
20.722682
70
0
0
VERTEX
8
Layer 1
10
89.612145
20
20.518113
70
0
0
VERTEX
8
Layer 1
10
87.444682
20
20.372910
70
0
0
VERTEX
8
Layer 1
10
87.444682
20
20.108327
70
0
0
VERTEX
8
Layer 1
10
89.661598
20
20.258190
70
0
0
VERTEX
8
Layer 1
10
90.424728
20
20.479236
70
0
0
VERTEX
8
Layer 1
10
90.991747
20
20.827665
70
0
0
VERTEX
8
Layer 1
10
91.388234
20
21.325955
70
0
0
VERTEX
8
Layer 1
10
91.639769
20
21.996585
70
0
0
VERTEX
8
Layer 1
10
91.810301
20
23.944781
70
0
0
VERTEX
8
Layer 1
10
91.639769
20
25.892979
70
0
0
VERTEX
8
Layer 1
10
91.388234
20
26.563609
70
0
0
VERTEX
8
Layer 1
10
90.991747
20
27.061899
70
0
0
VERTEX
8
Layer 1
10
90.424728
20
27.410327
70
0
0
VERTEX
8
Layer 1
10
89.661598
20
27.631372
70
0
0
VERTEX
8
Layer 1
10
87.444682
20
27.781234
70
0
0
VERTEX
8
Layer 1
10
87.444682
20
28.310400
70
0
0
VERTEX
8
Layer 1
10
89.760047
20
28.151237
70
0
0
VERTEX
8
Layer 1
10
90.631782
20
27.897223
70
0
0
VERTEX
8
Layer 1
10
91.341195
20
27.459289
70
0
0
VERTEX
8
Layer 1
10
91.849674
20
26.822453
70
0
0
VERTEX
8
Layer 1
10
92.153664
20
26.019047
70
0
0
VERTEX
8
Layer 1
10
92.339467
20
23.944781
70
0
0
VERTEX
8
Layer 1
10
92.153664
20
21.870513
70
0
0
VERTEX
8
Layer 1
10
91.849674
20
21.067107
70
0
0
VERTEX
8
Layer 1
10
91.341195
20
20.430272
70
0
0
VERTEX
8
Layer 1
10
90.631782
20
19.992337
70
0
0
VERTEX
8
Layer 1
10
89.760047
20
19.738334
70
0
0
VERTEX
8
Layer 1
10
88.068833
20
19.586649
70
0
0
VERTEX
8
Layer 1
10
88.068833
20
16.994820
70
0
0
VERTEX
8
Layer 1
10
87.860871
20
16.461791
70
0
0
VERTEX
8
Layer 1
10
87.786787
20
16.397709
70
0
0
VERTEX
8
Layer 1
10
87.870131
20
16.397709
70
0
0
VERTEX
8
Layer 1
10
88.402737
20
16.189959
70
0
0
VERTEX
8
Layer 1
10
88.610699
20
15.656930
70
0
0
VERTEX
8
Layer 1
10
88.610699
20
10.894700
70
0
0
VERTEX
8
Layer 1
10
88.610170
20
10.882291
70
0
0
VERTEX
8
Layer 1
10
88.607788
20
10.832682
70
0
0
VERTEX
8
Layer 1
10
88.607524
20
10.820802
70
0
0
VERTEX
8
Layer 1
10
88.606201
20
10.808896
70
0
0
VERTEX
8
Layer 1
10
88.311191
20
10.194984
70
0
0
VERTEX
8
Layer 1
10
88.311720
20
10.194481
70
0
0
VERTEX
8
Layer 1
10
86.618389
20
8.501044
70
0
0
VERTEX
8
Layer 1
10
86.618124
20
8.501309
70
0
0
VERTEX
8
Layer 1
10
86.291530
20
8.277475
70
0
0
VERTEX
8
Layer 1
10
85.905602
20
8.202092
70
0
0
VERTEX
8
Layer 1
10
85.698169
20
8.202092
70
0
0
VERTEX
8
Layer 1
10
86.270297
20
7.582227
70
0
0
VERTEX
8
Layer 1
10
86.596958
20
6.783054
70
0
0
VERTEX
8
Layer 1
10
86.748531
20
5.750416
70
0
0
VERTEX
8
Layer 1
10
86.783224
20
4.497930
70
0
0
VERTEX
8
Layer 1
10
86.748531
20
3.245444
70
0
0
VERTEX
8
Layer 1
10
86.596958
20
2.212806
70
0
0
VERTEX
8
Layer 1
10
86.230609
20
1.351023
70
0
0
VERTEX
8
Layer 1
10
85.567201
20
0.703016
70
0
0
VERTEX
8
Layer 1
10
84.646352
20
0.314740
70
0
0
VERTEX
8
Layer 1
10
83.466941
20
0.111408
70
0
0
VERTEX
8
Layer 1
10
80.036358
20
0.000019
70
0
0
VERTEX
8
Layer 1
10
76.606039
20
0.111408
70
0
0
VERTEX
8
Layer 1
10
75.426495
20
0.314740
70
0
0
VERTEX
8
Layer 1
10
74.505514
20
0.703016
70
0
0
VERTEX
8
Layer 1
10
73.842106
20
1.351023
70
0
0
VERTEX
8
Layer 1
10
73.475757
20
2.212806
70
0
0
VERTEX
8
Layer 1
10
73.324184
20
3.245444
70
0
0
VERTEX
8
Layer 1
10
73.289491
20
4.497930
70
0
0
VERTEX
8
Layer 1
10
73.818657
20
4.497930
70
0
0
VERTEX
8
Layer 1
10
73.988660
20
2.342914
70
0
0
VERTEX
8
Layer 1
10
74.283140
20
1.643340
70
0
0
VERTEX
8
Layer 1
10
74.790140
20
1.149202
70
0
0
VERTEX
8
Layer 1
10
75.564311
20
0.825608
70
0
0
VERTEX
8
Layer 1
10
76.660303
20
0.637668
70
0
0
VERTEX
8
Layer 1
10
80.036358
20
0.529185
70
0
0
VERTEX
8
Layer 1
10
80.036358
20
0.793768
70
0
0
VERTEX
8
Layer 1
10
76.687530
20
0.900924
70
0
0
VERTEX
8
Layer 1
10
75.633233
20
1.081204
70
0
0
VERTEX
8
Layer 1
10
74.932551
20
1.372411
70
0
0
VERTEX
8
Layer 1
10
74.503828
20
1.789662
70
0
0
VERTEX
8
Layer 1
10
74.245165
20
2.408148
70
0
0
VERTEX
8
Layer 1
10
74.083240
20
4.497930
70
0
0
VERTEX
8
Layer 1
10
74.245165
20
6.587712
70
0
0
VERTEX
8
Layer 1
10
74.503828
20
7.206245
70
0
0
VERTEX
8
Layer 1
10
74.932551
20
7.623581
70
0
0
VERTEX
8
Layer 1
10
75.633233
20
7.914702
70
0
0
VERTEX
8
Layer 1
10
76.687530
20
8.094857
70
0
0
VERTEX
8
Layer 1
10
80.036358
20
8.202092
70
0
0
VERTEX
8
Layer 1
10
80.036358
20
7.937509
70
0
0
VERTEX
8
Layer 1
10
76.771932
20
7.834930
70
0
0
VERTEX
8
Layer 1
10
76.627999
20
7.818923
70
0
0
VERTEX
8
Layer 1
10
75.360382
20
7.489729
70
0
0
VERTEX
8
Layer 1
10
75.311170
20
7.459751
70
0
0
VERTEX
8
Layer 1
10
74.987188
20
7.140059
70
0
0
VERTEX
8
Layer 1
10
74.749725
20
6.567816
70
0
0
VERTEX
8
Layer 1
10
74.590446
20
4.497930
70
0
0
VERTEX
8
Layer 1
10
74.590446
20
4.496898
70
0
0
VERTEX
8
Layer 1
10
74.591769
20
4.173392
70
0
0
VERTEX
8
Layer 1
10
74.591769
20
4.172122
70
0
0
VERTEX
8
Layer 1
10
74.728293
20
2.514589
70
0
0
VERTEX
8
Layer 1
10
74.749725
20
2.428044
70
0
0
VERTEX
8
Layer 1
10
74.987188
20
1.855761
70
0
0
VERTEX
8
Layer 1
10
75.311170
20
1.536188
70
0
0
VERTEX
8
Layer 1
10
75.360382
20
1.506025
70
0
0
VERTEX
8
Layer 1
10
75.884885
20
1.307092
70
0
0
VERTEX
8
Layer 1
10
76.771932
20
1.161538
70
0
0
VERTEX
8
Layer 1
10
80.036358
20
1.058351
70
0
0
VERTEX
8
Layer 1
10
83.300518
20
1.161538
70
0
0
VERTEX
8
Layer 1
10
83.300783
20
1.161274
70
0
0
VERTEX
8
Layer 1
10
84.232776
20
1.318767
70
0
0
VERTEX
8
Layer 1
10
84.761545
20
1.536188
70
0
0
VERTEX
8
Layer 1
10
84.805995
20
1.566086
70
0
0
VERTEX
8
Layer 1
10
85.103188
20
1.883083
70
0
0
VERTEX
8
Layer 1
10
85.322990
20
2.428044
70
0
0
VERTEX
8
Layer 1
10
85.482269
20
4.497930
70
0
0
VERTEX
8
Layer 1
10
85.347067
20
6.469126
70
0
0
VERTEX
8
Layer 1
10
85.322990
20
6.567816
70
0
0
VERTEX
8
Layer 1
10
85.103188
20
7.112781
70
0
0
VERTEX
8
Layer 1
10
84.805995
20
7.429801
70
0
0
VERTEX
8
Layer 1
10
84.761545
20
7.459751
70
0
0
VERTEX
8
Layer 1
10
84.232644
20
7.677106
70
0
0
VERTEX
8
Layer 1
10
83.300518
20
7.834930
70
0
0
VERTEX
8
Layer 1
10
80.036358
20
7.937509
70
0
0
VERTEX
8
Layer 1
10
80.036358
20
8.202092
70
0
0
VERTEX
8
Layer 1
10
83.385185
20
8.094857
70
0
0
VERTEX
8
Layer 1
10
84.439482
20
7.914702
70
0
0
VERTEX
8
Layer 1
10
85.140164
20
7.623581
70
0
0
VERTEX
8
Layer 1
10
85.568887
20
7.206245
70
0
0
VERTEX
8
Layer 1
10
85.827550
20
6.587712
70
0
0
VERTEX
8
Layer 1
10
85.989475
20
4.497930
70
0
0
VERTEX
8
Layer 1
10
85.827550
20
2.408148
70
0
0
VERTEX
8
Layer 1
10
85.568887
20
1.789662
70
0
0
VERTEX
8
Layer 1
10
85.140164
20
1.372411
70
0
0
VERTEX
8
Layer 1
10
84.439482
20
1.081204
70
0
0
VERTEX
8
Layer 1
10
83.385185
20
0.900924
70
0
0
VERTEX
8
Layer 1
10
80.036358
20
0.793768
70
0
0
VERTEX
8
Layer 1
10
80.036358
20
0.529185
70
0
0
VERTEX
8
Layer 1
10
83.412412
20
0.637668
70
0
0
VERTEX
8
Layer 1
10
84.508404
20
0.825608
70
0
0
VERTEX
8
Layer 1
10
85.282575
20
1.149202
70
0
0
VERTEX
8
Layer 1
10
85.789575
20
1.643340
70
0
0
VERTEX
8
Layer 1
10
86.084055
20
2.342914
70
0
0
VERTEX
8
Layer 1
10
86.254058
20
4.497930
70
0
0
VERTEX
8
Layer 1
10
86.084055
20
6.652890
70
0
0
VERTEX
8
Layer 1
10
85.789575
20
7.352461
70
0
0
VERTEX
8
Layer 1
10
85.282575
20
7.846608
70
0
0
VERTEX
8
Layer 1
10
84.508404
20
8.170217
70
0
0
VERTEX
8
Layer 1
10
83.412412
20
8.358173
70
0
0
VERTEX
8
Layer 1
10
80.036358
20
8.466675
70
0
0
VERTEX
8
Layer 1
10
80.036358
20
8.995841
70
0
0
VERTEX
8
Layer 1
10
81.019548
20
8.991449
70
0
0
VERTEX
8
Layer 1
10
79.816489
20
10.194481
70
0
0
VERTEX
8
Layer 1
10
79.698485
20
10.336589
70
0
0
VERTEX
8
Layer 1
10
79.698485
20
8.995312
70
0
0
VERTEX
8
Layer 1
10
80.036358
20
8.995841
70
0
0
VERTEX
8
Layer 1
10
80.036358
20
8.466675
70
0
0
VERTEX
8
Layer 1
10
76.660303
20
8.358173
70
0
0
VERTEX
8
Layer 1
10
75.564311
20
8.170217
70
0
0
VERTEX
8
Layer 1
10
74.790140
20
7.846608
70
0
0
VERTEX
8
Layer 1
10
74.283140
20
7.352461
70
0
0
VERTEX
8
Layer 1
10
73.988660
20
6.652890
70
0
0
VERTEX
8
Layer 1
10
73.818657
20
4.497930
70
0
0
VERTEX
8
Layer 1
10
73.289491
20
4.497930
70
0
0
VERTEX
8
Layer 1
10
73.324184
20
5.750416
70
0
0
VERTEX
8
Layer 1
10
73.475757
20
6.783054
70
0
0
VERTEX
8
Layer 1
10
73.802418
20
7.582227
70
0
0
VERTEX
8
Layer 1
10
74.374546
20
8.202092
70
0
0
VERTEX
8
Layer 1
10
71.659395
20
8.202092
70
0
0
VERTEX
8
Layer 1
10
71.189760
20
8.354016
70
0
0
VERTEX
8
Layer 1
10
71.110650
20
8.426379
70
0
0
VERTEX
8
Layer 1
10
71.031275
20
8.353751
70
0
0
VERTEX
8
Layer 1
10
70.561905
20
8.202092
70
0
0
VERTEX
8
Layer 1
10
68.593407
20
8.202092
70
0
0
VERTEX
8
Layer 1
10
68.580707
20
8.202621
70
0
0
VERTEX
8
Layer 1
10
68.532553
20
8.204923
70
0
0
VERTEX
8
Layer 1
10
68.520382
20
8.205717
70
0
0
VERTEX
8
Layer 1
10
68.507947
20
8.206749
70
0
0
VERTEX
8
Layer 1
10
67.894379
20
8.500012
70
0
0
VERTEX
8
Layer 1
10
66.480712
20
9.905610
70
0
0
VERTEX
8
Layer 1
10
66.474362
20
9.911801
70
0
0
VERTEX
8
Layer 1
10
66.468541
20
9.918019
70
0
0
VERTEX
8
Layer 1
10
66.188877
20
10.619243
70
0
0
VERTEX
8
Layer 1
10
66.188877
20
14.832674
70
0
0
VERTEX
8
Layer 1
10
66.012136
20
14.892364
70
0
0
VERTEX
8
Layer 1
10
66.012136
20
8.926335
70
0
0
VERTEX
8
Layer 1
10
66.006844
20
8.839261
70
0
0
VERTEX
8
Layer 1
10
66.003669
20
8.818332
70
0
0
VERTEX
8
Layer 1
10
65.740673
20
8.353751
70
0
0
VERTEX
8
Layer 1
10
65.271303
20
8.202092
70
0
0
VERTEX
8
Layer 1
10
60.741642
20
8.202092
70
0
0
VERTEX
8
Layer 1
10
60.100028
20
8.435666
70
0
0
VERTEX
8
Layer 1
10
60.090239
20
8.443947
70
0
0
VERTEX
8
Layer 1
10
60.080978
20
8.452467
70
0
0
VERTEX
8
Layer 1
10
60.044201
20
8.486307
70
0
0
VERTEX
8
Layer 1
10
60.036529
20
8.493557
70
0
0
VERTEX
8
Layer 1
10
58.335524
20
10.194481
70
0
0
VERTEX
8
Layer 1
10
58.215139
20
10.339949
70
0
0
VERTEX
8
Layer 1
10
58.215139
20
8.925039
70
0
0
VERTEX
8
Layer 1
10
58.213816
20
8.907206
70
0
0
VERTEX
8
Layer 1
10
58.210641
20
8.857596
70
0
0
VERTEX
8
Layer 1
10
58.209318
20
8.837964
70
0
0
VERTEX
8
Layer 1
10
58.206408
20
8.818332
70
0
0
VERTEX
8
Layer 1
10
57.943412
20
8.353751
70
0
0
VERTEX
8
Layer 1
10
57.474307
20
8.202092
70
0
0
VERTEX
8
Layer 1
10
55.399976
20
8.202092
70
0
0
VERTEX
8
Layer 1
10
55.097029
20
8.242653
70
0
0
VERTEX
8
Layer 1
10
55.081154
20
8.247309
70
0
0
VERTEX
8
Layer 1
10
55.065279
20
8.252998
70
0
0
VERTEX
8
Layer 1
10
55.024797
20
8.267709
70
0
0
VERTEX
8
Layer 1
10
54.995958
20
8.278054
70
0
0
VERTEX
8
Layer 1
10
54.968706
20
8.291759
70
0
0
VERTEX
8
Layer 1
10
54.695656
20
8.501044
70
0
0
VERTEX
8
Layer 1
10
54.646444
20
8.550124
70
0
0
VERTEX
8
Layer 1
10
54.589029
20
8.492763
70
0
0
VERTEX
8
Layer 1
10
54.580562
20
8.485011
70
0
0
VERTEX
8
Layer 1
10
54.543521
20
8.451170
70
0
0
VERTEX
8
Layer 1
10
54.535054
20
8.443154
70
0
0
VERTEX
8
Layer 1
10
54.526058
20
8.435666
70
0
0
VERTEX
8
Layer 1
10
53.982605
20
8.206749
70
0
0
VERTEX
8
Layer 1
10
53.970170
20
8.205717
70
0
0
VERTEX
8
Layer 1
10
53.958263
20
8.204923
70
0
0
VERTEX
8
Layer 1
10
53.910374
20
8.202621
70
0
0
VERTEX
8
Layer 1
10
53.897409
20
8.202092
70
0
0
VERTEX
8
Layer 1
10
52.931946
20
8.202092
70
0
0
VERTEX
8
Layer 1
10
52.919246
20
8.202621
70
0
0
VERTEX
8
Layer 1
10
52.871092
20
8.204923
70
0
0
VERTEX
8
Layer 1
10
52.858656
20
8.205717
70
0
0
VERTEX
8
Layer 1
10
52.846221
20
8.206749
70
0
0
VERTEX
8
Layer 1
10
52.303032
20
8.435666
70
0
0
VERTEX
8
Layer 1
10
52.293242
20
8.443947
70
0
0
VERTEX
8
Layer 1
10
52.283717
20
8.452467
70
0
0
VERTEX
8
Layer 1
10
52.247205
20
8.486307
70
0
0
VERTEX
8
Layer 1
10
52.239268
20
8.493557
70
0
0
VERTEX
8
Layer 1
10
50.538528
20
10.194481
70
0
0
VERTEX
8
Layer 1
10
50.418407
20
10.339685
70
0
0
VERTEX
8
Layer 1
10
50.418407
20
8.926335
70
0
0
VERTEX
8
Layer 1
10
50.412851
20
8.839261
70
0
0
VERTEX
8
Layer 1
10
50.409676
20
8.818332
70
0
0
VERTEX
8
Layer 1
10
50.146681
20
8.353751
70
0
0
VERTEX
8
Layer 1
10
49.677575
20
8.202092
70
0
0
VERTEX
8
Layer 1
10
47.061378
20
8.202092
70
0
0
VERTEX
8
Layer 1
10
46.592273
20
8.353751
70
0
0
VERTEX
8
Layer 1
10
46.434846
20
8.527661
70
0
0
VERTEX
8
Layer 1
10
46.277419
20
8.353751
70
0
0
VERTEX
8
Layer 1
10
45.808313
20
8.202092
70
0
0
VERTEX
8
Layer 1
10
43.174389
20
8.202092
70
0
0
VERTEX
8
Layer 1
10
43.156398
20
8.203388
70
0
0
VERTEX
8
Layer 1
10
43.106921
20
8.206749
70
0
0
VERTEX
8
Layer 1
10
43.087342
20
8.208045
70
0
0
VERTEX
8
Layer 1
10
43.067762
20
8.210876
70
0
0
VERTEX
8
Layer 1
10
42.659511
20
8.409578
70
0
0
VERTEX
8
Layer 1
10
42.460015
20
8.818332
70
0
0
VERTEX
8
Layer 1
10
42.456840
20
8.839261
70
0
0
VERTEX
8
Layer 1
10
42.451284
20
8.926335
70
0
0
VERTEX
8
Layer 1
10
42.451284
20
10.340452
70
0
0
VERTEX
8
Layer 1
10
42.330634
20
10.194481
70
0
0
VERTEX
8
Layer 1
10
40.637568
20
8.501044
70
0
0
VERTEX
8
Layer 1
10
40.629630
20
8.492763
70
0
0
VERTEX
8
Layer 1
10
40.620634
20
8.485011
70
0
0
VERTEX
8
Layer 1
10
40.583857
20
8.451170
70
0
0
VERTEX
8
Layer 1
10
40.575126
20
8.443154
70
0
0
VERTEX
8
Layer 1
10
40.566130
20
8.435666
70
0
0
VERTEX
8
Layer 1
10
39.924516
20
8.202092
70
0
0
VERTEX
8
Layer 1
10
37.337953
20
8.202092
70
0
0
VERTEX
8
Layer 1
10
37.325253
20
8.202621
70
0
0
VERTEX
8
Layer 1
10
37.277363
20
8.204923
70
0
0
VERTEX
8
Layer 1
10
37.264928
20
8.205717
70
0
0
VERTEX
8
Layer 1
10
37.252493
20
8.206749
70
0
0
VERTEX
8
Layer 1
10
36.709039
20
8.435666
70
0
0
VERTEX
8
Layer 1
10
36.699250
20
8.443947
70
0
0
VERTEX
8
Layer 1
10
36.689989
20
8.452467
70
0
0
VERTEX
8
Layer 1
10
36.653212
20
8.486307
70
0
0
VERTEX
8
Layer 1
10
36.645539
20
8.493557
70
0
0
VERTEX
8
Layer 1
10
34.944535
20
10.194481
70
0
0
VERTEX
8
Layer 1
10
34.658256
20
10.811754
70
0
0
VERTEX
8
Layer 1
10
34.657198
20
10.823633
70
0
0
VERTEX
8
Layer 1
10
34.656669
20
10.835513
70
0
0
VERTEX
8
Layer 1
10
34.654817
20
10.885122
70
0
0
VERTEX
8
Layer 1
10
34.654288
20
10.895970
70
0
0
VERTEX
8
Layer 1
10
34.654288
20
14.232203
70
0
0
VERTEX
8
Layer 1
10
33.534837
20
13.457848
70
0
0
VERTEX
8
Layer 1
10
33.534837
20
8.926335
70
0
0
VERTEX
8
Layer 1
10
33.529545
20
8.839261
70
0
0
VERTEX
8
Layer 1
10
33.526370
20
8.818332
70
0
0
VERTEX
8
Layer 1
10
33.263375
20
8.353751
70
0
0
VERTEX
8
Layer 1
10
32.794005
20
8.202092
70
0
0
VERTEX
8
Layer 1
10
30.178072
20
8.202092
70
0
0
VERTEX
8
Layer 1
10
29.708438
20
8.354016
70
0
0
VERTEX
8
Layer 1
10
29.625094
20
8.430771
70
0
0
VERTEX
8
Layer 1
10
29.541486
20
8.354016
70
0
0
VERTEX
8
Layer 1
10
29.072115
20
8.202092
70
0
0
VERTEX
8
Layer 1
10
27.103353
20
8.202092
70
0
0
VERTEX
8
Layer 1
10
27.090918
20
8.202621
70
0
0
VERTEX
8
Layer 1
10
27.042764
20
8.204923
70
0
0
VERTEX
8
Layer 1
10
27.030328
20
8.205717
70
0
0
VERTEX
8
Layer 1
10
27.017893
20
8.206749
70
0
0
VERTEX
8
Layer 1
10
26.404563
20
8.500012
70
0
0
VERTEX
8
Layer 1
10
24.990685
20
9.905610
70
0
0
VERTEX
8
Layer 1
10
24.984493
20
9.911801
70
0
0
VERTEX
8
Layer 1
10
24.978540
20
9.918019
70
0
0
VERTEX
8
Layer 1
10
24.698982
20
10.619243
70
0
0
VERTEX
8
Layer 1
10
24.698982
20
14.832674
70
0
0
VERTEX
8
Layer 1
10
24.339837
20
15.022592
70
0
0
VERTEX
8
Layer 1
10
24.176007
20
15.285376
70
0
0
VERTEX
8
Layer 1
10
24.144998
20
15.268072
70
0
0
VERTEX
8
Layer 1
10
24.145262
20
15.267543
70
0
0
VERTEX
8
Layer 1
10
23.072458
20
14.688503
70
0
0
VERTEX
8
Layer 1
10
24.136214
20
14.116448
70
0
0
VERTEX
8
Layer 1
10
24.453766
20
13.813897
70
0
0
VERTEX
8
Layer 1
10
24.558673
20
13.396333
70
0
0
VERTEX
8
Layer 1
10
24.558673
20
10.678695
70
0
0
VERTEX
8
Layer 1
10
24.480760
20
10.282247
70
0
0
VERTEX
8
Layer 1
10
24.236993
20
9.944874
70
0
0
VERTEX
8
Layer 1
10
24.237258
20
9.944609
70
0
0
VERTEX
8
Layer 1
10
22.552341
20
8.446011
70
0
0
VERTEX
8
Layer 1
10
22.534772
20
8.430242
70
0
0
VERTEX
8
Layer 1
10
22.515643
20
8.416034
70
0
0
VERTEX
8
Layer 1
10
22.480771
20
8.390184
70
0
0
VERTEX
8
Layer 1
10
22.470690
20
8.382696
70
0
0
VERTEX
8
Layer 1
10
22.460107
20
8.375711
70
0
0
VERTEX
8
Layer 1
10
21.861938
20
8.202092
70
0
0
VERTEX
8
Layer 1
10
20.075764
20
8.202092
70
0
0
VERTEX
8
Layer 1
10
20.208294
20
8.127162
70
0
0
VERTEX
8
Layer 1
10
21.674877
20
6.943259
70
0
0
VERTEX
8
Layer 1
10
21.915939
20
6.689788
70
0
0
VERTEX
8
Layer 1
10
21.929644
20
6.675051
70
0
0
VERTEX
8
Layer 1
10
21.942053
20
6.659547
70
0
0
VERTEX
8
Layer 1
10
22.121801
20
6.382750
70
0
0
VERTEX
8
Layer 1
10
22.224972
20
5.953136
70
0
0
VERTEX
8
Layer 1
10
22.121775
20
5.523388
70
0
0
VERTEX
8
Layer 1
10
21.941524
20
5.246197
70
0
0
VERTEX
8
Layer 1
10
21.929380
20
5.231222
70
0
0
VERTEX
8
Layer 1
10
21.915939
20
5.217014
70
0
0
VERTEX
8
Layer 1
10
21.025779
20
4.350729
70
0
0
VERTEX
8
Layer 1
10
20.099524
20
3.718125
70
0
0
VERTEX
8
Layer 1
10
19.461118
20
3.560430
70
0
0
VERTEX
8
Layer 1
10
18.862916
20
3.847850
70
0
0
VERTEX
8
Layer 1
10
18.623809
20
4.482419
70
0
0
VERTEX
8
Layer 1
10
18.915621
20
5.083928
70
0
0
VERTEX
8
Layer 1
10
18.924405
20
5.091945
70
0
0
VERTEX
8
Layer 1
10
18.933956
20
5.099698
70
0
0
VERTEX
8
Layer 1
10
18.964463
20
5.124515
70
0
0
VERTEX
8
Layer 1
10
18.975046
20
5.133035
70
0
0
VERTEX
8
Layer 1
10
18.986159
20
5.141290
70
0
0
VERTEX
8
Layer 1
10
19.085880
20
5.214156
70
0
0
VERTEX
8
Layer 1
10
20.045787
20
5.953666
70
0
0
VERTEX
8
Layer 1
10
19.053336
20
6.716406
70
0
0
VERTEX
8
Layer 1
10
18.987455
20
6.763951
70
0
0
VERTEX
8
Layer 1
10
18.986926
20
6.764454
70
0
0
VERTEX
8
Layer 1
10
18.672330
20
7.182154
70
0
0
VERTEX
8
Layer 1
10
18.651540
20
7.687901
70
0
0
VERTEX
8
Layer 1
10
18.622860
20
7.641414
70
0
0
VERTEX
8
Layer 1
10
15.773433
20
3.325907
70
0
0
VERTEX
8
Layer 1
10
15.205327
20
2.936652
70
0
0
VERTEX
8
Layer 1
10
14.537328
20
3.015075
70
0
0
VERTEX
8
Layer 1
10
14.126209
20
3.433215
70
0
0
VERTEX
8
Layer 1
10
14.070709
20
4.014510
70
0
0
VERTEX
8
Layer 1
10
13.945138
20
3.848088
70
0
0
VERTEX
8
Layer 1
10
13.945376
20
3.847850
70
0
0
VERTEX
8
Layer 1
10
13.432297
20
3.572670
70
0
0
VERTEX
8
Layer 1
10
12.875164
20
3.629516
70
0
0
VERTEX
8
Layer 1
10
12.752954
20
3.689708
70
0
0
VERTEX
8
Layer 1
10
12.741074
20
3.696693
70
0
0
VERTEX
8
Layer 1
10
12.729432
20
3.704446
70
0
0
VERTEX
8
Layer 1
10
12.711864
20
3.716325
70
0
0
VERTEX
8
Layer 1
10
11.783743
20
4.349651
70
0
0
VERTEX
8
Layer 1
10
10.892353
20
5.217014
70
0
0
VERTEX
8
Layer 1
10
10.878912
20
5.231222
70
0
0
VERTEX
8
Layer 1
10
10.866768
20
5.246197
70
0
0
VERTEX
8
Layer 1
10
10.686517
20
5.523388
70
0
0
VERTEX
8
Layer 1
10
10.583320
20
5.953136
70
0
0
VERTEX
8
Layer 1
10
10.686491
20
6.382750
70
0
0
VERTEX
8
Layer 1
10
10.866239
20
6.659547
70
0
0
VERTEX
8
Layer 1
10
10.878648
20
6.675051
70
0
0
VERTEX
8
Layer 1
10
10.892353
20
6.689788
70
0
0
VERTEX
8
Layer 1
10
11.791991
20
7.563852
70
0
0
VERTEX
8
Layer 1
10
12.732528
20
8.202092
70
0
0
VERTEX
8
Layer 1
10
10.706060
20
8.202092
70
0
0
VERTEX
8
Layer 1
10
10.236584
20
8.354016
70
0
0
VERTEX
8
Layer 1
10
9.974065
20
8.818332
70
0
0
VERTEX
8
Layer 1
10
9.971207
20
8.837700
70
0
0
VERTEX
8
Layer 1
10
9.969911
20
8.857596
70
0
0
VERTEX
8
Layer 1
10
9.966551
20
8.907206
70
0
0
VERTEX
8
Layer 1
10
9.965281
20
8.925039
70
0
0
VERTEX
8
Layer 1
10
9.965281
20
8.990920
70
0
0
VERTEX
8
Layer 1
10
9.013671
20
8.411781
70
0
0
VERTEX
8
Layer 1
10
7.871344
20
8.202092
70
0
0
VERTEX
8
Layer 1
10
2.976559
20
8.202092
70
0
0
VERTEX
8
Layer 1
10
1.873714
20
8.396658
70
0
0
VERTEX
8
Layer 1
10
0.943792
20
8.936297
70
0
0
VERTEX
8
Layer 1
10
0.287082
20
9.754918
70
0
0
VERTEX
8
Layer 1
10
0.003876
20
10.786433
70
0
0
VERTEX
8
Layer 1
10
0.003617
20
10.793921
70
0
0
VERTEX
8
Layer 1
10
0.003359
20
10.801673
70
0
0
VERTEX
8
Layer 1
10
0.000258
20
10.914835
70
0
0
VERTEX
8
Layer 1
10
0.000000
20
10.922085
70
0
0
VERTEX
8
Layer 1
10
0.000000
20
10.929308
70
0
0
VERTEX
8
Layer 1
10
0.149203
20
11.789843
70
0
0
VERTEX
8
Layer 1
10
0.561731
20
12.527124
70
0
0
VERTEX
8
Layer 1
10
1.184965
20
13.106608
70
0
0
VERTEX
8
Layer 1
10
1.966286
20
13.493752
70
0
0
VERTEX
8
Layer 1
10
1.184965
20
13.880896
70
0
0
VERTEX
8
Layer 1
10
0.561731
20
14.460380
70
0
0
VERTEX
8
Layer 1
10
0.149203
20
15.197661
70
0
0
VERTEX
8
Layer 1
10
0.000000
20
16.058196
70
0
0
VERTEX
8
Layer 1
10
0.241642
20
17.141704
70
0
0
VERTEX
8
Layer 1
10
0.892413
20
18.006142
70
0
0
VERTEX
8
Layer 1
10
1.841117
20
18.578411
70
0
0
VERTEX
8
Layer 1
10
2.976559
20
18.785412
70
0
0
VERTEX
8
Layer 1
10
7.871344
20
18.785412
70
0
0
VERTEX
8
Layer 1
10
8.597104
20
18.702706
70
0
0
VERTEX
8
Layer 1
10
9.266140
20
18.466507
70
0
0
VERTEX
8
Layer 1
10
9.851306
20
18.094690
70
0
0
VERTEX
8
Layer 1
10
10.325457
20
17.605134
70
0
0
VERTEX
8
Layer 1
10
12.144201
20
20.194369
70
0
0
VERTEX
8
Layer 1
10
12.150419
20
20.203154
70
0
0
VERTEX
8
Layer 1
10
12.466519
20
20.464485
70
0
0
VERTEX
8
Layer 1
10
12.848045
20
20.546529
70
0
0
VERTEX
8
Layer 1
10
15.845267
20
20.546529
70
0
0
VERTEX
8
Layer 1
10
16.224888
20
20.467264
70
0
0
VERTEX
8
Layer 1
10
16.547815
20
20.196169
70
0
0
VERTEX
8
Layer 1
10
18.562138
20
17.352933
70
0
0
VERTEX
8
Layer 1
10
18.603228
20
17.290941
70
0
0
VERTEX
8
Layer 1
10
18.734223
20
16.930235
70
0
0
VERTEX
8
Layer 1
10
18.853338
20
17.040037
70
0
0
VERTEX
8
Layer 1
10
18.859291
20
17.044694
70
0
0
VERTEX
8
Layer 1
10
18.865482
20
17.049086
70
0
0
VERTEX
8
Layer 1
10
20.668748
20
18.369937
70
0
0
VERTEX
8
Layer 1
10
20.671314
20
18.371736
70
0
0
VERTEX
8
Layer 1
10
20.673907
20
18.373800
70
0
0
VERTEX
8
Layer 1
10
20.857369
20
18.479237
70
0
0
VERTEX
8
Layer 1
10
20.870783
20
18.484925
70
0
0
VERTEX
8
Layer 1
10
20.904121
20
18.498869
70
0
0
VERTEX
8
Layer 1
10
21.154496
20
18.568375
70
0
0
VERTEX
8
Layer 1
10
21.170000
20
18.570174
70
0
0
VERTEX
8
Layer 1
10
21.185769
20
18.570967
70
0
0
VERTEX
8
Layer 1
10
21.223472
20
18.573031
70
0
0
VERTEX
8
Layer 1
10
21.237945
20
18.573799
70
0
0
VERTEX
8
Layer 1
10
23.792309
20
18.573799
70
0
0
VERTEX
8
Layer 1
10
24.325364
20
18.365810
70
0
0
VERTEX
8
Layer 1
10
24.332323
20
18.358296
70
0
0
VERTEX
8
Layer 1
10
24.339837
20
18.365810
70
0
0
VERTEX
8
Layer 1
10
24.698982
20
18.555966
70
0
0
VERTEX
8
Layer 1
10
24.698982
20
19.102965
70
0
0
VERTEX
8
Layer 1
10
24.700516
20
19.154902
70
0
0
VERTEX
8
Layer 1
10
24.851435
20
19.572970
70
0
0
VERTEX
8
Layer 1
10
25.315725
20
19.835224
70
0
0
VERTEX
8
Layer 1
10
25.335119
20
19.837791
70
0
0
VERTEX
8
Layer 1
10
25.354751
20
19.839087
70
0
0
VERTEX
8
Layer 1
10
25.404360
20
19.842448
70
0
0
VERTEX
8
Layer 1
10
25.422193
20
19.843744
70
0
0
VERTEX
8
Layer 1
10
28.073844
20
19.843744
70
0
0
VERTEX
8
Layer 1
10
28.091835
20
19.842448
70
0
0
VERTEX
8
Layer 1
10
28.141312
20
19.839087
70
0
0
VERTEX
8
Layer 1
10
28.161156
20
19.837791
70
0
0
VERTEX
8
Layer 1
10
28.180735
20
19.834960
70
0
0
VERTEX
8
Layer 1
10
28.645078
20
19.572441
70
0
0
VERTEX
8
Layer 1
10
28.796949
20
19.102965
70
0
0
VERTEX
8
Layer 1
10
28.796949
20
18.573799
70
0
0
VERTEX
8
Layer 1
10
29.089049
20
18.573799
70
0
0
VERTEX
8
Layer 1
10
29.621919
20
18.365810
70
0
0
VERTEX
8
Layer 1
10
29.633296
20
18.353665
70
0
0
VERTEX
8
Layer 1
10
29.644938
20
18.365810
70
0
0
VERTEX
8
Layer 1
10
30.178072
20
18.573799
70
0
0
VERTEX
8
Layer 1
10
32.252668
20
18.573799
70
0
0
VERTEX
8
Layer 1
10
32.269866
20
18.572767
70
0
0
VERTEX
8
Layer 1
10
32.321459
20
18.569406
70
0
0
VERTEX
8
Layer 1
10
32.337070
20
18.567343
70
0
0
VERTEX
8
Layer 1
10
32.895340
20
18.268126
70
0
0
VERTEX
8
Layer 1
10
33.001173
20
18.158827
70
0
0
VERTEX
8
Layer 1
10
33.170771
20
18.322921
70
0
0
VERTEX
8
Layer 1
10
33.182677
20
18.334272
70
0
0
VERTEX
8
Layer 1
10
33.195112
20
18.344881
70
0
0
VERTEX
8
Layer 1
10
33.718458
20
18.570174
70
0
0
VERTEX
8
Layer 1
10
33.730893
20
18.571206
70
0
0
VERTEX
8
Layer 1
10
33.790424
20
18.573799
70
0
0
VERTEX
8
Layer 1
10
34.478869
20
18.573799
70
0
0
VERTEX
8
Layer 1
10
35.012004
20
18.365810
70
0
0
VERTEX
8
Layer 1
10
35.219701
20
17.833284
70
0
0
VERTEX
8
Layer 1
10
35.219701
20
16.856602
70
0
0
VERTEX
8
Layer 1
10
36.638131
20
18.274846
70
0
0
VERTEX
8
Layer 1
10
36.701631
20
18.333769
70
0
0
VERTEX
8
Layer 1
10
37.252493
20
18.569142
70
0
0
VERTEX
8
Layer 1
10
37.264928
20
18.570174
70
0
0
VERTEX
8
Layer 1
10
37.277363
20
18.570967
70
0
0
VERTEX
8
Layer 1
10
37.325253
20
18.573269
70
0
0
VERTEX
8
Layer 1
10
37.337953
20
18.573799
70
0
0
VERTEX
8
Layer 1
10
39.924516
20
18.573799
70
0
0
VERTEX
8
Layer 1
10
40.313586
20
18.495680
70
0
0
VERTEX
8
Layer 1
10
40.637568
20
18.274846
70
0
0
VERTEX
8
Layer 1
10
42.330634
20
16.581409
70
0
0
VERTEX
8
Layer 1
10
42.451284
20
16.435677
70
0
0
VERTEX
8
Layer 1
10
42.451284
20
17.833284
70
0
0
VERTEX
8
Layer 1
10
42.603419
20
18.302495
70
0
0
VERTEX
8
Layer 1
10
43.067762
20
18.565014
70
0
0
VERTEX
8
Layer 1
10
43.087342
20
18.567845
70
0
0
VERTEX
8
Layer 1
10
43.106921
20
18.569142
70
0
0
VERTEX
8
Layer 1
10
43.156398
20
18.572502
70
0
0
VERTEX
8
Layer 1
10
43.174389
20
18.573799
70
0
0
VERTEX
8
Layer 1
10
47.734742
20
18.573799
70
0
0
VERTEX
8
Layer 1
10
47.747707
20
18.573269
70
0
0
VERTEX
8
Layer 1
10
47.795596
20
18.570967
70
0
0
VERTEX
8
Layer 1
10
47.807502
20
18.570174
70
0
0
VERTEX
8
Layer 1
10
47.819938
20
18.569142
70
0
0
VERTEX
8
Layer 1
10
48.370799
20
18.333769
70
0
0
VERTEX
8
Layer 1
10
48.434564
20
18.274846
70
0
0
VERTEX
8
Layer 1
10
50.127895
20
16.581409
70
0
0
VERTEX
8
Layer 1
10
50.332947
20
16.282986
70
0
0
VERTEX
8
Layer 1
10
50.538528
20
16.581409
70
0
0
VERTEX
8
Layer 1
10
52.231859
20
18.274846
70
0
0
VERTEX
8
Layer 1
10
52.295359
20
18.333769
70
0
0
VERTEX
8
Layer 1
10
52.846221
20
18.569142
70
0
0
VERTEX
8
Layer 1
10
52.858656
20
18.570174
70
0
0
VERTEX
8
Layer 1
10
52.871092
20
18.570967
70
0
0
VERTEX
8
Layer 1
10
52.919246
20
18.573269
70
0
0
VERTEX
8
Layer 1
10
52.931946
20
18.573799
70
0
0
VERTEX
8
Layer 1
10
57.474307
20
18.573799
70
0
0
VERTEX
8
Layer 1
10
58.006912
20
18.366048
70
0
0
VERTEX
8
Layer 1
10
58.130208
20
18.198884
70
0
0
VERTEX
8
Layer 1
10
58.252975
20
18.365810
70
0
0
VERTEX
8
Layer 1
10
58.786109
20
18.573799
70
0
0
VERTEX
8
Layer 1
10
61.402041
20
18.573799
70
0
0
VERTEX
8
Layer 1
10
61.935176
20
18.365810
70
0
0
VERTEX
8
Layer 1
10
62.028574
20
18.248758
70
0
0
VERTEX
8
Layer 1
10
62.122236
20
18.365810
70
0
0
VERTEX
8
Layer 1
10
62.655371
20
18.573799
70
0
0
VERTEX
8
Layer 1
10
65.271303
20
18.573799
70
0
0
VERTEX
8
Layer 1
10
65.804438
20
18.365810
70
0
0
VERTEX
8
Layer 1
10
65.817138
20
18.352369
70
0
0
VERTEX
8
Layer 1
10
65.829838
20
18.365810
70
0
0
VERTEX
8
Layer 1
10
66.188877
20
18.555966
70
0
0
VERTEX
8
Layer 1
10
66.188877
20
19.102965
70
0
0
VERTEX
8
Layer 1
10
66.190465
20
19.154902
70
0
0
VERTEX
8
Layer 1
10
66.341277
20
19.572970
70
0
0
VERTEX
8
Layer 1
10
66.805620
20
19.835224
70
0
0
VERTEX
8
Layer 1
10
66.824935
20
19.837791
70
0
0
VERTEX
8
Layer 1
10
66.844778
20
19.839087
70
0
0
VERTEX
8
Layer 1
10
66.894255
20
19.842448
70
0
0
VERTEX
8
Layer 1
10
66.911982
20
19.843744
70
0
0
VERTEX
8
Layer 1
10
69.563898
20
19.843744
70
0
0
VERTEX
8
Layer 1
10
69.581625
20
19.842448
70
0
0
VERTEX
8
Layer 1
10
69.631366
20
19.839087
70
0
0
VERTEX
8
Layer 1
10
69.650946
20
19.837791
70
0
0
VERTEX
8
Layer 1
10
69.670525
20
19.834960
70
0
0
VERTEX
8
Layer 1
10
70.134868
20
19.572441
70
0
0
VERTEX
8
Layer 1
10
70.286739
20
19.102965
70
0
0
VERTEX
8
Layer 1
10
70.286739
20
18.573799
70
0
0
VERTEX
8
Layer 1
10
70.579103
20
18.573799
70
0
0
VERTEX
8
Layer 1
10
71.111973
20
18.365810
70
0
0
VERTEX
8
Layer 1
10
71.319935
20
17.833019
70
0
0
VERTEX
8
Layer 1
10
71.319935
20
17.663527
70
0
0
VERTEX
8
Layer 1
10
73.097404
20
20.194369
70
0
0
VERTEX
8
Layer 1
10
73.103754
20
20.203154
70
0
0
VERTEX
8
Layer 1
10
73.419864
20
20.464485
70
0
0
VERTEX
8
Layer 1
10
73.801459
20
20.546529
70
0
0
VERTEX
8
Layer 1
10
76.798655
20
20.546529
70
0
0
VERTEX
8
Layer 1
10
77.178167
20
20.467264
70
0
0
VERTEX
8
Layer 1
10
77.501123
20
20.196169
70
0
0
VERTEX
8
Layer 1
10
79.515394
20
17.352933
70
0
0
VERTEX
8
Layer 1
10
79.525977
20
17.337190
70
0
0
VERTEX
8
Layer 1
10
79.525977
20
17.849820
70
0
0
VERTEX
8
Layer 1
10
79.805377
20
18.551309
70
0
0
VERTEX
8
Layer 1
10
79.810668
20
18.556997
70
0
0
VERTEX
8
Layer 1
10
81.515641
20
20.261547
70
0
0
VERTEX
8
Layer 1
10
81.521197
20
20.266971
70
0
0
VERTEX
8
Layer 1
10
82.222607
20
20.546529
70
0
0
VERTEX
8
Layer 1
10
83.426195
20
20.546529
70
0
0
VERTEX
8
Layer 1
10
82.981534
20
21.179658
70
0
0
VERTEX
8
Layer 1
10
82.714500
20
21.961622
70
0
0
VERTEX
8
Layer 1
10
82.549896
20
23.944781
70
0
0
VERTEX
8
Layer 1
10
82.735699
20
26.019047
70
0
0
VERTEX
8
Layer 1
10
83.039689
20
26.822453
70
0
0
VERTEX
8
Layer 1
10
83.548168
20
27.459289
70
0
0
VERTEX
8
Layer 1
10
84.257581
20
27.897223
70
0
0
VERTEX
8
Layer 1
10
85.129316
20
28.151237
70
0
0
VERTEX
8
Layer 1
10
87.444682
20
28.310400
70
0
0
VERTEX
8
Layer 1
10
87.444682
20
27.781234
70
0
0
VERTEX
8
Layer 1
10
85.227765
20
27.631372
70
0
0
VERTEX
8
Layer 1
10
84.464635
20
27.410327
70
0
0
VERTEX
8
Layer 1
10
83.897616
20
27.061899
70
0
0
VERTEX
8
Layer 1
10
83.501129
20
26.563609
70
0
0
VERTEX
8
Layer 1
10
83.249594
20
25.892979
70
0
0
VERTEX
8
Layer 1
10
83.079062
20
23.944781
70
0
0
VERTEX
8
Layer 1
10
83.249594
20
21.996585
70
0
0
VERTEX
8
Layer 1
10
83.501129
20
21.325955
70
0
0
VERTEX
8
Layer 1
10
83.897616
20
20.827665
70
0
0
VERTEX
8
Layer 1
10
84.464635
20
20.479236
70
0
0
VERTEX
8
Layer 1
10
85.227765
20
20.258190
70
0
0
VERTEX
8
Layer 1
10
87.444682
20
20.108327
70
0
0
VERTEX
8
Layer 1
10
87.444682
20
20.372910
70
0
0
VERTEX
8
Layer 1
10
85.277218
20
20.518113
70
0
0
VERTEX
8
Layer 1
10
84.568300
20
20.722682
70
0
0
VERTEX
8
Layer 1
10
84.072307
20
21.026351
70
0
0
VERTEX
8
Layer 1
10
83.731863
20
21.455373
70
0
0
VERTEX
8
Layer 1
10
83.506562
20
22.059620
70
0
0
VERTEX
8
Layer 1
10
83.343645
20
23.944781
70
0
0
VERTEX
8
Layer 1
10
83.506562
20
25.829939
70
0
0
VERTEX
8
Layer 1
10
83.731863
20
26.434184
70
0
0
VERTEX
8
Layer 1
10
84.072307
20
26.863202
70
0
0
VERTEX
8
Layer 1
10
84.568300
20
27.166875
70
0
0
VERTEX
8
Layer 1
10
85.277218
20
27.371440
70
0
0
VERTEX
8
Layer 1
10
87.444682
20
27.516651
70
0
0
VERTEX
8
Layer 1
10
87.444682
20
27.406323
70
0
0
VERTEX
8
Layer 1
10
85.332515
20
27.266279
70
0
0
VERTEX
8
Layer 1
10
84.689909
20
27.083534
70
0
0
VERTEX
8
Layer 1
10
84.237406
20
26.808169
70
0
0
VERTEX
8
Layer 1
10
83.917790
20
26.401814
70
0
0
VERTEX
8
Layer 1
10
83.703742
20
25.820632
70
0
0
VERTEX
8
Layer 1
10
83.542082
20
23.944781
70
0
0
VERTEX
8
Layer 1
10
83.703742
20
22.068940
70
0
0
VERTEX
8
Layer 1
10
83.917889
20
21.487641
70
0
0
VERTEX
8
Layer 1
10
84.237406
20
21.081146
70
0
0
VERTEX
8
Layer 1
10
85.076267
20
20.679472
70
0
0
VERTEX
8
Layer 1
10
86.532664
20
20.501577
70
0
0
VERTEX
8
Layer 1
10
86.809947
20
20.489432
70
0
0
VERTEX
8
Layer 1
10
86.808889
20
20.766953
70
0
0
VERTEX
8
Layer 1
10
86.805449
20
21.594543
70
0
0
VERTEX
8
Layer 1
10
86.803597
20
21.914423
70
0
0
VERTEX
8
Layer 1
10
86.630295
20
21.880557
70
0
0
VERTEX
8
Layer 1
10
86.653049
20
21.889103
70
0
0
VERTEX
8
Layer 1
10
86.791691
20
21.945433
70
0
0
VERTEX
8
Layer 1
10
86.814709
20
22.093467
70
0
0
VERTEX
8
Layer 1
10
86.961818
20
22.392948
70
0
0
VERTEX
8
Layer 1
10
87.472463
20
22.797046
70
0
0
VERTEX
8
Layer 1
10
86.824764
20
22.863721
70
0
0
VERTEX
8
Layer 1
10
86.238646
20
22.972501
70
0
0
VERTEX
8
Layer 1
10
85.760082
20
23.204768
70
0
0
VERTEX
8
Layer 1
10
85.438316
20
23.612511
70
0
0
VERTEX
8
Layer 1
10
85.307645
20
24.325648
70
0
0
VERTEX
8
Layer 1
10
85.391253
20
24.739036
70
0
0
VERTEX
8
Layer 1
10
85.625673
20
25.074179
70
0
0
VERTEX
8
Layer 1
10
85.756113
20
25.203349
70
0
0
VERTEX
8
Layer 1
10
85.680707
20
25.370777
70
0
0
VERTEX
8
Layer 1
10
85.662980
20
25.919334
70
0
0
VERTEX
8
Layer 1
10
85.681236
20
25.916233
70
0
0
VERTEX
8
Layer 1
10
86.397991
20
25.602552
70
0
0
VERTEX
8
Layer 1
10
86.492976
20
25.544423
70
0
0
VERTEX
8
Layer 1
10
86.601191
20
25.571543
70
0
0
VERTEX
8
Layer 1
10
87.500773
20
25.680847
70
0
0
VERTEX
8
Layer 1
10
88.400884
20
25.571543
70
0
0
VERTEX
8
Layer 1
10
88.508834
20
25.544423
70
0
0
VERTEX
8
Layer 1
10
88.604084
20
25.602552
70
0
0
VERTEX
8
Layer 1
10
89.338037
20
25.919594
70
0
0
VERTEX
8
Layer 1
10
89.321104
20
25.370777
70
0
0
VERTEX
8
Layer 1
10
89.245433
20
25.203111
70
0
0
VERTEX
8
Layer 1
10
89.376137
20
25.073915
70
0
0
VERTEX
8
Layer 1
10
89.610293
20
24.739241
70
0
0
VERTEX
8
Layer 1
10
89.693637
20
24.325648
70
0
0
VERTEX
8
Layer 1
10
89.693637
20
24.325648
70
0
0
SEQEND
8
Layer 1
0
POLYLINE
8
Layer 1
62
7
70
1
10
0.000000
20
0.000000
66
1
0
VERTEX
8
Layer 1
10
90.487386
20
24.325648
70
0
0
VERTEX
8
Layer 1
10
90.286766
20
23.285896
70
0
0
VERTEX
8
Layer 1
10
89.720624
20
22.572256
70
0
0
VERTEX
8
Layer 1
10
88.971325
20
22.208719
70
0
0
VERTEX
8
Layer 1
10
88.989846
20
21.956783
70
0
0
VERTEX
8
Layer 1
10
88.987730
20
21.343136
70
0
0
VERTEX
8
Layer 1
10
89.776584
20
21.494653
70
0
0
VERTEX
8
Layer 1
10
90.128082
20
21.677225
70
0
0
VERTEX
8
Layer 1
10
90.414361
20
22.256503
70
0
0
VERTEX
8
Layer 1
10
90.553532
20
23.944781
70
0
0
VERTEX
8
Layer 1
10
90.414361
20
25.633058
70
0
0
VERTEX
8
Layer 1
10
90.128082
20
26.212082
70
0
0
VERTEX
8
Layer 1
10
90.062730
20
26.261432
70
0
0
VERTEX
8
Layer 1
10
90.146339
20
25.390436
70
0
0
VERTEX
8
Layer 1
10
90.396832
20
24.901628
70
0
0
VERTEX
8
Layer 1
10
90.487386
20
24.325648
70
0
0
VERTEX
8
Layer 1
10
90.487386
20
24.325648
70
0
0
SEQEND
8
Layer 1
 0 
ENDSEC
 0 
EOF